<?xml version="1.0" encoding="UTF-8" standalone="no"?>
<svg
   xmlns:dc="http://purl.org/dc/elements/1.1/"
   xmlns:cc="http://creativecommons.org/ns#"
   xmlns:rdf="http://www.w3.org/1999/02/22-rdf-syntax-ns#"
   xmlns:svg="http://www.w3.org/2000/svg"
   xmlns="http://www.w3.org/2000/svg"
   xmlns:sodipodi="http://sodipodi.sourceforge.net/DTD/sodipodi-0.dtd"
   xmlns:inkscape="http://www.inkscape.org/namespaces/inkscape"
   class="svg-inline--fa fa-parachute-box fa-w-16"
   aria-hidden="true"
   data-icon="parachute-box"
   data-prefix="fas"
   focusable="false"
   role="img"
   version="1.1"
   viewBox="0 0 512 512"
   id="svg6"
   sodipodi:docname="parachute-box-solid.svg"
   inkscape:version="0.92.3 (2405546, 2018-03-11)">
  <defs
     id="defs10" />
  <sodipodi:namedview
     pagecolor="#ffffff"
     bordercolor="#666666"
     borderopacity="1"
     objecttolerance="10"
     gridtolerance="10"
     guidetolerance="10"
     inkscape:pageopacity="0"
     inkscape:pageshadow="2"
     inkscape:window-width="1920"
     inkscape:window-height="1007"
     id="namedview8"
     showgrid="false"
     inkscape:zoom="0.4609375"
     inkscape:cx="-164.88136"
     inkscape:cy="256"
     inkscape:window-x="0"
     inkscape:window-y="0"
     inkscape:window-maximized="1"
     inkscape:current-layer="svg6" />
  <metadata
     id="metadata2">
    <rdf:RDF>
      <cc:Work
         rdf:about="">
        <dc:format>image/svg+xml</dc:format>
        <dc:type
           rdf:resource="http://purl.org/dc/dcmitype/StillImage" />
        <dc:title />
      </cc:Work>
    </rdf:RDF>
  </metadata>
  <path
     d="M511.9 175c-9.1-75.6-78.4-132.4-158.3-158.7C390 55.7 416 116.9 416 192h28.1L327.5 321.5c-2.5-.6-4.8-1.5-7.5-1.5h-48V192h112C384 76.8 315.1 0 256 0S128 76.8 128 192h112v128h-48c-2.7 0-5 .9-7.5 1.5L67.9 192H96c0-75.1 26-136.3 62.4-175.7C78.5 42.7 9.2 99.5.1 175c-1.1 9.1 6.8 17 16 17h8.7l136.7 151.9c-.7 2.6-1.6 5.2-1.6 8.1v128c0 17.7 14.3 32 32 32h128c17.7 0 32-14.3 32-32V352c0-2.9-.9-5.4-1.6-8.1L487.1 192h8.7c9.3 0 17.2-7.8 16.1-17z"
     fill="#f1f9fd"
     opacity=".99"
     id="path4"
     style="fill:#716e90;fill-opacity:1" />
</svg>
