<?xml version="1.0" encoding="UTF-8" standalone="no"?>
<!-- Created with Inkscape (http://www.inkscape.org/) -->

<svg
   xmlns:dc="http://purl.org/dc/elements/1.1/"
   xmlns:cc="http://creativecommons.org/ns#"
   xmlns:rdf="http://www.w3.org/1999/02/22-rdf-syntax-ns#"
   xmlns:svg="http://www.w3.org/2000/svg"
   xmlns="http://www.w3.org/2000/svg"
   xmlns:sodipodi="http://sodipodi.sourceforge.net/DTD/sodipodi-0.dtd"
   xmlns:inkscape="http://www.inkscape.org/namespaces/inkscape"
   width="882.22"
   height="440.97"
   version="1.1"
   viewBox="0 0 882.22 440.97"
   xml:space="preserve"
   id="svg845"
   sodipodi:docname="forest-no-hill.svg"
   inkscape:version="0.92.3 (2405546, 2018-03-11)"><defs
     id="defs849"><filter
       inkscape:collect="always"
       style="color-interpolation-filters:sRGB"
       id="filter1622"
       x="-0.0044995511"
       width="1.0089991"
       y="-0.009001796"
       height="1.0180036"><feGaussianBlur
         inkscape:collect="always"
         stdDeviation="12.404887"
         id="feGaussianBlur1624" /></filter></defs><sodipodi:namedview
     pagecolor="#ffffff"
     bordercolor="#666666"
     borderopacity="1"
     objecttolerance="10"
     gridtolerance="10"
     guidetolerance="10"
     inkscape:pageopacity="0"
     inkscape:pageshadow="2"
     inkscape:window-width="1920"
     inkscape:window-height="1007"
     id="namedview847"
     showgrid="false"
     inkscape:zoom="1.6957222"
     inkscape:cx="281.03644"
     inkscape:cy="236.14671"
     inkscape:window-x="0"
     inkscape:window-y="0"
     inkscape:window-maximized="1"
     inkscape:current-layer="g841" /><metadata
     id="metadata837"><rdf:RDF><cc:Work
         rdf:about=""><dc:format>image/svg+xml</dc:format><dc:type
           rdf:resource="http://purl.org/dc/dcmitype/StillImage" /><dc:title /></cc:Work></rdf:RDF></metadata><g
     transform="matrix(1.3333 0 0 -1.3333 0 715.68)"
     id="g843"><g
       transform="scale(.1)"
       id="g841"><path
         d="m3307.6 3247.7h-19.31l9.65-19.99zm12.6 325.92 21.99-45.55 50.42-104.34 72.41 149.89zm37.24 169.28h-119.01l59.51-123.2zm2962.1 49.31 30.28 62.68 103.74 214.85h-78.74l25.67-53.18h-189.33l103.76-214.82zm0-391.98 5.36 11.08 53.14 110.06h-117.03zm-616.08 317.73 36.66 75.94h-73.34zm-791.61-355.79 46.49 96.25 103.77 214.83h-189.34l12.81 26.5h-136.77l103.74-214.82zm0-391.98 21.55 44.64 78.83 163.22h-189.31l12.77 26.49h-37.05l78.85-163.23zm-762.29 497.1 44.36-91.82 44.36 91.82zm21.14 252.13h-142.89l71.45-147.95 60.18 124.59zm-364.86-122.01 58.92 122.01h-117.85zm-94.67-196.01 74.77 154.8 8.4 17.42h-166.31l78.81-163.24zm94.67-195.97 9.08 18.77h-18.16zm271.81 18.77 21.61-44.72 21.6 44.72zm-1069.6 564.87h-78.74l78.81-163.21 55.21-114.3 7.97 16.51 103.78 214.83h-189.33zm-320.27-162.5 78.49 162.5h-156.99zm-94.67-196 69.54 143.95h-139.03zm94.67-195.99 28.62 59.27h-57.24zm313.66 13.12 31.63-65.44 30.26-62.67 61.87 128.11zm-998.09 719.23 39.13 81.06h-78.29zm-94.66-195.96 54.95 113.8 5.75 11.89h-121.43zm0-392 10.85 22.49h-21.72zm346.68 173.8 53.9-111.58 43.29-89.67 3.95 8.18 103.76 214.82h-26.09l10.52-21.75zm-578.4-151.31 11.73-24.3h-189.3l78.82-163.21 32.98-68.32 44.75 92.62 78.82 163.21zm-49.85 495.2 11.73-24.29h-189.33l103.76-214.82 57.92-119.96 69.67 144.25 103.79 214.82zm-313.47 217.47 54.15 112.06h-108.28zm0-391.99 4.27 8.85h-8.54zm-788.18 422.29 51.82 107.24 78.821 163.21h-71.946l19.731-40.84h-189.31l103.77-214.84zm0-391.97 26.899 55.62 34.171 70.75h-122.09zm484.5-516.68 43.26-89.53 43.25 89.53zm-11.7 188.69h-79.414l28.98-59.98 10.727-22.26zm-38.137 306.52 93.097-192.76 14.27 29.55 78.82 163.21zm-91.14 188.68 53.906-111.59 35.664-73.87 89.567 185.46zm-630-40.84 31.218-64.61 31.184 64.61zm-49.864 495.21 81.082-167.86 81.067 167.86zm1.285-333.05h-29.734l3.684-7.64 11.183-23.14zm27.122 155.57 24-49.71 5.957 12.35 18.046 37.36zm6399 58.69v-185.51h-99.68l99.68-206.44v-288.78h-49.84l49.84-103.23v-1382.5c-2085.2-2.11-4429.3-25.98-6616.6-28.41v3080.6l4.0625 8.4 110.5-228.77 110.49-228.77h-189.31l103.75-214.82 36.125-74.79 96.887 200.61 110.49 228.79 110.48-228.79 32.062-66.37 76.738 158.84 103.74 214.84h-189.29l110.46 228.77 110.49 228.77 110.5-228.77 110.49-228.77h-189.31l103.74-214.84c45.153-93.44 90.278-186.91 135.42-280.37h-189.32l78.824-163.21 155.27-321.45 39.19 81.14 103.78 214.83h-189.33l110.49 228.77 110.49 228.78 110.48-228.78 69.97-144.84 9.56 19.79 110.49-228.79 82.84-171.55 94.61 195.85 110.49 228.77 92.39-191.26 79.89 165.45 103.76 214.82h-189.32l110.5 228.76 110.49 228.77 110.48-228.77 110.49-228.76h-189.33l103.76-214.82c45.15-93.47 90.28-186.92 135.43-280.39h-189.31l78.82-163.22 68.21-141.26 28.89 59.78 110.49 228.77 101.17-209.51 119.26 246.89 103.75 214.84h-189.31l110.48 228.75 110.49 228.79 110.5-228.79 110.49-228.75h-189.33l103.77-214.84 80.12-165.92 32.91 68.15 110.49 228.78 110.49-228.78 75.35-155.99 18.5 38.31 103.74 214.83h-189.32l110.5 228.77 110.49 228.76 110.48-228.76 110.51-228.77h-189.33l103.76-214.83 29.25-60.58 99.69 206.38 103.78 214.82h-189.33l110.49 228.76 110.49 228.77 110.48-228.77 110.5-228.76h-189.32l103.76-214.82 112.21-232.34 76.01 157.37 110.48-228.76 110.51-228.77h-189.33l103.76-214.82c155.29-321.55 96.41-325.1 230.26-47.93h-189.3c45.12 93.45 90.25 186.92 135.41 280.39l103.76 214.82h-189.33l110.49 228.74 110.48 228.79 110.51-228.79 84.22-174.35 71.41 147.88 110.49 228.76 110.49-228.76 110.5-228.77h-189.33l103.77-214.83c45.13-93.44 90.25-186.9 135.4-280.37h-189.31l78.8-163.22 220.69 120.64 78.84 163.21h-189.32c45.12 93.47 90.29 186.94 135.43 280.37l103.76 214.85h-189.33l110.48 228.75 110.51 228.78 110.48-228.78 52.48-108.69 68.14 141.06 110.51-228.76 39.59-81.99 27.76 57.47 103.76 214.82h-189.33l110.5 228.77 110.49 228.77 110.49-228.77 29.54-61.16 55.21 114.32 110.48 228.79 110.49-228.79zm-6102.3-871.64 11.164-23.15 1.953 4.03 9.235 19.12h-22.352"
         fill="#f3f9ef"
         fill-rule="evenodd"
         id="path839"
         style="fill:#f2f8f2;fill-opacity:1;filter:url(#filter1622)" /></g></g></svg>