<svg id="Layer_1" data-name="Layer 1" xmlns="http://www.w3.org/2000/svg" xmlns:xlink="http://www.w3.org/1999/xlink" viewBox="0 0 338.19 271"><defs><style>.cls-1,.cls-4{fill:none;}.cls-2{clip-path:url(#clip-path);}.cls-3{fill:#fff;}.cls-4{stroke:#1d1d1b;stroke-linecap:round;stroke-miterlimit:10;}</style><clipPath id="clip-path"><circle class="cls-1" cx="164.45" cy="126.87" r="70.87"/></clipPath></defs><title>Artboard 6</title><g class="cls-2"><circle cx="164.45" cy="126.87" r="70.87"/><ellipse class="cls-3" cx="156.3" cy="178.26" rx="33.73" ry="30.33"/><path class="cls-3" d="M137.66,87.75c-26,35,16.75,85.6,13.26,86.12S163.64,52.76,137.66,87.75Z"/><path class="cls-3" d="M217.43,107.54c-3.07-24.66-61.59,53.92-54.06,63.86C194.49,150.47,220.49,132.2,217.43,107.54Z"/><circle cx="140.99" cy="181.09" r="2.55"/><circle cx="172.17" cy="181.09" r="2.55"/><path d="M153.41,186.74c1.36-1.36,4.69-1.52,6.2,0s-2,4.39-3.11,4.39S152.06,188.1,153.41,186.74Z"/><line class="cls-4" x1="156.3" y1="196.96" x2="156.3" y2="190.73"/></g></svg>