<?xml version="1.0" encoding="UTF-8"?>
<!-- Created with Inkscape (http://www.inkscape.org/) -->
<svg width="37.502mm" height="37.502mm" version="1.1" viewBox="0 0 37.502 37.502" xmlns="http://www.w3.org/2000/svg" xmlns:cc="http://creativecommons.org/ns#" xmlns:dc="http://purl.org/dc/elements/1.1/" xmlns:rdf="http://www.w3.org/1999/02/22-rdf-syntax-ns#">
 <metadata>
  <rdf:RDF>
   <cc:Work rdf:about="">
    <dc:format>image/svg+xml</dc:format>
    <dc:type rdf:resource="http://purl.org/dc/dcmitype/StillImage"/>
    <dc:title/>
   </cc:Work>
  </rdf:RDF>
 </metadata>
 <g transform="translate(-68.184 -102.19)">
  <circle cx="86.935" cy="120.94" r="18.751" fill="#fff" stroke-width=".26458"/>
  <path transform="matrix(.26458 0 0 .26458 68.184 102.19)" d="m70.869 0c-39.14 4.7661e-4 -70.869 31.729-70.869 70.869 0.02261 22.883 11.093 44.347 29.725 57.633-0.48422-2.0523-0.73033-4.1442-0.73438-6.2422 0.01684-10.869 6.4999-20.898 16.994-26.291-8.814-18.001-17.098-43.766-1.9043-64.219 18.086-24.358 15.728 27.127 13.801 60.523 1.602-0.21897 3.2195-0.33385 4.8398-0.34375 4.7143 0.0077 9.3744 0.90394 13.68 2.6309 14.381-25.124 45.242-60.749 47.449-43.021 2.4223 19.521-13.391 35.041-35.514 51.043 5.2224 5.4821 8.0991 12.459 8.1133 19.678-0.0027 5.8591-1.8927 11.592-5.4414 16.506 30.072-8.9123 50.709-36.532 50.732-67.896-4.8e-4 -39.141-31.731-70.87-70.871-70.869zm-23.459 122.54c-1.4089-4.3e-4 -2.5512 1.1418-2.5508 2.5508-4.31e-4 1.4089 1.1418 2.5512 2.5508 2.5508 1.4089 4.3e-4 2.5512-1.1418 2.5508-2.5508 4.31e-4 -1.4089-1.1418-2.5512-2.5508-2.5508zm31.18 0c-1.4089-4.3e-4 -2.5512 1.1418-2.5508 2.5508-4.31e-4 1.4089 1.1418 2.5512 2.5508 2.5508 1.4089 4.3e-4 2.5512-1.1418 2.5508-2.5508 4.31e-4 -1.4089-1.1418-2.5512-2.5508-2.5508zm-15.717 7.1211c-1.1912 0.02-2.363 0.40008-3.043 1.0801-1.1951 1.2039 1.2757 3.7126 2.6289 4.2734v6.2374l0.99609 0.067v-6.3259c1.3987-0.58426 3.8892-2.9282 2.5742-4.252-0.755-0.76-1.965-1.1001-3.1562-1.0801z" fill="#5e656a"/>
 </g>
</svg>
