<svg id="Layer_1" data-name="Layer 1" xmlns="http://www.w3.org/2000/svg" xmlns:xlink="http://www.w3.org/1999/xlink" viewBox="0 0 153.67 153.67"><defs><style>.cls-1{fill:none;}.cls-2{fill:#404040;}.cls-3{clip-path:url(#clip-path);}.cls-4{fill:#4d4c4c;}.cls-5{fill:#fff;}</style><clipPath id="clip-path"><circle class="cls-1" cx="77.1" cy="76.48" r="71"/></clipPath></defs><title>Artboard 7</title><circle class="cls-2" cx="77.1" cy="76.48" r="71"/><g class="cls-3"><ellipse class="cls-4" cx="90.96" cy="127.98" rx="33.5" ry="30.5"/><path class="cls-4" d="M109.75,37.72c26,35-16.75,85.6-13.25,86.12S83.77,2.73,109.75,37.72Z"/><path class="cls-4" d="M30,57.51c3.06-24.66,61.58,53.92,54.06,63.85C52.93,100.44,26.92,82.17,30,57.51Z"/></g><path class="cls-5" d="M32.6,47.24h8.76a11.48,11.48,0,0,1,7.1,2,7.25,7.25,0,0,1,2.87,6.2,8.27,8.27,0,0,1-3,6.72,11.24,11.24,0,0,1-7.37,2.36H35.49v4.84H32.6Zm8.72,14.65a7.45,7.45,0,0,0,5-1.59,5.84,5.84,0,0,0,1.92-4.67,5,5,0,0,0-2.16-4.41,8.85,8.85,0,0,0-5.2-1.36H35.49v12Z"/><path class="cls-5" d="M55.08,47.24H58V58.69q0,6,4,7.8a9.41,9.41,0,0,0,6.45,0A5.5,5.5,0,0,0,70.61,65a8.73,8.73,0,0,0,1.68-5.79V47.24h2.89V58.69q0,8-5.74,10.23a13.39,13.39,0,0,1-8.75,0,8.06,8.06,0,0,1-3.09-2.09q-2.52-2.74-2.52-7.7Z"/><path class="cls-5" d="M80.44,47.24h8.77a11.45,11.45,0,0,1,7.09,2,7.26,7.26,0,0,1,2.88,6.2,8.27,8.27,0,0,1-3,6.72,11.28,11.28,0,0,1-7.38,2.36H83.33v4.84H80.44Zm8.72,14.65a7.44,7.44,0,0,0,5-1.59,5.84,5.84,0,0,0,1.92-4.67A5,5,0,0,0,94,51.22a8.87,8.87,0,0,0-5.2-1.36H83.33v12Z"/><path class="cls-5" d="M103.41,47.24h16.52v2.62H106.3v6h12.14v2.62H106.3v8.29h13.94v2.62H103.41Z"/><path class="cls-5" d="M34.65,85.63h2.89v19.5H49.6v2.63h-15Z"/><path class="cls-5" d="M53.52,85.63H70v2.63H56.41v6H68.55v2.62H56.41v8.28H70.35v2.63H53.52Z"/><path class="cls-5" d="M74.93,85.63h8.76a11.55,11.55,0,0,1,7.1,2,7.31,7.31,0,0,1,2.87,6.21,8.27,8.27,0,0,1-3,6.72,11.25,11.25,0,0,1-7.37,2.36H77.82v4.84H74.93Zm8.72,14.66a7.45,7.45,0,0,0,5-1.59A5.84,5.84,0,0,0,90.6,94a5,5,0,0,0-2.16-4.41,8.85,8.85,0,0,0-5.2-1.36H77.82v12Z"/><path class="cls-5" d="M97.41,85.63h2.89V97.09q0,6,4,7.79a8.06,8.06,0,0,0,3.25.6,8.21,8.21,0,0,0,3.19-.55,5.46,5.46,0,0,0,2.18-1.58,8.73,8.73,0,0,0,1.67-5.79V85.63h2.9V97.09q0,7.95-5.74,10.23a13.42,13.42,0,0,1-8.76,0,8.1,8.1,0,0,1-3.08-2.09q-2.52-2.74-2.52-7.7ZM105,82l7.57-3.59L114,80.59l-7.84,3.14Z"/></svg>