<?xml version="1.0" encoding="UTF-8" standalone="no"?>
<svg
   xmlns:dc="http://purl.org/dc/elements/1.1/"
   xmlns:cc="http://creativecommons.org/ns#"
   xmlns:rdf="http://www.w3.org/1999/02/22-rdf-syntax-ns#"
   xmlns:svg="http://www.w3.org/2000/svg"
   xmlns="http://www.w3.org/2000/svg"
   xmlns:sodipodi="http://sodipodi.sourceforge.net/DTD/sodipodi-0.dtd"
   xmlns:inkscape="http://www.inkscape.org/namespaces/inkscape"
   id="Layer_1"
   data-name="Layer 1"
   viewBox="0 0 222.71505 178.34001"
   version="1.1"
   sodipodi:docname="bottom.svg"
   width="222.71506"
   height="178.34001"
   inkscape:version="0.92.3 (2405546, 2018-03-11)">
  <metadata
     id="metadata1459">
    <rdf:RDF>
      <cc:Work
         rdf:about="">
        <dc:format>image/svg+xml</dc:format>
        <dc:type
           rdf:resource="http://purl.org/dc/dcmitype/StillImage" />
        <dc:title>Artboard 5</dc:title>
      </cc:Work>
    </rdf:RDF>
  </metadata>
  <sodipodi:namedview
     pagecolor="#ffffff"
     bordercolor="#666666"
     borderopacity="1"
     objecttolerance="10"
     gridtolerance="10"
     guidetolerance="10"
     inkscape:pageopacity="0"
     inkscape:pageshadow="2"
     inkscape:window-width="1920"
     inkscape:window-height="1007"
     id="namedview1457"
     showgrid="false"
     fit-margin-top="0"
     fit-margin-left="0"
     fit-margin-right="0"
     fit-margin-bottom="0"
     inkscape:zoom="1.9943381"
     inkscape:cx="3.1549"
     inkscape:cy="83.846047"
     inkscape:window-x="0"
     inkscape:window-y="0"
     inkscape:window-maximized="1"
     inkscape:current-layer="g1454" />
  <defs
     id="defs1418">
    <style
       id="style1413">.cls-1,.cls-5{fill:none;}.cls-2{fill:#1d1d1b;}.cls-3{clip-path:url(#clip-path);}.cls-4{fill:#fff;}.cls-5{stroke:#1d1d1b;stroke-linecap:round;stroke-miterlimit:10;}</style>
    <clipPath
       id="clip-path">
      <circle
         class="cls-1"
         cx="155.37"
         cy="77.199997"
         r="70.870003"
         id="circle1415"
         style="fill:none" />
    </clipPath>
  </defs>
  <title
     id="title1420">Artboard 5</title>
  <g
     id="g2012"
     transform="translate(-104,-58.329994)"
     style="fill:#5e656a;fill-opacity:1">
    <path
       style="fill:#5e656a;fill-opacity:1"
       inkscape:connector-curvature="0"
       id="path1422"
       d="m 104,210.37 h 10.41 a 13.62,13.62 0 0 1 8.42,2.38 8.62,8.62 0 0 1 3.41,7.36 9.81,9.81 0 0 1 -3.6,8 13.31,13.31 0 0 1 -8.75,2.8 h -6.46 v 5.76 H 104 Z m 10.35,17.41 a 8.78,8.78 0 0 0 6,-1.9 6.9,6.9 0 0 0 2.29,-5.54 6,6 0 0 0 -2.56,-5.24 10.65,10.65 0 0 0 -6.18,-1.61 h -6.44 v 14.29 z"
       class="cls-2" />
    <path
       style="fill:#5e656a;fill-opacity:1"
       inkscape:connector-curvature="0"
       id="path1424"
       d="m 130.73,210.01672 h 3.43 v 13.6 q 0,7.17 4.77,9.26 a 9.67,9.67 0 0 0 3.86,0.71 9.94,9.94 0 0 0 3.79,-0.65 6.6,6.6 0 0 0 2.59,-1.88 c 1.32,-1.57 2,-3.86 2,-6.88 v -14.16 h 3.43 v 13.6 q 0,9.45 -6.81,12.16 a 14.33,14.33 0 0 1 -5.23,0.89 14,14 0 0 1 -5.17,-0.87 9.6,9.6 0 0 1 -3.67,-2.47 q -3,-3.27 -3,-9.15 z"
       class="cls-2" />
    <path
       style="fill:#5e656a;fill-opacity:1"
       inkscape:connector-curvature="0"
       id="path1426"
       d="m 160.84,210.37 h 10.41 a 13.62,13.62 0 0 1 8.42,2.38 8.63,8.63 0 0 1 3.42,7.36 9.81,9.81 0 0 1 -3.6,8 13.36,13.36 0 0 1 -8.76,2.8 h -6.46 v 5.76 h -3.43 z m 10.35,17.41 a 8.79,8.79 0 0 0 6,-1.9 6.92,6.92 0 0 0 2.28,-5.54 6,6 0 0 0 -2.56,-5.24 10.6,10.6 0 0 0 -6.18,-1.61 h -6.44 v 14.29 z"
       class="cls-2" />
    <path
       style="fill:#5e656a;fill-opacity:1"
       inkscape:connector-curvature="0"
       id="path1428"
       d="m 188.12,210.39 h 19.61 v 3.12 h -16.18 v 7.09 H 206 v 3.11 h -14.45 v 9.84 h 16.55 v 3.12 h -20 z"
       class="cls-2" />
    <path
       style="fill:#5e656a;fill-opacity:1"
       inkscape:connector-curvature="0"
       id="path1430"
       d="m 228.30506,210.39 h 3.43 v 23.16 h 14.32 v 3.12 h -17.75 z"
       class="cls-2" />
    <path
       style="fill:#5e656a;fill-opacity:1"
       inkscape:connector-curvature="0"
       id="path1432"
       d="m 250.71506,210.39 h 19.61 v 3.12 h -16.18 v 7.09 h 14.42 v 3.11 h -14.42 v 9.84 h 16.55 v 3.12 h -20 z"
       class="cls-2" />
    <path
       style="fill:#5e656a;fill-opacity:1"
       inkscape:connector-curvature="0"
       id="path1434"
       d="m 276.13506,210.37 h 10.41 a 13.62,13.62 0 0 1 8.42,2.38 8.63,8.63 0 0 1 3.42,7.36 9.81,9.81 0 0 1 -3.6,8 13.36,13.36 0 0 1 -8.76,2.8 h -6.46 v 5.76 h -3.43 z m 10.35,17.41 a 8.79,8.79 0 0 0 6,-1.9 6.92,6.92 0 0 0 2.28,-5.54 6,6 0 0 0 -2.56,-5.24 10.6,10.6 0 0 0 -6.18,-1.61 h -6.44 v 14.29 z"
       class="cls-2" />
    <path
       style="fill:#5e656a;fill-opacity:1"
       inkscape:connector-curvature="0"
       id="path1436"
       d="m 302.84506,210.01672 h 3.43 v 13.6 q 0,7.17 4.77,9.26 a 9.71,9.71 0 0 0 3.86,0.71 10,10 0 0 0 3.8,-0.65 6.64,6.64 0 0 0 2.58,-1.88 q 2,-2.35 2,-6.88 v -14.16 h 3.43 v 13.6 q 0,9.45 -6.81,12.16 a 14.29,14.29 0 0 1 -5.23,0.89 14,14 0 0 1 -5.17,-0.87 9.64,9.64 0 0 1 -3.66,-2.47 q -3,-3.27 -3,-9.15 z m 9,-4.27 9,-4.26 1.65,2.54 -9.31,3.73 z"
       class="cls-2" />
  </g>
  <g
     class="cls-3"
     clip-path="url(#clip-path)"
     id="g1454"
     transform="translate(-44.007475,-6.3299942)">
    <circle
       cx="155.37"
       cy="77.199997"
       r="70.870003"
       id="circle1438"
       style="fill:#5e656a;fill-opacity:1" />
    <ellipse
       class="cls-4"
       cx="147.22"
       cy="128.59"
       rx="33.73"
       ry="30.33"
       id="ellipse1440"
       style="fill:#ffffff" />
    <path
       class="cls-4"
       d="m 128.58,38.09 c -26,35 16.74,85.59 13.25,86.11 -3.49,0.52 12.73,-121.1 -13.25,-86.11 z"
       id="path1442"
       inkscape:connector-curvature="0"
       style="fill:#ffffff" />
    <path
       class="cls-4"
       d="m 208.34,57.87 c -3.06,-24.66 -61.58,53.92 -54.06,63.86 31.12,-20.93 57.13,-39.2 54.06,-63.86 z"
       id="path1444"
       inkscape:connector-curvature="0"
       style="fill:#ffffff" />
    <circle
       cx="131.91"
       cy="131.42"
       r="2.55"
       id="circle1446"
       style="fill:#5e656a;fill-opacity:1" />
    <circle
       cx="163.09"
       cy="131.42"
       r="2.55"
       id="circle1448"
       style="fill:#5e656a;fill-opacity:1" />
    <path
       d="m 144.33,137.07 c 1.36,-1.35 4.69,-1.51 6.2,0 1.51,1.51 -2,4.39 -3.12,4.39 -1.12,0 -4.41,-3.03 -3.08,-4.39 z"
       id="path1450"
       inkscape:connector-curvature="0"
       style="fill:#5e656a;fill-opacity:1" />
    <line
       class="cls-5"
       x1="147.22"
       y1="147.3"
       x2="147.22"
       y2="141.06"
       id="line1452"
       style="fill:#5a666e;stroke:#5e646a;stroke-linecap:round;stroke-miterlimit:10;fill-opacity:1;stroke-opacity:1" />
  </g>
</svg>
