<?xml version="1.0" encoding="UTF-8" standalone="no"?>
<svg
   xmlns:dc="http://purl.org/dc/elements/1.1/"
   xmlns:cc="http://creativecommons.org/ns#"
   xmlns:rdf="http://www.w3.org/1999/02/22-rdf-syntax-ns#"
   xmlns:svg="http://www.w3.org/2000/svg"
   xmlns="http://www.w3.org/2000/svg"
   xmlns:sodipodi="http://sodipodi.sourceforge.net/DTD/sodipodi-0.dtd"
   xmlns:inkscape="http://www.inkscape.org/namespaces/inkscape"
   id="Layer_1"
   data-name="Layer 1"
   viewBox="0 0 280.9 205.9"
   version="1.1"
   sodipodi:docname="logo.svg"
   inkscape:version="0.92.3 (2405546, 2018-03-11)">
  <metadata
     id="metadata979">
    <rdf:RDF>
      <cc:Work
         rdf:about="">
        <dc:format>image/svg+xml</dc:format>
        <dc:type
           rdf:resource="http://purl.org/dc/dcmitype/StillImage" />
      </cc:Work>
    </rdf:RDF>
  </metadata>
  <sodipodi:namedview
     pagecolor="#ffffff"
     bordercolor="#666666"
     borderopacity="1"
     objecttolerance="10"
     gridtolerance="10"
     guidetolerance="10"
     inkscape:pageopacity="0"
     inkscape:pageshadow="2"
     inkscape:window-width="1920"
     inkscape:window-height="1007"
     id="namedview977"
     showgrid="false"
     inkscape:zoom="1.8941234"
     inkscape:cx="105.10775"
     inkscape:cy="134.58182"
     inkscape:window-x="0"
     inkscape:window-y="0"
     inkscape:window-maximized="1"
     inkscape:current-layer="g958" />
  <defs
     id="defs938">
    <style
       id="style933">.cls-1,.cls-6{fill:none;}.cls-2{clip-path:url(#clip-path);}.cls-3{fill:#404040;}.cls-4{fill:#fff;}.cls-5{fill:#3f3f3f;}.cls-6{stroke:#3f3f3f;stroke-linecap:round;stroke-miterlimit:10;}</style>
    <clipPath
       id="clip-path">
      <circle
         class="cls-1"
         cx="140.45"
         cy="85.87"
         r="71.59"
         id="circle935" />
    </clipPath>
  </defs>
  <title
     id="title940">Artboard 1</title>
  <g
     class="cls-2"
     clip-path="url(#clip-path)"
     id="g958">
    <circle
       class="cls-3"
       cx="140.45"
       cy="85.87"
       r="70.87"
       id="circle942"
       style="fill:#787878;fill-opacity:0.95927614" />
    <ellipse
       class="cls-4"
       cx="126.63"
       cy="137.26"
       rx="33.73"
       ry="30.33"
       id="ellipse944" />
    <path
       class="cls-4"
       d="M108,46.75c-26,35,16.74,85.6,13.25,86.12S134,11.76,108,46.75Z"
       id="path946" />
    <path
       class="cls-4"
       d="M187.76,66.54c-3.07-24.66-61.58,53.92-54.06,63.86C164.82,109.47,190.82,91.2,187.76,66.54Z"
       id="path948" />
    <circle
       class="cls-5"
       cx="111.32"
       cy="140.09"
       r="2.55"
       id="circle950"
       style="stroke:#687787;stroke-opacity:0;fill:#787878;fill-opacity:0.95927614" />
    <circle
       class="cls-5"
       cx="142.5"
       cy="140.09"
       r="2.55"
       id="circle952"
       style="stroke:#687787;stroke-opacity:0;fill:#787878;fill-opacity:0.95927614" />
    <path
       class="cls-5"
       d="M123.74,146.74c1.36-1.36,4.69-1.52,6.2,0s-2,4.39-3.11,4.39S122.39,148.1,123.74,146.74Z"
       id="path954"
       style="stroke:#687787;stroke-opacity:0;fill:#787878;fill-opacity:0.95927614" />
    <line
       class="cls-6"
       x1="126.87"
       y1="156.96"
       x2="126.87"
       y2="150.73"
       id="line956"
       style="fill:#787878;fill-opacity:0.95927614;stroke:#787878;stroke-opacity:0.96078432" />
  </g>
  <path
     class="cls-3"
     d="M72.23,148.18l6.2,3.5a9.31,9.31,0,0,1,4.22,4.25,5.92,5.92,0,0,1-.44,5.54A6.73,6.73,0,0,1,77.38,165a9.11,9.11,0,0,1-6.16-1.28l-3.85-2.17L65.44,165l-2-1.16ZM72.54,162a6.07,6.07,0,0,0,4.2.89A4.77,4.77,0,0,0,80,160.38a4.11,4.11,0,0,0,.23-4,7.21,7.21,0,0,0-3.14-3l-3.83-2.17-4.81,8.51Z"
     id="path960"
     style="fill:#787878;fill-opacity:0.95927614" />
  <path
     class="cls-3"
     d="M87.07,156.09l2.25.68-2.71,8.9q-1.42,4.7,1.28,7a6.5,6.5,0,0,0,2.39,1.23,6.59,6.59,0,0,0,2.61.33,4.45,4.45,0,0,0,2.07-.71,7.1,7.1,0,0,0,2.67-4.11l2.81-9.27,2.25.68-2.7,8.91q-1.89,6.18-6.88,6.6a10.88,10.88,0,0,1-6.81-2.05,6.47,6.47,0,0,1-1.91-2.35,9,9,0,0,1-.14-6.59Z"
     id="path962"
     style="fill:#787878;fill-opacity:0.95927614" />
  <path
     class="cls-3"
     d="M106,161.45l7,1.12a9.36,9.36,0,0,1,5.44,2.51,5.91,5.91,0,0,1,1.51,5.34,6.7,6.7,0,0,1-3.29,5,9.14,9.14,0,0,1-6.22.95l-4.36-.69-.62,3.88-2.32-.37Zm5.12,12.87a6.07,6.07,0,0,0,4.24-.63,4.76,4.76,0,0,0,2.14-3.51,4.09,4.09,0,0,0-1.17-3.81,7.24,7.24,0,0,0-4-1.75l-4.35-.7-1.54,9.66Z"
     id="path964"
     style="fill:#787878;fill-opacity:0.95927614" />
  <path
     class="cls-3"
     d="M123.79,164l13.4.75-.12,2.13-11-.62-.27,4.84,9.85.55-.12,2.13-9.85-.55-.37,6.72,11.3.63-.12,2.13L122.79,182Z"
     id="path966"
     style="fill:#787878;fill-opacity:0.95927614" />
  <path
     class="cls-3"
     d="M147.75,164.59l2.34-.16,1.08,15.81,9.78-.67.15,2.13-12.12.83Z"
     id="path968"
     style="fill:#787878;fill-opacity:0.95927614" />
  <path
     class="cls-3"
     d="M162.4,163.46l13.24-2.17.35,2.11-10.93,1.79.79,4.78,9.73-1.59.35,2.1-9.74,1.6,1.09,6.64,11.17-1.83.35,2.1-13.49,2.21Z"
     id="path970"
     style="fill:#787878;fill-opacity:0.95927614" />
  <path
     class="cls-3"
     d="M178.68,160.65l6.83-2a9.32,9.32,0,0,1,6-.09,5.9,5.9,0,0,1,3.67,4.16,6.72,6.72,0,0,1-.8,5.94,9.1,9.1,0,0,1-5.2,3.54l-4.23,1.26,1.12,3.78-2.25.67ZM188.87,170a6.06,6.06,0,0,0,3.55-2.41,4.72,4.72,0,0,0,.41-4.08,4.11,4.11,0,0,0-2.7-2.93,7.24,7.24,0,0,0-4.37.14L181.54,162l2.79,9.37Z"
     id="path972"
     style="fill:#787878;fill-opacity:0.95927614" />
  <path
     class="cls-3"
     d="M194.9,155.85l2-1.13,4.49,8.15q2.37,4.29,5.92,4a7.58,7.58,0,0,0,4.6-2.5,4.44,4.44,0,0,0,.94-2,7.14,7.14,0,0,0-1.09-4.78l-4.67-8.49L209.2,148l4.49,8.15q3.1,5.66-.07,9.53a9.84,9.84,0,0,1-2.84,2.26,9.59,9.59,0,0,1-3.39,1.19,6.58,6.58,0,0,1-3-.27,9,9,0,0,1-4.81-4.5Zm4-5.53,4-5.53,1.83,1-4.36,5.31Z"
     id="path974"
     style="fill:#787878;fill-opacity:0.95927614" />
</svg>
