<?xml version="1.0" encoding="UTF-8" standalone="no"?>
<svg
   xmlns:dc="http://purl.org/dc/elements/1.1/"
   xmlns:cc="http://creativecommons.org/ns#"
   xmlns:rdf="http://www.w3.org/1999/02/22-rdf-syntax-ns#"
   xmlns:svg="http://www.w3.org/2000/svg"
   xmlns="http://www.w3.org/2000/svg"
   xmlns:sodipodi="http://sodipodi.sourceforge.net/DTD/sodipodi-0.dtd"
   xmlns:inkscape="http://www.inkscape.org/namespaces/inkscape"
   width="141.74"
   height="138.81"
   data-name="Layer 1"
   version="1.1"
   viewBox="0 0 141.74 138.81"
   id="svg970"
   sodipodi:docname="negative-alone.svg">
  <sodipodi:namedview
     pagecolor="#ffffff"
     bordercolor="#666666"
     borderopacity="1"
     objecttolerance="10"
     gridtolerance="10"
     guidetolerance="10"
     inkscape:pageopacity="0"
     inkscape:pageshadow="2"
     inkscape:window-width="640"
     inkscape:window-height="480"
     id="namedview972"
     showgrid="false" />
  <metadata
     id="metadata958">
    <rdf:RDF>
      <cc:Work
         rdf:about="">
        <dc:format>image/svg+xml</dc:format>
        <dc:type
           rdf:resource="http://purl.org/dc/dcmitype/StillImage" />
        <dc:title>Artboard 6</dc:title>
      </cc:Work>
    </rdf:RDF>
  </metadata>
  <defs
     id="defs962">
    <style
       id="style960">.cls-1,.cls-4{fill:none;}.cls-2{clip-path:url(#clip-path);}.cls-3{fill:#fff;}.cls-4{stroke:#1d1d1b;stroke-linecap:round;stroke-miterlimit:10;}</style>
  </defs>
  <title
     id="title964">Artboard 6</title>
  <g
     class="cls-2"
     transform="translate(-177.8 -46.427)"
     clip-path="url(#clip-path)"
     id="g968"
     style="fill:#5e656a;fill-opacity:1">
    <path
       d="m248.67 46.427a70.87 70.87 0 0 0-70.869 70.871 70.87 70.87 0 0 0 29.229 57.256 33.73 30.33 0 0 1-0.58594-5.5195 33.73 30.33 0 0 1 16.994-26.291c-8.814-18.001-17.098-43.766-1.9043-64.219 18.086-24.358 15.728 27.127 13.801 60.523a33.73 30.33 0 0 1 4.8398-0.34375 33.73 30.33 0 0 1 13.68 2.6309c14.381-25.124 45.242-60.749 47.449-43.021 2.4223 19.521-13.391 35.041-35.514 51.043a33.73 30.33 0 0 1 8.1133 19.678 33.73 30.33 0 0 1-5.2285 16.203 70.87 70.87 0 0 0 50.867-67.939 70.87 70.87 0 0 0-70.871-70.871zm-23.807 122.89a2.55 2.55 0 0 0-2.5508 2.5508 2.55 2.55 0 0 0 2.5508 2.5508 2.55 2.55 0 0 0 2.5508-2.5508 2.55 2.55 0 0 0-2.5508-2.5508zm31.18 0a2.55 2.55 0 0 0-2.5508 2.5508 2.55 2.55 0 0 0 2.5508 2.5508 2.55 2.55 0 0 0 2.5508-2.5508 2.55 2.55 0 0 0-2.5508-2.5508zm-15.717 7.1211c-1.1912 0.02-2.363 0.40007-3.043 1.0801-1.35 1.36 1.9798 4.3906 3.0898 4.3906 0.0101 0 0.0267-9e-3 0.0371-0.01 1.1424-0.0512 4.5686-2.8746 3.0723-4.3809-0.755-0.76-1.965-1.1001-3.1562-1.0801z"
       fill="#fefefe"
       id="path966"
       style="fill:#5e656a;fill-opacity:1" />
  </g>
</svg>
