<svg id="Layer_1" data-name="Layer 1" xmlns="http://www.w3.org/2000/svg" xmlns:xlink="http://www.w3.org/1999/xlink" viewBox="0 0 280.9 170.5"><defs><style>.cls-1,.cls-4{fill:none;}.cls-2{clip-path:url(#clip-path);}.cls-3{fill:#fff;}.cls-4{stroke:#1d1d1b;stroke-linecap:round;stroke-miterlimit:10;}.cls-5{fill:#1d1d1b;}</style><clipPath id="clip-path"><circle class="cls-1" cx="75.87" cy="85.25" r="70.87"/></clipPath></defs><title>Artboard 2</title><g class="cls-2"><circle cx="75.87" cy="85.25" r="70.87"/><ellipse class="cls-3" cx="67.72" cy="136.64" rx="33.73" ry="30.33"/><path class="cls-3" d="M49.08,46.14c-26,35,16.74,85.6,13.25,86.11S75.05,11.15,49.08,46.14Z"/><path class="cls-3" d="M128.84,65.92c-3.06-24.66-61.58,53.92-54.06,63.86C105.9,108.85,131.91,90.58,128.84,65.92Z"/><circle cx="52.41" cy="139.47" r="2.55"/><circle cx="83.59" cy="139.47" r="2.55"/><path d="M64.83,145.12a5,5,0,0,1,6.2,0c1.51,1.52-2,4.39-3.12,4.39S63.47,146.48,64.83,145.12Z"/><line class="cls-4" x1="67.72" y1="155.35" x2="67.72" y2="149.11"/></g><path class="cls-5" d="M158.71,43.78h11.5c3.88,0,7,.87,9.31,2.62a9.55,9.55,0,0,1,3.77,8.14,10.84,10.84,0,0,1-4,8.82,14.75,14.75,0,0,1-9.68,3.1H162.5v6.36h-3.79ZM170.15,63a9.71,9.71,0,0,0,6.6-2.09,7.66,7.66,0,0,0,2.52-6.13A6.61,6.61,0,0,0,176.44,49a11.65,11.65,0,0,0-6.82-1.79H162.5V63Z"/><path class="cls-5" d="M188.22,43.78H192v15q0,7.92,5.27,10.23a10.71,10.71,0,0,0,4.27.78,10.92,10.92,0,0,0,4.19-.72A7.14,7.14,0,0,0,208.6,67q2.19-2.59,2.19-7.61V43.78h3.8v15q0,10.44-7.53,13.43a17.41,17.41,0,0,1-11.49,0,10.63,10.63,0,0,1-4-2.73q-3.3-3.62-3.3-10.12Z"/><path class="cls-5" d="M221.5,43.78H233c3.89,0,7,.87,9.32,2.62a9.57,9.57,0,0,1,3.77,8.14,10.84,10.84,0,0,1-4,8.82,14.74,14.74,0,0,1-9.68,3.1h-7.14v6.36H221.5ZM232.94,63a9.76,9.76,0,0,0,6.61-2.09,7.66,7.66,0,0,0,2.52-6.13A6.61,6.61,0,0,0,239.24,49a11.69,11.69,0,0,0-6.83-1.79h-7.12V63Z"/><path class="cls-5" d="M251.65,43.78h21.67v3.44H255.44v7.84h15.94V58.5H255.44V69.37h18.29v3.45H251.65Z"/><path class="cls-5" d="M161.39,94.18h3.8v25.59H181v3.45H161.39Z"/><path class="cls-5" d="M186.17,94.18h21.67v3.44H190v7.84h15.93v3.44H190v10.87h18.29v3.45H186.17Z"/><path class="cls-5" d="M214.26,94.18h11.51q5.82,0,9.31,2.62a9.57,9.57,0,0,1,3.77,8.14,10.83,10.83,0,0,1-4,8.82,14.72,14.72,0,0,1-9.68,3.1h-7.14v6.36h-3.79Zm11.44,19.23a9.76,9.76,0,0,0,6.61-2.09,7.66,7.66,0,0,0,2.52-6.13A6.61,6.61,0,0,0,232,99.41a11.69,11.69,0,0,0-6.83-1.79h-7.12v15.79Z"/><path class="cls-5" d="M243.77,94.18h3.8v15q0,7.92,5.27,10.23a10.66,10.66,0,0,0,4.26.78,11,11,0,0,0,4.2-.72,7.21,7.21,0,0,0,2.86-2.07c1.46-1.73,2.19-4.27,2.19-7.6V94.18h3.79v15q0,10.44-7.52,13.43a17.44,17.44,0,0,1-11.5,0,10.52,10.52,0,0,1-4.05-2.73q-3.3-3.61-3.3-10.11Zm10-4.72,9.94-4.72,1.83,2.81-10.3,4.13Z"/></svg>