<svg id="Layer_1" data-name="Layer 1" xmlns="http://www.w3.org/2000/svg" xmlns:xlink="http://www.w3.org/1999/xlink" viewBox="0 0 420.07 162"><defs><style>.cls-1,.cls-4{fill:none;}.cls-2{clip-path:url(#clip-path);}.cls-3{fill:#fff;}.cls-4{stroke:#1d1d1b;stroke-linecap:round;stroke-miterlimit:10;}.cls-5{fill:#1d1d1b;}</style><clipPath id="clip-path"><circle class="cls-1" cx="79.87" cy="81" r="72.28"/></clipPath></defs><title>Artboard 4</title><g class="cls-2"><circle cx="79.87" cy="81" r="70.87"/><ellipse class="cls-3" cx="71.72" cy="132.39" rx="33.73" ry="30.33"/><path class="cls-3" d="M53.08,41.89c-26,35,16.74,85.6,13.25,86.11S79.05,6.9,53.08,41.89Z"/><path class="cls-3" d="M132.84,61.67C129.78,37,71.26,115.59,78.78,125.53,109.9,104.6,135.91,86.33,132.84,61.67Z"/><circle cx="56.41" cy="135.22" r="2.55"/><circle cx="87.59" cy="135.22" r="2.55"/><path d="M68.83,140.87a5,5,0,0,1,6.2,0c1.51,1.52-2,4.39-3.12,4.39S67.47,142.23,68.83,140.87Z"/><line class="cls-4" x1="71.72" y1="151.1" x2="71.72" y2="144.86"/></g><path class="cls-5" d="M180.64,60h-4v10.7a22,22,0,0,1-4,.3,21.38,21.38,0,0,1-4-.3V36.84l.35-.35,7.22-.15c1.92,0,3.38-.05,4.38-.05a16,16,0,0,1,5,.75,10.3,10.3,0,0,1,3.88,2.25A10.11,10.11,0,0,1,192.05,43a14,14,0,0,1,.88,5.13,13.56,13.56,0,0,1-.91,5.12A10.27,10.27,0,0,1,189.51,57a10.48,10.48,0,0,1-3.88,2.27A15.36,15.36,0,0,1,180.64,60Zm-4-17.65V54l2.23-.08,1.09,0a4.79,4.79,0,0,0,2.26-.48,4,4,0,0,0,1.46-1.25,5,5,0,0,0,.8-1.82,9.33,9.33,0,0,0,.26-2.2,9,9,0,0,0-.26-2.15,5.41,5.41,0,0,0-.78-1.85,3.86,3.86,0,0,0-1.38-1.28,4.15,4.15,0,0,0-2-.47h-2.06C177.68,42.44,177.15,42.42,176.68,42.39Z"/><path class="cls-5" d="M224.68,36.59V58.14c0,4.26-1.17,7.56-3.5,9.87s-5.65,3.48-10,3.48-7.66-1.16-10-3.48-3.51-5.61-3.51-9.87V36.59l.35-.35H201c3.16,0,4.75,1.7,4.75,5.1v16.9a8.76,8.76,0,0,0,1.25,5.2c.83,1.13,2.25,1.7,4.25,1.7s3.41-.57,4.25-1.7a8.84,8.84,0,0,0,1.25-5.2V36.59a21.38,21.38,0,0,1,4-.3A22,22,0,0,1,224.68,36.59Z"/><path class="cls-5" d="M243.74,60h-4v10.7a21.91,21.91,0,0,1-4,.3,21.58,21.58,0,0,1-4-.3V36.84l.35-.35,7.23-.15c1.92,0,3.37-.05,4.37-.05a16,16,0,0,1,5,.75,10.19,10.19,0,0,1,3.87,2.25A10,10,0,0,1,255.15,43a14,14,0,0,1,.87,5.13,13.56,13.56,0,0,1-.9,5.12A10.27,10.27,0,0,1,252.61,57a10.48,10.48,0,0,1-3.88,2.27A15.36,15.36,0,0,1,243.74,60Zm-4-17.65V54L242,54l1.09,0a4.79,4.79,0,0,0,2.26-.48,4,4,0,0,0,1.46-1.25,5,5,0,0,0,.8-1.82,9.33,9.33,0,0,0,.26-2.2,9,9,0,0,0-.26-2.15,5.41,5.41,0,0,0-.78-1.85,3.86,3.86,0,0,0-1.38-1.28,4.15,4.15,0,0,0-2-.47h-2.06C240.78,42.44,240.24,42.42,239.77,42.39Z"/><path class="cls-5" d="M269.17,60.64l-.05,3.6v.05c1.53-.07,2.76-.1,3.69-.1h11.56a20.58,20.58,0,0,1-.15,2.85c-.4,2.56-2.1,3.85-5.1,3.85h-13.3a4.52,4.52,0,0,1-3.37-1.25,4.65,4.65,0,0,1-1.23-3.4V36.94l.35-.35h21.55a15.46,15.46,0,0,1,.3,3.15,10.19,10.19,0,0,1-.69,3.55H269.12l.05,3.6v3.5c.87,0,2,0,3.39,0h7.61a10.44,10.44,0,0,1,.45,3.2,11.45,11.45,0,0,1-.45,3.3h-11Z"/><path class="cls-5" d="M183,112h8.68a19.78,19.78,0,0,1-.25,3.42,3.9,3.9,0,0,1-1.6,2.45,5.67,5.67,0,0,1-3.55,1H175a4.32,4.32,0,0,1-4.65-4.65V84.59l.35-.35h2.93q4.67,0,4.67,5.1v22.85C179.77,112.05,181.35,112,183,112Z"/><path class="cls-5" d="M204.4,108.64l-.05,3.6v.05c1.53-.07,2.76-.1,3.69-.1H219.6a20.58,20.58,0,0,1-.15,2.85c-.4,2.56-2.1,3.85-5.1,3.85h-13.3a4.5,4.5,0,0,1-3.37-1.25,4.65,4.65,0,0,1-1.23-3.4V84.94l.35-.35h21.55a15.46,15.46,0,0,1,.3,3.15,10,10,0,0,1-.7,3.55h-13.6l.05,3.6v3.5c.86,0,2,0,3.38,0h7.62a10.44,10.44,0,0,1,.45,3.2,11.45,11.45,0,0,1-.45,3.3h-11Z"/><path class="cls-5" d="M237.06,108h-4v10.7a22,22,0,0,1-4,.3,21.5,21.5,0,0,1-4-.3V84.84l.35-.35,7.23-.15c1.91,0,3.37,0,4.37,0a16,16,0,0,1,5,.75A10.34,10.34,0,0,1,246,87.29,10.13,10.13,0,0,1,248.48,91a14,14,0,0,1,.87,5.13,13.56,13.56,0,0,1-.9,5.12,10.27,10.27,0,0,1-2.51,3.73,10.52,10.52,0,0,1-3.89,2.27A15.31,15.31,0,0,1,237.06,108Zm-4-17.65V102l2.24-.08,1.08,0a4.76,4.76,0,0,0,2.26-.48,4,4,0,0,0,1.46-1.25,5.13,5.13,0,0,0,.81-1.82,9.33,9.33,0,0,0,.25-2.2A9,9,0,0,0,241,94a5.83,5.83,0,0,0-.78-1.85,3.86,3.86,0,0,0-1.38-1.28,4.21,4.21,0,0,0-2-.47h-2.06C234.11,90.44,233.57,90.42,233.1,90.39Z"/><path class="cls-5" d="M281.1,84.59v21.55c0,4.26-1.17,7.56-3.49,9.87s-5.66,3.48-10,3.48-7.66-1.16-10-3.48-3.52-5.61-3.52-9.87V84.59l.35-.35h2.95q4.75,0,4.75,5.1v16.9a8.84,8.84,0,0,0,1.25,5.2c.83,1.13,2.25,1.7,4.25,1.7s3.42-.57,4.25-1.7a8.84,8.84,0,0,0,1.25-5.2V84.59a21.46,21.46,0,0,1,4-.3A22,22,0,0,1,281.1,84.59Zm-19.8-6,11.2-6.85a8.55,8.55,0,0,1,2,2.52,7.9,7.9,0,0,1,1.08,3.38l-12,4.7a4.13,4.13,0,0,1-1.45-1.55A6,6,0,0,1,261.3,78.64Z"/></svg>