<?xml version="1.0" encoding="UTF-8"?>
<svg class="svg-inline--fa fa-shopping-bag fa-w-14" width="448" height="512" aria-hidden="true" data-icon="shopping-bag" data-prefix="fas" focusable="false" role="img" version="1.1" viewBox="0 0 448 512" xmlns="http://www.w3.org/2000/svg" xmlns:cc="http://creativecommons.org/ns#" xmlns:dc="http://purl.org/dc/elements/1.1/" xmlns:rdf="http://www.w3.org/1999/02/22-rdf-syntax-ns#">
 <metadata>
  <rdf:RDF>
   <cc:Work rdf:about="">
    <dc:format>image/svg+xml</dc:format>
    <dc:type rdf:resource="http://purl.org/dc/dcmitype/StillImage"/>
    <dc:title/>
   </cc:Work>
  </rdf:RDF>
 </metadata>
 <g transform="translate(11.022 -45.754)" fill="#fff" fill-rule="evenodd" aria-label="+">
  <path d="m192.38 293.44v68.095h-68.095v40.262h68.095v68.281h39.892v-68.281h69.393v-40.262h-69.393v-68.095zm148.59-87.681v-32c0-70.58-57.421-128-128-128-70.58 0-128 57.42-128 128v32h-96v272c0 44.183 35.817 80 80 80h288c44.183 0 80-35.817 80-80v-272zm-192-32c0-35.29 28.71-64 64-64s64 28.71 64 64v32h-128zm160 120c-13.255 0-24-10.745-24-24s10.745-24 24-24 24 10.745 24 24-10.745 24-24 24zm-192 0c-13.255 0-24-10.745-24-24s10.745-24 24-24 24 10.745 24 24-10.745 24-24 24z" fill="#fff" fill-rule="evenodd" stroke-width="9.4998"/>
 </g>
</svg>
