<?xml version="1.0" encoding="UTF-8" standalone="no"?>
<svg
   xmlns:dc="http://purl.org/dc/elements/1.1/"
   xmlns:cc="http://creativecommons.org/ns#"
   xmlns:rdf="http://www.w3.org/1999/02/22-rdf-syntax-ns#"
   xmlns:svg="http://www.w3.org/2000/svg"
   xmlns="http://www.w3.org/2000/svg"
   xmlns:sodipodi="http://sodipodi.sourceforge.net/DTD/sodipodi-0.dtd"
   xmlns:inkscape="http://www.inkscape.org/namespaces/inkscape"
   aria-hidden="true"
   focusable="false"
   data-prefix="fas"
   data-icon="shopping-bag"
   class="svg-inline--fa fa-shopping-bag fa-w-14"
   role="img"
   viewBox="0 0 448 512"
   version="1.1"
   id="svg5245"
   sodipodi:docname="add-to-bag.svg"
   inkscape:version="0.92.3 (2405546, 2018-03-11)">
  <metadata
     id="metadata5251">
    <rdf:RDF>
      <cc:Work
         rdf:about="">
        <dc:format>image/svg+xml</dc:format>
        <dc:type
           rdf:resource="http://purl.org/dc/dcmitype/StillImage" />
        <dc:title></dc:title>
      </cc:Work>
    </rdf:RDF>
  </metadata>
  <defs
     id="defs5249" />
  <sodipodi:namedview
     pagecolor="#ffffff"
     bordercolor="#666666"
     borderopacity="1"
     objecttolerance="10"
     gridtolerance="10"
     guidetolerance="10"
     inkscape:pageopacity="0"
     inkscape:pageshadow="2"
     inkscape:window-width="1920"
     inkscape:window-height="1009"
     id="namedview5247"
     showgrid="false"
     inkscape:zoom="0.53999756"
     inkscape:cx="498.78465"
     inkscape:cy="330.66821"
     inkscape:window-x="0"
     inkscape:window-y="0"
     inkscape:window-maximized="1"
     inkscape:current-layer="svg5245" />
  <g
     aria-label="+"
     style="font-style:normal;font-variant:normal;font-weight:normal;font-stretch:normal;font-size:575.20098877px;line-height:1.25;font-family:'Abyssinica SIL';-inkscape-font-specification:'Abyssinica SIL';letter-spacing:0px;word-spacing:0px;fill:#ffffff;fill-opacity:1;stroke:none;stroke-width:14.38002491;fill-rule:evenodd"
     id="text5274"
     transform="translate(11.022459,-45.75391)">
    <path
       id="path5276"
       style="font-style:normal;font-variant:normal;font-weight:normal;font-stretch:normal;font-family:'Abyssinica SIL';-inkscape-font-specification:'Abyssinica SIL';fill:#ffffff;stroke-width:9.49983406;fill-rule:evenodd"
       d="m 192.38262,293.43503 v 68.09491 H 124.2877 v 40.26213 h 68.09492 v 68.28071 h 39.89181 v -68.28071 h 69.39295 v -40.26213 h -69.39295 v -68.09491 z m 148.59492,-87.68112 v -32 c 0,-70.58 -57.421,-128 -128,-128 -70.58,0 -127.999999,57.42 -127.999999,128 v 32 h -96 v 272 c 0,44.183 35.817,80 80,80 H 356.97754 c 44.183,0 80,-35.817 80,-80 v -272 z m -192,-32 c 0,-35.29 28.71,-64 64,-64 35.29,0 64,28.71 64,64 v 32 h -128 z m 160,120 c -13.255,0 -24,-10.745 -24,-24 0,-13.255 10.745,-24 24,-24 13.255,0 24,10.745 24,24 0,13.255 -10.745,24 -24,24 z m -192,0 c -13.255,0 -23.999999,-10.745 -23.999999,-24 0,-13.255 10.744999,-24 23.999999,-24 13.255,0 24,10.745 24,24 0,13.255 -10.745,24 -24,24 z" />
  </g>
</svg>
