<?xml version="1.0" encoding="UTF-8" standalone="no"?>
<!-- Created with Inkscape (http://www.inkscape.org/) -->

<svg
   xmlns:dc="http://purl.org/dc/elements/1.1/"
   xmlns:cc="http://creativecommons.org/ns#"
   xmlns:rdf="http://www.w3.org/1999/02/22-rdf-syntax-ns#"
   xmlns:svg="http://www.w3.org/2000/svg"
   xmlns="http://www.w3.org/2000/svg"
   xmlns:sodipodi="http://sodipodi.sourceforge.net/DTD/sodipodi-0.dtd"
   xmlns:inkscape="http://www.inkscape.org/namespaces/inkscape"
   width="882.19128"
   height="440.96365"
   version="1.1"
   viewBox="0 0 882.19131 440.96366"
   xml:space="preserve"
   id="svg12"
   sodipodi:docname="brown-forest-no-hill.svg"
   inkscape:version="0.92.3 (2405546, 2018-03-11)"><defs
     id="defs16" /><sodipodi:namedview
     pagecolor="#ffffff"
     bordercolor="#666666"
     borderopacity="1"
     objecttolerance="10"
     gridtolerance="10"
     guidetolerance="10"
     inkscape:pageopacity="0"
     inkscape:pageshadow="2"
     inkscape:window-width="1920"
     inkscape:window-height="1007"
     id="namedview14"
     showgrid="false"
     inkscape:zoom="0.88413324"
     inkscape:cx="1133.3717"
     inkscape:cy="288.32128"
     inkscape:window-x="0"
     inkscape:window-y="0"
     inkscape:window-maximized="1"
     inkscape:current-layer="g8"
     fit-margin-top="0"
     fit-margin-left="0"
     fit-margin-right="0"
     fit-margin-bottom="0" /><metadata
     id="metadata2"><rdf:RDF><cc:Work
         rdf:about=""><dc:format>image/svg+xml</dc:format><dc:type
           rdf:resource="http://purl.org/dc/dcmitype/StillImage" /><dc:title /></cc:Work></rdf:RDF></metadata><g
     transform="matrix(1.3333,0,0,-1.3333,0.00853312,699.67411)"
     id="g10"><g
       transform="scale(0.1)"
       id="g8"
       style="fill-rule:evenodd"><path
         d="m 3307.6,3127.697 h -19.31 l 9.65,-19.99 z m 12.6,325.92 21.99,-45.55 50.42,-104.34 72.41,149.89 z m 37.24,169.28 h -119.01 l 59.51,-123.2 z m 2962.1,49.31 30.28,62.68 103.74,214.85 h -78.74 l 25.67,-53.18 h -189.33 l 103.76,-214.82 z m 0,-391.98 5.36,11.08 53.14,110.06 h -117.03 z m -616.08,317.73 36.66,75.94 h -73.34 z m -791.61,-355.79 46.49,96.25 103.77,214.83 h -189.34 l 12.81,26.5 h -136.77 l 103.74,-214.82 z m 0,-391.98 21.55,44.64 78.83,163.22 h -189.31 l 12.77,26.49 h -37.05 l 78.85,-163.23 z m -762.29,497.1 44.36,-91.82 44.36,91.82 z m 21.14,252.13 h -142.89 l 71.45,-147.95 60.18,124.59 z m -364.86,-122.01 58.92,122.01 h -117.85 z m -94.67,-196.01 74.77,154.8 8.4,17.42 h -166.31 l 78.81,-163.24 z m 94.67,-195.97 9.08,18.77 h -18.16 z m 271.81,18.77 21.61,-44.72 21.6,44.72 z m -1069.6,564.87 h -78.74 l 78.81,-163.21 55.21,-114.3 7.97,16.51 103.78,214.83 h -189.33 z m -320.27,-162.5 78.49,162.5 h -156.99 z m -94.67,-196 69.54,143.95 h -139.03 z m 94.67,-195.99 28.62,59.27 h -57.24 z m 313.66,13.12 31.63,-65.44 30.26,-62.67 61.87,128.11 z m -998.09,719.23 39.13,81.06 h -78.29 z m -94.66,-195.96 54.95,113.8 5.75,11.89 h -121.43 z m 0,-392 10.85,22.49 h -21.72 z m 346.68,173.8 53.9,-111.58 43.29,-89.67 3.95,8.18 103.76,214.82 h -26.09 l 10.52,-21.75 z m -578.4,-151.31 11.73,-24.3 h -189.3 l 78.82,-163.21 32.98,-68.32 44.75,92.62 78.82,163.21 z m -49.85,495.2 11.73,-24.29 h -189.33 l 103.76,-214.82 57.92,-119.96 69.67,144.25 103.79,214.82 z m -313.47,217.47 54.15,112.06 h -108.28 z m 0,-391.99 4.27,8.85 h -8.54 z m -788.18,422.29 51.82,107.24 78.821,163.21 h -71.946 l 19.731,-40.84 h -189.31 l 103.77,-214.84 z m 0,-391.97 26.899,55.62 34.171,70.75 H 464.45 Z m 484.5,-516.68 43.26,-89.53 43.25,89.53 z m -11.7,188.69 h -79.414 l 28.98,-59.98 10.727,-22.26 z m -38.137,306.52 93.097,-192.76 14.27,29.55 78.82,163.21 z m -91.14,188.68 53.906,-111.59 35.664,-73.87 89.567,185.46 z m -630,-40.84 31.218,-64.61 31.184,64.61 z m -49.864,495.21 81.082,-167.86 81.067,167.86 z m 1.285,-333.05 H 160.68 l 3.684,-7.64 11.183,-23.14 z m 27.122,155.57 24,-49.71 5.957,12.35 18.046,37.36 z m 6399,58.69 v -185.51 h -99.68 l 99.68,-206.44 v -288.78 h -49.84 l 49.84,-103.23 v -1382.5 c -2085.2,-2.11 -4429.3,-25.98 -6616.6,-28.41 v 3080.6 l 4.0625,8.4 110.5,-228.77 110.49,-228.77 h -189.31 l 103.75,-214.82 36.125,-74.79 96.887,200.61 110.49,228.79 110.48,-228.79 32.062,-66.37 76.738,158.84 103.74,214.84 h -189.29 l 110.46,228.77 110.49,228.77 110.5,-228.77 110.49,-228.77 h -189.31 l 103.74,-214.84 c 45.153,-93.44 90.278,-186.91 135.42,-280.37 h -189.32 l 78.824,-163.21 155.27,-321.45 39.19,81.14 103.78,214.83 h -189.33 l 110.49,228.77 110.49,228.78 110.48,-228.78 69.97,-144.84 9.56,19.79 110.49,-228.79 82.84,-171.55 94.61,195.85 110.49,228.77 92.39,-191.26 79.89,165.45 103.76,214.82 h -189.32 l 110.5,228.76 110.49,228.77 110.48,-228.77 110.49,-228.76 h -189.33 l 103.76,-214.82 c 45.15,-93.47 90.28,-186.92 135.43,-280.39 h -189.31 l 78.82,-163.22 68.21,-141.26 28.89,59.78 110.49,228.77 101.17,-209.51 119.26,246.89 103.75,214.84 h -189.31 l 110.48,228.75 110.49,228.79 110.5,-228.79 110.49,-228.75 h -189.33 l 103.77,-214.84 80.12,-165.92 32.91,68.15 110.49,228.78 110.49,-228.78 75.35,-155.99 18.5,38.31 103.74,214.83 h -189.32 l 110.5,228.77 110.49,228.76 110.48,-228.76 110.51,-228.77 h -189.33 l 103.76,-214.83 29.25,-60.58 99.69,206.38 103.78,214.82 h -189.33 l 110.49,228.76 110.49,228.77 110.48,-228.77 110.5,-228.76 h -189.32 l 103.76,-214.82 112.21,-232.34 76.01,157.37 110.48,-228.76 110.51,-228.77 h -189.33 l 103.76,-214.82 c 155.29,-321.55 96.41,-325.1 230.26,-47.93 h -189.3 c 45.12,93.45 90.25,186.92 135.41,280.39 l 103.76,214.82 h -189.33 l 110.49,228.74 110.48,228.79 110.51,-228.79 84.22,-174.35 71.41,147.88 110.49,228.76 110.49,-228.76 110.5,-228.77 h -189.33 l 103.77,-214.83 c 45.13,-93.44 90.25,-186.9 135.4,-280.37 h -189.31 l 78.8,-163.22 220.69,120.64 78.84,163.21 h -189.32 c 45.12,93.47 90.29,186.94 135.43,280.37 l 103.76,214.85 h -189.33 l 110.48,228.75 110.51,228.78 110.48,-228.78 52.48,-108.69 68.14,141.06 110.51,-228.76 39.59,-81.99 27.76,57.47 103.76,214.82 h -189.33 l 110.5,228.77 110.49,228.77 110.49,-228.77 29.54,-61.16 55.21,114.32 110.48,228.79 110.49,-228.79 z m -6102.3,-871.64 11.164,-23.15 1.953,4.03 9.235,19.12 h -22.352"
         id="path4"
         style="fill:#fadca0;fill-opacity:0.11764706"
         inkscape:connector-curvature="0" /></g></g></svg>