<?xml version="1.0" encoding="UTF-8" standalone="no"?>
<svg
   xmlns:dc="http://purl.org/dc/elements/1.1/"
   xmlns:cc="http://creativecommons.org/ns#"
   xmlns:rdf="http://www.w3.org/1999/02/22-rdf-syntax-ns#"
   xmlns:svg="http://www.w3.org/2000/svg"
   xmlns="http://www.w3.org/2000/svg"
   xmlns:sodipodi="http://sodipodi.sourceforge.net/DTD/sodipodi-0.dtd"
   xmlns:inkscape="http://www.inkscape.org/namespaces/inkscape"
   version="1.1"
   x="0px"
   y="0px"
   viewBox="0 0 64 64"
   xml:space="preserve"
   id="svg12"
   sodipodi:docname="crochet.svg"
   inkscape:version="0.92.3 (2405546, 2018-03-11)"
   width="64"
   height="64"><metadata
     id="metadata18"><rdf:RDF><cc:Work
         rdf:about=""><dc:format>image/svg+xml</dc:format><dc:type
           rdf:resource="http://purl.org/dc/dcmitype/StillImage" /><dc:title /></cc:Work></rdf:RDF></metadata><defs
     id="defs16" /><sodipodi:namedview
     pagecolor="#ffffff"
     bordercolor="#666666"
     borderopacity="1"
     objecttolerance="10"
     gridtolerance="10"
     guidetolerance="10"
     inkscape:pageopacity="0"
     inkscape:pageshadow="2"
     inkscape:window-width="1920"
     inkscape:window-height="1009"
     id="namedview14"
     showgrid="false"
     inkscape:zoom="2.95"
     inkscape:cx="-23.762712"
     inkscape:cy="40"
     inkscape:window-x="0"
     inkscape:window-y="0"
     inkscape:window-maximized="1"
     inkscape:current-layer="svg12" /><g
     id="g6"
     style="fill:#4f6174;fill-opacity:0.56470591"><path
       d="M 58.875,1 C 58.12,1 57.379,1.207 56.734,1.599 L 47.622,7.131 C 43.358,3.181 37.822,1 32,1 19.318,1 9,11.318 9,24 c 0,2.066 0.289,4.104 0.829,6.077 L 4.046,33.588 C 2.167,34.729 1,36.802 1,39 c 0,1.654 1.346,3 3,3 1.654,0 3,-1.346 3,-3 v -0.411 l 5.207,-2.882 C 16.338,42.677 23.896,47 32,47 32.937,47 33.859,46.937 34.767,46.828 35.164,46.929 35.572,47 36,47 h 13 c 1.654,0 3,1.346 3,3 0,1.654 -1.346,3 -3,3 H 21 c -2.757,0 -5,2.243 -5,5 0,2.757 2.243,5 5,5 H 50 V 61 H 21 c -1.654,0 -3,-1.346 -3,-3 0,-1.654 1.346,-3 3,-3 h 28 c 2.757,0 5,-2.243 5,-5 0,-2.757 -2.243,-5 -5,-5 H 41.363 C 49.39,41.407 55,33.349 55,24 55,20.316 54.107,16.691 52.427,13.442 L 60.872,8.767 C 62.185,8.041 63,6.658 63,5.125 63,2.851 61.149,1 58.875,1 Z M 52,25.155 l 0.915,0.528 c -0.087,1.084 -0.259,2.141 -0.504,3.173 L 49,26.887 Z m -5,2.887 4.836,2.792 c -0.331,0.959 -0.725,1.888 -1.186,2.779 L 44,29.773 Z M 38,44.116 V 3.875 c 1.031,0.307 2.029,0.706 3,1.167 v 37.904 c -0.965,0.459 -1.962,0.859 -3,1.17 z m 5,-3.373 v -3.464 l 3.402,1.964 c -0.777,0.735 -1.603,1.418 -2.485,2.029 z m 0,-5.774 v -3.464 l 6.646,3.837 c -0.548,0.85 -1.156,1.654 -1.817,2.414 z M 43,7.257 43.913,6.73 c 0.662,0.458 1.3,0.955 1.912,1.492 L 43,9.937 Z M 12,22.845 11.085,22.317 c 0.087,-1.084 0.259,-2.141 0.504,-3.173 L 15,21.113 Z m 5,-2.887 -4.836,-2.792 c 0.331,-0.959 0.725,-1.888 1.186,-2.779 L 20,18.227 Z M 21,7.257 v 3.464 L 17.598,8.757 c 0.777,-0.735 1.603,-1.418 2.485,-2.029 z m 0,5.774 v 3.464 l -6.646,-3.837 c 0.548,-0.85 1.156,-1.654 1.817,-2.414 z m 0,27.712 -0.915,0.528 C 19.203,40.664 18.369,39.987 17.586,39.25 L 21,37.279 Z M 11.07,25.692 21,19.959 v 3.335 l -9.393,5.703 C 11.342,27.913 11.16,26.809 11.07,25.692 Z M 5,37.411 V 39 C 5,39.551 4.551,40 4,40 3.449,40 3,39.551 3,39 3,37.497 3.798,36.078 5.083,35.298 L 21,25.634 v 2.919 z M 21,30.84 v 4.13 l -4.848,2.799 c -0.814,-0.934 -1.548,-1.948 -2.194,-3.031 z m 7,13.768 V 8 H 26 V 44.107 C 24.97,43.798 23.967,43.414 23,42.954 V 5.055 c 0.965,-0.46 1.962,-0.86 3,-1.171 V 6 h 2 V 3.393 C 28.977,3.204 29.981,3.099 31,3.051 V 39 h 2 V 3.047 c 1.013,0.048 2.017,0.145 3,0.335 v 41.225 c -0.368,0.071 -0.744,0.12 -1.119,0.171 C 33.78,44.334 33,43.258 33,42 v -1 h -2 v 1 c 0,1.129 0.391,2.161 1.025,2.999 C 32.016,44.999 32.008,45 32,45 30.644,45 29.306,44.864 28,44.608 Z m 23.854,-27.452 -1.965,1.134 1,1.732 1.531,-0.884 c 0.247,1.041 0.418,2.101 0.504,3.172 L 43,28.041 v -3.464 l 6.312,-3.644 -1,-1.732 L 43,22.268 v -3.607 l 7.678,-4.25 c 0.456,0.887 0.852,1.803 1.176,2.745 z M 59.904,7.017 43,16.375 V 12.278 L 57.771,3.309 C 58.104,3.107 58.485,3 58.875,3 60.046,3 61,3.954 61,5.158 61,5.931 60.58,6.643 59.904,7.017 Z"
       id="path2"
       inkscape:connector-curvature="0"
       style="fill:#4f6174;fill-opacity:0.56470591" /><rect
       x="52"
       y="61"
       width="2"
       height="2"
       id="rect4"
       style="fill:#4f6174;fill-opacity:0.56470591" /></g></svg>