<?xml version="1.0" encoding="UTF-8"?>
<svg width="75" height="75" version="1.1" viewBox="0 0 75 75" xml:space="preserve" xmlns="http://www.w3.org/2000/svg" xmlns:cc="http://creativecommons.org/ns#" xmlns:dc="http://purl.org/dc/elements/1.1/" xmlns:rdf="http://www.w3.org/1999/02/22-rdf-syntax-ns#"><metadata><rdf:RDF><cc:Work rdf:about=""><dc:format>image/svg+xml</dc:format><dc:type rdf:resource="http://purl.org/dc/dcmitype/StillImage"/><dc:title/></cc:Work></rdf:RDF></metadata><g transform="translate(5.5,5.5)" fill="#4f6174" fill-opacity=".56471"><path d="m58.875 1c-0.755 0-1.496 0.207-2.141 0.599l-9.112 5.532c-4.264-3.95-9.8-6.131-15.622-6.131-12.682 0-23 10.318-23 23 0 2.066 0.289 4.104 0.829 6.077l-5.783 3.511c-1.879 1.141-3.046 3.214-3.046 5.412 0 1.654 1.346 3 3 3s3-1.346 3-3v-0.411l5.207-2.882c4.131 6.97 11.689 11.293 19.793 11.293 0.937 0 1.859-0.063 2.767-0.172 0.397 0.101 0.805 0.172 1.233 0.172h13c1.654 0 3 1.346 3 3s-1.346 3-3 3h-28c-2.757 0-5 2.243-5 5s2.243 5 5 5h29v-2h-29c-1.654 0-3-1.346-3-3s1.346-3 3-3h28c2.757 0 5-2.243 5-5s-2.243-5-5-5h-7.637c8.027-3.593 13.637-11.651 13.637-21 0-3.684-0.893-7.309-2.573-10.558l8.445-4.675c1.313-0.726 2.128-2.109 2.128-3.642 0-2.274-1.851-4.125-4.125-4.125zm-6.875 24.155 0.915 0.528c-0.087 1.084-0.259 2.141-0.504 3.173l-3.411-1.969zm-5 2.887 4.836 2.792c-0.331 0.959-0.725 1.888-1.186 2.779l-6.65-3.84zm-9 16.074v-40.241c1.031 0.307 2.029 0.706 3 1.167v37.904c-0.965 0.459-1.962 0.859-3 1.17zm5-3.373v-3.464l3.402 1.964c-0.777 0.735-1.603 1.418-2.485 2.029zm0-5.774v-3.464l6.646 3.837c-0.548 0.85-1.156 1.654-1.817 2.414zm0-27.712 0.913-0.527c0.662 0.458 1.3 0.955 1.912 1.492l-2.825 1.715zm-31 15.588-0.915-0.528c0.087-1.084 0.259-2.141 0.504-3.173l3.411 1.969zm5-2.887-4.836-2.792c0.331-0.959 0.725-1.888 1.186-2.779l6.65 3.84zm4-12.701v3.464l-3.402-1.964c0.777-0.735 1.603-1.418 2.485-2.029zm0 5.774v3.464l-6.646-3.837c0.548-0.85 1.156-1.654 1.817-2.414zm0 27.712-0.915 0.528c-0.882-0.607-1.716-1.284-2.499-2.021l3.414-1.971zm-9.93-15.051 9.93-5.733v3.335l-9.393 5.703c-0.265-1.084-0.447-2.188-0.537-3.305zm-6.07 11.719v1.589c0 0.551-0.449 1-1 1s-1-0.449-1-1c0-1.503 0.798-2.922 2.083-3.702l15.917-9.664v2.919zm16-6.571v4.13l-4.848 2.799c-0.814-0.934-1.548-1.948-2.194-3.031zm7 13.768v-36.608h-2v36.107c-1.03-0.309-2.033-0.693-3-1.153v-37.899c0.965-0.46 1.962-0.86 3-1.171v2.116h2v-2.607c0.977-0.189 1.981-0.294 3-0.342v35.949h2v-35.953c1.013 0.048 2.017 0.145 3 0.335v41.225c-0.368 0.071-0.744 0.12-1.119 0.171-1.101-0.444-1.881-1.52-1.881-2.778v-1h-2v1c0 1.129 0.391 2.161 1.025 2.999-9e-3 0-0.017 1e-3 -0.025 1e-3 -1.356 0-2.694-0.136-4-0.392zm23.854-27.452-1.965 1.134 1 1.732 1.531-0.884c0.247 1.041 0.418 2.101 0.504 3.172l-9.924 5.731v-3.464l6.312-3.644-1-1.732-5.312 3.067v-3.607l7.678-4.25c0.456 0.887 0.852 1.803 1.176 2.745zm8.05-10.139-16.904 9.358v-4.097l14.771-8.969c0.333-0.202 0.714-0.309 1.104-0.309 1.171 0 2.125 0.954 2.125 2.158 0 0.773-0.42 1.485-1.096 1.859z"/><rect x="52" y="61" width="2" height="2"/></g></svg>
