<?xml version="1.0" encoding="UTF-8" standalone="no"?>
<!-- Created with Inkscape (http://www.inkscape.org/) -->

<svg
   xmlns:dc="http://purl.org/dc/elements/1.1/"
   xmlns:cc="http://creativecommons.org/ns#"
   xmlns:rdf="http://www.w3.org/1999/02/22-rdf-syntax-ns#"
   xmlns:svg="http://www.w3.org/2000/svg"
   xmlns="http://www.w3.org/2000/svg"
   xmlns:sodipodi="http://sodipodi.sourceforge.net/DTD/sodipodi-0.dtd"
   xmlns:inkscape="http://www.inkscape.org/namespaces/inkscape"
   width="1730.3834"
   height="800"
   version="1.1"
   viewBox="0 0 1730.3835 800"
   xml:space="preserve"
   id="svg845"
   sodipodi:docname="forest-no-hill.svg"
   inkscape:version="0.92.3 (2405546, 2018-03-11)"><defs
     id="defs849" /><sodipodi:namedview
     pagecolor="#ffffff"
     bordercolor="#666666"
     borderopacity="1"
     objecttolerance="10"
     gridtolerance="10"
     guidetolerance="10"
     inkscape:pageopacity="0"
     inkscape:pageshadow="2"
     inkscape:window-width="1920"
     inkscape:window-height="1007"
     id="namedview847"
     showgrid="false"
     inkscape:zoom="0.59952833"
     inkscape:cx="834.24025"
     inkscape:cy="379.28174"
     inkscape:window-x="0"
     inkscape:window-y="0"
     inkscape:window-maximized="1"
     inkscape:current-layer="g841"
     fit-margin-top="0"
     fit-margin-left="0"
     fit-margin-right="0"
     fit-margin-bottom="0" /><metadata
     id="metadata837"><rdf:RDF><cc:Work
         rdf:about=""><dc:format>image/svg+xml</dc:format><dc:type
           rdf:resource="http://purl.org/dc/dcmitype/StillImage" /><dc:title></dc:title></cc:Work></rdf:RDF></metadata><g
     transform="matrix(1.3333,0,0,-1.3333,-0.01434635,684.32481)"
     id="g843"><g
       transform="scale(0.1)"
       id="g841"><g
         id="g1191"
         style="fill:#ffffff;fill-opacity:1"
         transform="translate(0,450.01137)"><path
           inkscape:connector-curvature="0"
           style="opacity:1;vector-effect:none;fill:#ffffff;fill-opacity:1;fill-rule:evenodd;stroke-width:1;stroke-linecap:butt;stroke-linejoin:miter;stroke-miterlimit:4;stroke-dasharray:none;stroke-dashoffset:0;stroke-opacity:1"
           id="path839"
           d="m 3307.7716,-617.17139 h -19.31 l 9.65,-19.99 z m 12.6,325.92 21.99,-45.55 50.42,-104.34 72.41,149.89 z m 37.24,169.28 h -119.01 l 59.51,-123.2 z m 2962.1,49.31 30.28,62.6799999 103.74,214.8500401 h -78.74 l 25.67,-53.18 h -189.33 l 103.76,-214.82004 z m 0,-391.98 5.36,11.08 53.14,110.06 h -117.03 z m -616.08,317.73 36.66,75.94 h -73.34 z m -791.61,-355.79 46.49,96.25 103.77,214.83 h -189.34 l 12.81,26.5 h -136.77 l 103.74,-214.82 z m 0,-391.97996 21.55,44.64 78.83,163.21996 h -189.31 l 12.77,26.49 h -37.05 l 78.85,-163.23001 z m -762.29,497.09996 44.36,-91.82 44.36,91.82 z m 21.14,252.13 h -142.89 l 71.45,-147.95 60.18,124.59 z m -364.86,-122.01 58.92,122.01 h -117.85 z m -94.67,-196.01 74.77,154.8 8.4,17.42 h -166.31 l 78.81,-163.24 z m 94.67,-195.97 9.08,18.77 h -18.16 z m 271.81,18.77 21.61,-44.72 21.6,44.72 z m -1069.6,564.87 h -78.74 l 78.81,-163.21 55.21,-114.3 7.97,16.51 103.78,214.83 h -189.33 z m -320.27,-162.5 78.49,162.5 h -156.99 z m -94.67,-196 69.54,143.95 h -139.03 z m 94.67,-195.99 28.62,59.27 h -57.24 z m 313.66,13.12 31.63,-65.44 30.26,-62.67001 61.87,128.11001 z m -998.09,719.23004 39.13,81.06 h -78.29 z m -94.66,-195.96004 54.95,113.8 5.75,11.89 h -121.43 z m 0,-392 10.85,22.49 h -21.72 z m 346.68,173.8 53.9,-111.58 43.29,-89.67 3.95,8.18 103.76,214.82 h -26.09 l 10.52,-21.75 z m -578.4,-151.31 11.73,-24.3 h -189.3 l 78.82,-163.21 32.98,-68.32001 44.75,92.62001 78.82,163.21 z m -49.85,495.2 11.73,-24.2900001 h -189.33 l 103.76,-214.8199999 57.92,-119.96 69.67,144.25 103.79,214.82 z m -313.47,217.47004 54.15,112.06 h -108.28 z m 0,-391.99004 4.27,8.85 h -8.54 z m -788.18,422.29004 51.82,107.24 78.821,163.21 h -71.946 l 19.731,-40.84 h -189.31 l 103.77,-214.84 z m 0,-391.97004 26.899,55.62 34.171,70.75 h -122.09 z m 484.5,-516.68 43.26,-89.53001 43.25,89.53001 z m -11.7,188.69 h -79.414 l 28.98,-59.98 10.727,-22.26 z m -38.137,306.52 93.097,-192.76 14.27,29.55 78.82,163.21 z m -91.14,188.68 53.906,-111.59 35.664,-73.87 89.567,185.46 z m -630,-40.84 31.218,-64.61 31.184,64.61 z m -49.864,495.21004 81.082,-167.86 81.067,167.86 z m 1.285,-333.05 h -29.734 l 3.684,-7.64 11.183,-23.14 z m 27.122,155.57 24,-49.71 5.957,12.35 18.046,37.36 z m 6399,58.69 v -185.51 h -99.68 l 99.68,-206.4400401 V -290.35139 h -49.84 l 49.84,-103.23 V -1776.0817 c -2085.2,-2.11 -4429.3,-25.98 -6616.59999967,-28.41 v 3080.6004 l 4.06249997,8.4 110.4999997,-228.77 110.49,-228.77005 h -189.31 l 103.75,-214.82 36.125,-74.79 96.887,200.61 110.49,228.79 110.48,-228.79 32.062,-66.37 76.738,158.84 103.74,214.84005 h -189.29 l 110.46,228.77 110.49,228.7701 110.5,-228.7701 110.49,-228.77 h -189.31 l 103.74,-214.84005 c 45.153,-93.44 90.278,-186.91 135.42,-280.37 h -189.32 l 78.824,-163.21 155.27,-321.45 39.19,81.14 103.78,214.83 h -189.33 l 110.49,228.77 110.49,228.78 110.48,-228.78 69.97,-144.84 9.56,19.79 110.49,-228.79 82.84,-171.55 94.61,195.85 110.49,228.77 92.39,-191.26 79.89,165.45 103.76,214.82 h -189.32 l 110.5,228.76 110.49,228.77005 110.48,-228.77005 110.49,-228.76 h -189.33 l 103.76,-214.82 c 45.15,-93.47 90.28,-186.92 135.43,-280.39 h -189.31 l 78.82,-163.22004 68.21,-141.26 28.89,59.78 110.49,228.77004 101.17,-209.51004 119.26,246.89004 103.75,214.84 h -189.31 l 110.48,228.75 110.49,228.79 110.5,-228.79 110.49,-228.75 h -189.33 l 103.77,-214.84 80.12,-165.92004 32.91,68.15004 110.49,228.78 110.49,-228.78 75.35,-155.99004 18.5,38.31 103.74,214.83004 h -189.32 l 110.5,228.77 110.49,228.76 110.48,-228.76 110.51,-228.77 h -189.33 l 103.76,-214.83004 29.25,-60.58 99.69,206.38004 103.78,214.82 h -189.33 l 110.49,228.76 110.49,228.77 110.48,-228.77 110.5,-228.76 h -189.32 l 103.76,-214.82 112.21,-232.34004 76.01,157.37 110.48,-228.76 110.51,-228.77 h -189.33 l 103.76,-214.82 c 155.29,-321.54996 96.41,-325.09996 230.26,-47.93 h -189.3 c 45.12,93.45 90.25,186.92 135.41,280.39 l 103.76,214.82 h -189.33 l 110.49,228.74004 110.48,228.79 110.51,-228.79 84.22,-174.35004 71.41,147.88 110.49,228.76004 110.49,-228.76004 110.5,-228.77 h -189.33 l 103.77,-214.83 c 45.13,-93.44 90.25,-186.9 135.4,-280.37 h -189.31 l 78.8,-163.22001 220.69,120.64 78.84,163.21001 h -189.32 c 45.12,93.47 90.29,186.94 135.43,280.37 l 103.76,214.85 h -189.33 l 110.48,228.75004 110.51,228.78 110.48,-228.78 52.48,-108.69004 68.14,141.06004 110.51,-228.76004 39.59,-81.99 27.76,57.47 103.76,214.82004 h -189.33 l 110.5,228.77 110.49,228.77 110.49,-228.77 29.54,-61.16 55.21,114.32 110.48,228.79 110.49,-228.79 z m -6102.3,-871.64004 11.164,-23.15 1.953,4.03 9.235,19.12 h -22.352" /><path
           inkscape:connector-curvature="0"
           style="fill:#ffffff;fill-opacity:1;fill-rule:evenodd;stroke-width:1"
           id="path839-6"
           d="m 9670.6372,-618.76212 h 19.31 l -9.65,-19.99003 z m -12.6,325.91997 -21.99,-45.54999 -50.4204,-104.33998 -72.41,149.88997 z m -37.24,169.27998 h 119.01 l -59.51,-123.19995 z m -2962.1004,49.31006 -30.28,62.67997 -103.74,214.84999 h 78.74 l -25.67,-53.18 h 189.33 l -103.76,-214.82 z m 0,-391.98005 -5.36,11.08003 -53.14,110.06 h 117.03 z m 616.08,317.72999 -36.66,75.94 h 73.34 z m 791.61,-355.78999 -46.49,96.25006 -103.77,214.82997 h 189.34 l -12.81,26.49996 h 136.77 l -103.74,-214.82 z m 0,-391.97989 -21.55,44.64 -78.83,163.21989 h 189.31 l -12.77,26.49006 h 37.05 l -78.85,-163.23 z m 762.29,497.09989 -44.36,-91.81999 -44.36,91.81999 z m -21.14,252.13006 h 142.89 l -71.45,-147.95005 -60.18,124.59004 z m 364.86,-122.01005 -58.92,122.01005 h 117.85 z m 94.67,-196.00998 -74.77,154.79997 -8.4,17.42001 h 166.31 l -78.81,-163.24001 z m -94.67,-195.97 -9.08,18.76997 h 18.16 z m -271.81,18.76997 -21.61,-44.71994 -21.6,44.71994 z m 1069.6064,564.87002 h 78.7408 l -78.8108,-163.21 -55.2116,-114.30001 -7.9704,16.51001 -103.7828,214.82997 h 189.3352 z m 320.2708,-162.49996 -78.49,162.49996 h 156.99 z m 94.67,-196 -69.54,143.94997 h 139.03 z m -94.67,-195.99003 -28.62,59.27001 h 57.24 z m -313.6608,13.12001 -31.6308,-65.44004 -30.2608,-62.66994 -61.8716,128.10998 z m 998.0908,719.22997 -39.13,81.06 h 78.29 z m 94.66,-195.95997 -54.95,113.79997 -5.75,11.88998 h 121.43 z m 0,-392 -10.85,22.48999 h 21.72 z m -346.68,173.79997 -53.9,-111.57999 -43.29,-89.66999 -3.95,8.18001 -103.76,214.81999 h 26.09 l -10.52,-21.75002 z m 578.4,-151.30998 -11.73,-24.30001 h 189.3 l -78.82,-163.21 -32.98,-68.32006 -44.75,92.62007 -78.82,163.21 z m 49.85,495.19996 -11.73,-24.2899601 h 189.33 l -103.76,-214.8199999 -57.92,-119.96002 -69.67,144.24998 -103.79,214.82 z m 313.47,217.47002 -54.15,112.0599 h 108.28 z m 0,-391.99001 -4.27,8.84999 h 8.54 z m 788.18,422.28991 -51.82,107.24 -78.821,163.2101 h 71.946 l -19.731,-40.84 h 189.31 l -103.77,-214.84 z m 0,-391.96988 -26.899,55.61997 -34.171,70.75002 h 122.09 z m -484.5,-516.68004 -43.26,-89.52993 -43.25,89.52993 z m 11.7,188.69002 h 79.414 l -28.98,-59.97998 -10.727,-22.26003 z m 38.137,306.51998 -93.097,-192.75999 -14.27,29.54999 -78.82,163.21 z m 91.14,188.68004 -53.906,-111.59003 -35.664,-73.86995 -89.567,185.45998 z m 630,-40.84001 -31.218,-64.60999 -31.184,64.60999 z m 49.864,495.20999 -81.082,-167.86 -81.067,167.86 z m -1.285,-333.05 h 29.734 l -3.684,-7.64 -11.183,-23.14 z m -27.122,155.57 -24,-49.71 -5.957,12.35 -18.046,37.36 z m -6399.0072,58.6899 v -185.5099 h 99.68 l -99.68,-206.4399601 V -291.94213 h 49.84 l -49.84,-103.23003 V -1777.6725 c 2085.2,-2.11 4429.3072,-25.98 6616.6072,-28.41 v 3080.6004 l -4.063,8.4 -110.5,-228.77 -110.49,-228.77005 h 189.31 l -103.75,-214.82 -36.125,-74.79 -96.887,200.61 -110.49,228.79 -110.48,-228.79 -32.062,-66.37 -76.738,158.84 -103.74,214.84005 h 189.29 l -110.46,228.77 -110.489,228.7701 -110.5,-228.7701 -110.491,-228.77 h 189.31 l -103.74,-214.84005 c -45.153,-93.44 -90.278,-186.9101 -135.42,-280.37 h 189.32 l -78.824,-163.2101 -155.27,-321.45 -39.19,81.1401 -103.779,214.8299 h 189.329 l -110.489,228.7701 -110.49,228.78 -110.48,-228.78 -69.97,-144.84 -9.56,19.79 -110.49,-228.79 -82.84,-171.55 -94.61,195.85 -110.49,228.7699 -92.39,-191.2599 -79.89,165.45 -103.76,214.82 h 189.32 l -110.5,228.76 -110.49,228.77005 -110.48,-228.77005 -110.49,-228.76 h 189.33 l -103.76,-214.82 c -45.15,-93.47 -90.28,-186.9201 -135.43,-280.39 h 189.31 l -78.82,-163.21999 -68.21,-141.25996 -28.89,59.77994 -110.49,228.77001 -101.17,-209.50997 -119.26,246.88997 -103.75,214.8399 h 189.31 l -110.48,228.7501 -110.49,228.79 -110.5,-228.79 -110.4928,-228.7501 h 189.3328 l -103.7704,-214.8399 -80.122,-165.91996 -32.9108,68.14986 -110.4932,228.7801 -110.4904,-228.7801 -75.3504,-155.9899 -18.5,38.30999 -103.74,214.83001 h 189.3204 l -110.5004,228.77 -110.49,228.76 -110.48,-228.76 -110.51,-228.77 h 189.33 l -103.76,-214.83001 -29.25,-60.57999 -99.69,206.38 -103.78,214.8199 h 189.33 l -110.49,228.76 -110.49,228.7701 -110.48,-228.7701 -110.5,-228.76 h 189.32 l -103.76,-214.8199 -112.21,-232.33995 -76.01,157.36997 -110.48,-228.75998 -110.51,-228.77005 h 189.33 l -103.76,-214.81999 c -155.29,-321.5499 -96.41,-325.0999 -230.26,-47.93002 h 189.3 c -45.12,93.45001 -90.25,186.92004 -135.41,280.39 l -103.76,214.82 h 189.33 l -110.49,228.73992 -110.48,228.79 -110.51,-228.79 -84.22,-174.34991 -71.41,147.87995 -110.49,228.76006 -110.49,-228.76006 -110.5,-228.76992 h 189.33 l -103.77,-214.82997 c -45.13,-93.44004 -90.25,-186.90003 -135.4,-280.37006 h 189.31 l -78.8,-163.21989 -220.69,120.63995 -78.84,163.20995 h 189.32 c -45.12,93.47004 -90.29,186.94 -135.43,280.36999 l -103.76,214.84999 h 189.33 l -110.48,228.75002 -110.51,228.7799 -110.48,-228.7799 -52.48,-108.69008 -68.14,141.06008 -110.51,-228.76001 -39.59,-81.98995 -27.76,57.46997 -103.76,214.81999 h 189.33 l -110.5,228.77 -110.49,228.77 -110.49,-228.77 -29.54,-61.16 -55.21,114.3199 -110.48,228.79 -110.49,-228.79 z m 6102.3072,-871.63987 -11.164,-23.15001 -1.953,4.03 -9.235,19.12001 h 22.352" /></g></g></g></svg>