<svg id="svg2" xmlns="http://www.w3.org/2000/svg" viewBox="0 0 708.66 708.66"><defs><style>.cls-1{fill:#f9d48e;}.cls-2{fill:#fadca0;}</style></defs><title>hero-background</title><g id="g10"><g id="g12"><path id="path14" class="cls-1" d="M708.66,708.66H0V0H708.66V708.66" transform="translate(0 0)"/><path id="path16" class="cls-2" d="M616.29,43.58,602.75,17.22,586.42,42Z" transform="translate(0 0)"/><path id="path18" class="cls-2" d="M472.58,43.06l-11-24.56L445.69,40.23Z" transform="translate(0 0)"/><path id="path20" class="cls-2" d="M332.44,39.22,317,19.3l-9.53,23.36Z" transform="translate(0 0)"/><path id="path22" class="cls-2" d="M191.62,40.43l-18.1-22.89-11.05,27Z" transform="translate(0 0)"/><path id="path24" class="cls-2" d="M45.4,44.38,36,18.24,17.88,39.37Z" transform="translate(0 0)"/><path id="path26" class="cls-2" d="M658.54,73.49l13.76,26.1,16-24.79Z" transform="translate(0 0)"/><path id="path28" class="cls-2" d="M514,73.68l17.79,27.23L547,72.14Z" transform="translate(0 0)"/><path id="path30" class="cls-2" d="M371.14,76.89l21.14,23.26,10-29.79Z" transform="translate(0 0)"/><path id="path32" class="cls-2" d="M230.15,69.3l14,32.91,22.1-28.15Z" transform="translate(0 0)"/><path id="path34" class="cls-2" d="M87.28,74.69l18.52,25.87,13.58-28.77Z" transform="translate(0 0)"/><path id="path36" class="cls-2" d="M616.1,158.89,600.7,138l-10.48,23.77Z" transform="translate(0 0)"/><path id="path38" class="cls-2" d="M473.94,161.64,460.72,137l-14.89,23.65Z" transform="translate(0 0)"/><path id="path40" class="cls-2" d="M334.27,159.49l-17.39-22.63-11.14,26.28Z" transform="translate(0 0)"/><path id="path42" class="cls-2" d="M190.27,158.22l-16.9-20.36-9.28,24.78Z" transform="translate(0 0)"/><path id="path44" class="cls-2" d="M46.27,161.79,34.64,137.53l-15.3,22.13Z" transform="translate(0 0)"/><path id="path46" class="cls-2" d="M655.43,192.84l16.8,31.26,19.3-29.79Z" transform="translate(0 0)"/><path id="path48" class="cls-2" d="M514.92,190.33l13.73,34.18L552,196.05Z" transform="translate(0 0)"/><path id="path50" class="cls-2" d="M374.81,195.68l14.29,25.81,15.48-25.12Z" transform="translate(0 0)"/><path id="path52" class="cls-2" d="M225.71,197.27l23.55,26.55,11.91-33.42Z" transform="translate(0 0)"/><path id="path54" class="cls-2" d="M92.51,194.11l9.78,26.74,18.46-21.69Z" transform="translate(0 0)"/><path id="path56" class="cls-2" d="M616,280.8l-13.56-24.9L587.4,280Z" transform="translate(0 0)"/><path id="path58" class="cls-2" d="M473.27,278.46l-13.55-21.07-11.47,22.27Z" transform="translate(0 0)"/><path id="path60" class="cls-2" d="M333.64,277.2l-17.26-20.37-9.12,25.1Z" transform="translate(0 0)"/><path id="path62" class="cls-2" d="M193.31,281l-19.1-27.33-14.65,29.94Z" transform="translate(0 0)"/><path id="path64" class="cls-2" d="M48.94,285.16l-13-31.82L14.37,280.1Z" transform="translate(0 0)"/><path id="path66" class="cls-2" d="M659.43,309.19l11.2,29.06,19.9-24Z" transform="translate(0 0)"/><path id="path68" class="cls-2" d="M512.93,314.33l20.69,24.18,11.06-29.85Z" transform="translate(0 0)"/><path id="path70" class="cls-2" d="M374.45,309.77l13.67,29,18.68-26Z" transform="translate(0 0)"/><path id="path72" class="cls-2" d="M230.7,314l16.75,23.39,12.12-26.09Z" transform="translate(0 0)"/><path id="path74" class="cls-2" d="M89.07,309.41l14.18,29.76,19.15-26.83Z" transform="translate(0 0)"/><path id="path76" class="cls-2" d="M615.49,396.74l-13.06-24.26-14.64,23.35Z" transform="translate(0 0)"/><path id="path78" class="cls-2" d="M474.51,395.63l-14.77-23.08L447,396.81Z" transform="translate(0 0)"/><path id="path80" class="cls-2" d="M338,398.55l-20.57-30L301,401Z" transform="translate(0 0)"/><path id="path82" class="cls-2" d="M193.61,398.28l-18.93-29-16.24,30.58Z" transform="translate(0 0)"/><path id="path84" class="cls-2" d="M52.89,398.83,32.83,368.54,15.91,400.69Z" transform="translate(0 0)"/><path id="path86" class="cls-2" d="M657.72,427.27l13.87,29.3,18.86-26.36Z" transform="translate(0 0)"/><path id="path88" class="cls-2" d="M514.6,424.34l14.27,34.13L552,429.56Z" transform="translate(0 0)"/><path id="path90" class="cls-2" d="M371.24,428.87l19,28.55L406.05,427Z" transform="translate(0 0)"/><path id="path92" class="cls-2" d="M231.05,430l15.38,25.53,14.72-25.91Z" transform="translate(0 0)"/><path id="path94" class="cls-2" d="M86.52,426.35l17.41,32,19.73-30.66Z" transform="translate(0 0)"/><path id="path96" class="cls-2" d="M619.13,513,599.3,490.79,589.65,519Z" transform="translate(0 0)"/><path id="path98" class="cls-2" d="M473.9,515.47l-13.46-23.88L446.35,515.1Z" transform="translate(0 0)"/><path id="path100" class="cls-2" d="M331.12,514.26l-12.65-21.59-12.38,21.74Z" transform="translate(0 0)"/><path id="path102" class="cls-2" d="M196.27,516.2l-23.35-28.78-14,34.3Z" transform="translate(0 0)"/><path id="path104" class="cls-2" d="M47.87,513l-15.7-20.65L22.08,516.24Z" transform="translate(0 0)"/><path id="path106" class="cls-2" d="M659.1,548.86l12.51,27L689,551.73Z" transform="translate(0 0)"/><path id="path108" class="cls-2" d="M510.47,550.82l23.3,27.72,13.1-33.76Z" transform="translate(0 0)"/><path id="path110" class="cls-2" d="M375.08,554.7l16.43,19L399.78,550Z" transform="translate(0 0)"/><path id="path112" class="cls-2" d="M225.78,551.26l23.26,27,12.46-33.39Z" transform="translate(0 0)"/><path id="path114" class="cls-2" d="M92.57,547.69l9.3,27.76,19.61-21.73Z" transform="translate(0 0)"/><path id="path116" class="cls-2" d="M617.63,638.24,605,604l-24,27.52Z" transform="translate(0 0)"/><path id="path118" class="cls-2" d="M477.31,632.14l-18.05-26.33L445,634.4Z" transform="translate(0 0)"/><path id="path120" class="cls-2" d="M333.41,632.86l-14.56-26.2-15.71,25.52Z" transform="translate(0 0)"/><path id="path122" class="cls-2" d="M189.79,635l-12.66-29-19.2,25.2Z" transform="translate(0 0)"/><path id="path124" class="cls-2" d="M47.29,633.55,34.89,607l-17,23.83Z" transform="translate(0 0)"/><path id="path126" class="cls-2" d="M656.34,667.16l16.77,27.47,15.85-28Z" transform="translate(0 0)"/><path id="path128" class="cls-2" d="M514.16,670.23l19,23.35,11-28Z" transform="translate(0 0)"/><path id="path130" class="cls-2" d="M371.79,664.69l17,31.51,19.43-30.06Z" transform="translate(0 0)"/><path id="path132" class="cls-2" d="M231.48,663.53l12.35,31.71,21.78-26.14Z" transform="translate(0 0)"/><path id="path134" class="cls-2" d="M90.14,667.43l13.88,26,15.85-24.85Z" transform="translate(0 0)"/><path id="path136" class="cls-2" d="M593.74,11.82,577.35,52.16l44.2-7L593.74,11.82Zm.42,2.72,24.7,29.64-39.25,6.19,14.55-35.83" transform="translate(0 0)"/><path id="path138" class="cls-2" d="M467.44,12.16,440,37.09,476.13,48l-8.69-35.88Zm-.82,2.65L474.17,46,442.8,36.45l23.82-21.64" transform="translate(0 0)"/><path id="path140" class="cls-2" d="M313,14.1l-8.73,29.25,30-7.25Zm.67,2.73,17.9,18.47L306.3,41.39l7.34-24.56" transform="translate(0 0)"/><path id="path142" class="cls-2" d="M182.21,14.37l-18.89,29L198.53,45Zm-.13,2.79,14,26.28L165.86,42l16.22-24.88" transform="translate(0 0)"/><path id="path144" class="cls-2" d="M38,14.52,18.63,38.57l30.89,4.56Zm-.41,2.78,9.67,24.07-26-3.84L37.62,17.3" transform="translate(0 0)"/><path id="path146" class="cls-2" d="M655,66.89l14.58,38.36,26.95-31L655,66.89Zm2.21,1.83,36.61,6.44-23.76,27.37L657.24,68.72" transform="translate(0 0)"/><path id="path148" class="cls-2" d="M551.15,67.36,510.24,73l25.2,31.42,15.71-37Zm-2.28,1.74-13.81,32.55L512.91,74l36-4.94" transform="translate(0 0)"/><path id="path150" class="cls-2" d="M406.36,65.93,370.71,81.54l31.13,22.09Zm-1.7,2.29-4,32.88L373.58,81.84l31.08-13.62" transform="translate(0 0)"/><path id="path152" class="cls-2" d="M264.81,68.42l-43.76.21L243,105.05Zm-2.5,1.43L243,102.29,223.55,70l38.76-.19" transform="translate(0 0)"/><path id="path154" class="cls-2" d="M119.74,67.12l-41.26,5,24.89,32Zm-2.3,1.7L103,101.37,81.13,73.19l36.31-4.37" transform="translate(0 0)"/><path id="path156" class="cls-2" d="M601.65,138.64,593,168.12l30.2-7.47Zm.68,2.72,18.12,18.51-25.4,6.28,7.28-24.79" transform="translate(0 0)"/><path id="path158" class="cls-2" d="M460.12,132.92,442.5,170.38l42.24-4.25Zm.27,2.74L482.12,165l-37.28,3.75,15.55-33.06" transform="translate(0 0)"/><path id="path160" class="cls-2" d="M308.42,130.63,297.89,168l38.51-10.18Zm.72,2.68,24.48,23.79L299.93,166l9.21-32.7" transform="translate(0 0)"/><path id="path162" class="cls-2" d="M169.5,136.64l-9.86,31.55,32.78-7.52-22.92-24Zm.63,2.72,19.55,20.49-28,6.41,8.4-26.9" transform="translate(0 0)"/><path id="path164" class="cls-2" d="M42.68,133.08,14.76,160.94l39.08,9.82L42.68,133.08ZM42,135.76l9.78,33-34.24-8.6L42,135.76" transform="translate(0 0)"/><path id="path166" class="cls-2" d="M645.45,192.08l22.66,39.5L692.44,193Zm2.48,1.47,42,.84-21.73,34.44-20.24-35.28" transform="translate(0 0)"/><path id="path168" class="cls-2" d="M505.79,185.22l16.84,46.53L556.19,195Zm2.19,1.87,45.46,8.83-30.27,33.14-15.19-42" transform="translate(0 0)"/><path id="path170" class="cls-2" d="M400,191.28l-32.68.84,17,27.35L400,191.28Zm-2.44,1.48L384.3,216.67l-14.46-23.2,27.73-.71" transform="translate(0 0)"/><path id="path172" class="cls-2" d="M261.05,188.11l-35.33,12.07,27.88,23.75Zm-1.9,2.14L252.7,221.3l-24.16-20.59,30.61-10.46" transform="translate(0 0)"/><path id="path174" class="cls-2" d="M88.84,187.25l17,35.91,23.67-32.25Zm2.34,1.64,35.67,3.21-20.77,28.31-14.9-31.52" transform="translate(0 0)"/><path id="path176" class="cls-2" d="M608.82,250.71l-19.22,27.5,34,2.6Zm-.21,2.78,12.62,25.72L592.18,277l16.43-23.49" transform="translate(0 0)"/><path id="path178" class="cls-2" d="M464.76,254.32l-20.31,29.77,36.67,2.42-16.36-32.19Zm-.18,2.77,14.15,27.84L447,282.84l17.56-25.75" transform="translate(0 0)"/><path id="path180" class="cls-2" d="M320.19,258.33l-7.87,29.17,29.52-8Zm.73,2.7,18.16,17.77-24.75,6.69L320.92,261" transform="translate(0 0)"/><path id="path182" class="cls-2" d="M166.34,247.52l-13.58,40,42.5-9.08Zm.58,2.7,25.59,27.33-37.6,8.05,12-35.38" transform="translate(0 0)"/><path id="path184" class="cls-2" d="M32.24,245.15,5.52,282.33l47,3.63ZM32,247.89l18.07,36.47L8.14,281.11,32,247.89" transform="translate(0 0)"/><path id="path186" class="cls-2" d="M652.51,305.07l13.59,35,24.35-28.78Zm2.22,1.8,33,5.43-21.19,25-11.83-30.47" transform="translate(0 0)"/><path id="path188" class="cls-2" d="M546.5,297.48,501.61,312l34.85,30,10-44.49Zm-1.93,2.11-9,39.77-31.14-26.78,40.12-13" transform="translate(0 0)"/><path id="path190" class="cls-2" d="M364.59,306.53l21,37.61L409,307.76Zm2.46,1.48,39.39,1.1L385.7,341.39,367.05,308" transform="translate(0 0)"/><path id="path192" class="cls-2" d="M259.11,302.13l-39.34,6.22,25,29.88Zm-2.23,1.79L244.35,335.5l-21.88-26.14,34.41-5.44" transform="translate(0 0)"/><path id="path194" class="cls-2" d="M87.09,306.35l19.7,39.52,25.73-36.06-45.43-3.46ZM89.47,308,129.9,311,107,343.13,89.47,308" transform="translate(0 0)"/><path id="path196" class="cls-2" d="M601.33,366.57,579.89,398.5l39.26,2.09Zm-.15,2.77L616.74,399l-34.28-1.83,18.72-27.87" transform="translate(0 0)"/><path id="path198" class="cls-2" d="M462.83,367.08l-18.1,33.05,38.52-1.3Zm.1,2.77,17.78,27.65-33.54,1.13,15.76-28.78" transform="translate(0 0)"/><path id="path200" class="cls-2" d="M313.85,365.76,300,414.85l51.08-14-37.18-35.14Zm.73,2.64,33.64,31.79L302,412.82l12.59-44.42" transform="translate(0 0)"/><path id="path202" class="cls-2" d="M176.74,359.84,154,405.78l53-4.44-30.27-41.5Zm.23,2.72,27.41,37.58-48,4L177,362.56" transform="translate(0 0)"/><path id="path204" class="cls-2" d="M27.48,362.79,7.4,408.48l51.31-6.64Zm.35,2.71L56,400.76l-46.32,6L27.83,365.5" transform="translate(0 0)"/><path id="path206" class="cls-2" d="M649.88,421.14l19.06,40.07,26.53-35.76-45.59-4.31Zm2.35,1.64,40.6,3.85-23.62,31.84-17-35.69" transform="translate(0 0)"/><path id="path208" class="cls-2" d="M510.89,416.2l10.51,48.16,38-31.85Zm1.92,2.14,43.69,14.71-34.22,28.72-9.47-43.43" transform="translate(0 0)"/><path id="path210" class="cls-2" d="M369.8,427l21.83,36.85,22.2-36.56-44-.29Zm2.5,1.43,39,.26-19.67,32.4L372.3,428.41" transform="translate(0 0)"/><path id="path212" class="cls-2" d="M229.12,422.7l16.34,31.76,20-29.57Zm2.4,1.56,31.4,1.89-17.29,25.54-14.11-27.43" transform="translate(0 0)"/><path id="path214" class="cls-2" d="M84.62,420.37l18.85,40.27,26.74-35.58ZM87,422l40.61,4.18-23.82,31.69L87,422" transform="translate(0 0)"/><path id="path216" class="cls-2" d="M598.6,486.87,580.47,519l37.73-.65-19.6-31.46Zm.06,2.78,17,27.31-32.76.56,15.74-27.87" transform="translate(0 0)"/><path id="path218" class="cls-2" d="M463.87,490.07l-18.68,26.41,32.71,2.73Zm-.23,2.78,11.9,24.74-27.76-2.32,15.86-22.42" transform="translate(0 0)"/><path id="path220" class="cls-2" d="M322.46,491.23l-17.89,22.2,28.4,4.3-10.51-26.5ZM322,494l8.7,22-23.52-3.57L322,494" transform="translate(0 0)"/><path id="path222" class="cls-2" d="M172.27,481.29l-25.4,48.57,57-3.36Zm.17,2.72,28.86,41.23-52,3.06L172.44,484" transform="translate(0 0)"/><path id="path224" class="cls-2" d="M29.32,487.49,12.63,519.66l37-1.92Zm.15,2.78L47,516.45l-32,1.66,14.44-27.84" transform="translate(0 0)"/><path id="path226" class="cls-2" d="M658.65,541l17.29,36.76L700.2,545Zm2.34,1.65,36.58,3.52L676.21,575,661,542.67" transform="translate(0 0)"/><path id="path228" class="cls-2" d="M512.19,545l18.38,31.92,19.17-31.43Zm2.47,1.45,32.58.43L530.6,574.1l-15.94-27.69" transform="translate(0 0)"/><path id="path230" class="cls-2" d="M402.61,547.62l-37.84,2.73,21.53,30.58Zm-2.36,1.59-14.17,28.94-18.71-26.57,32.88-2.37" transform="translate(0 0)"/><path id="path232" class="cls-2" d="M265.48,542.21,218,547.67l28.54,36.7Zm-2.32,1.69-17,37.74-25.55-32.85,42.52-4.89" transform="translate(0 0)"/><path id="path234" class="cls-2" d="M87.3,542l7.09,33,25.55-22.23Zm1.91,2.12,27.92,9.2-21.86,19-6.06-28.23" transform="translate(0 0)"/><path id="path236" class="cls-2" d="M598.73,598l-27.12,44.29,53.6-.06Zm0,2.74,24,40.07-48.57.06,24.58-40.13" transform="translate(0 0)"/><path id="path238" class="cls-2" d="M464.49,600.21,444.6,637l43-1.8-23.08-35Zm.12,2.75,20.4,30.9-38,1.59L464.61,603" transform="translate(0 0)"/><path id="path240" class="cls-2" d="M319.11,607.37,306.76,639l34.05-5.54Zm.44,2.75,18.58,22.3L309,637.16l10.57-27" transform="translate(0 0)"/><path id="path242" class="cls-2" d="M178.62,599.74l-25.29,40,48.68.84Zm-.06,2.75,21,36.59-43.66-.75,22.68-35.84" transform="translate(0 0)"/><path id="path244" class="cls-2" d="M40,604.57,20.75,631.32l33.31,3Zm-.25,2.78,12,25.32-28.37-2.54,16.38-22.78" transform="translate(0 0)"/><path id="path246" class="cls-2" d="M648.64,660.23l18.87,43,29.22-36.74ZM651,662l43.11,5.63-26.19,32.93L651,662" transform="translate(0 0)"/><path id="path248" class="cls-2" d="M541.73,657.89,500,670.52,531.67,699Zm-2,2.07-8.9,36.38-28-25.19L539.76,660" transform="translate(0 0)"/><path id="path250" class="cls-2" d="M377.61,661.9l10.28,34.72,25.5-25.7Zm2.06,2,31,7.79-22.07,22.25-8.9-30" transform="translate(0 0)"/><path id="path252" class="cls-2" d="M217.7,663.73l24.61,42.11,26-41.67Zm2.48,1.44,45.58.39L242.35,703.1l-22.17-37.93" transform="translate(0 0)"/><path id="path254" class="cls-2" d="M96.45,664.8l10.81,29.92,20.9-24Zm2.17,1.85,26.84,5L107.78,692l-9.16-25.32" transform="translate(0 0)"/></g></g></svg>