<?xml version="1.0" encoding="UTF-8"?>
<svg width="2126" height="2126" version="1.1" viewBox="0 0 2126 2126" xmlns="http://www.w3.org/2000/svg" xmlns:cc="http://creativecommons.org/ns#" xmlns:dc="http://purl.org/dc/elements/1.1/" xmlns:rdf="http://www.w3.org/1999/02/22-rdf-syntax-ns#">
 <metadata>
  <rdf:RDF>
   <cc:Work rdf:about="">
    <dc:format>image/svg+xml</dc:format>
    <dc:type rdf:resource="http://purl.org/dc/dcmitype/StillImage"/>
    <dc:title>hero-background</dc:title>
   </cc:Work>
  </rdf:RDF>
 </metadata>
 <defs>
  <style>.cls-1{fill:#f9d48e;}.cls-2{fill:#fadca0;}</style>
 </defs>
 <title>hero-background</title>
 <g transform="translate(708.66,708.66)">
  <path class="cls-1" d="M 708.66,708.66 H 0 V 0 h 708.66 v 708.66" fill="#f9d48e"/>
  <g fill="#fadca0">
   <path class="cls-2" d="m616.29 43.58-13.54-26.36-16.33 24.78z"/>
   <path class="cls-2" d="m472.58 43.06-11-24.56-15.89 21.73z"/>
   <path class="cls-2" d="m332.44 39.22-15.44-19.92-9.53 23.36z"/>
   <path class="cls-2" d="m191.62 40.43-18.1-22.89-11.05 27z"/>
   <path class="cls-2" d="m45.4 44.38-9.4-26.14-18.12 21.13z"/>
   <path class="cls-2" d="m658.54 73.49 13.76 26.1 16-24.79z"/>
   <path class="cls-2" d="m514 73.68 17.79 27.23 15.21-28.77z"/>
   <path class="cls-2" d="m371.14 76.89 21.14 23.26 10-29.79z"/>
   <path class="cls-2" d="m230.15 69.3 14 32.91 22.1-28.15z"/>
   <path class="cls-2" d="m87.28 74.69 18.52 25.87 13.58-28.77z"/>
   <path class="cls-2" d="m616.1 158.89-15.4-20.89-10.48 23.77z"/>
   <path class="cls-2" d="m473.94 161.64-13.22-24.64-14.89 23.65z"/>
   <path class="cls-2" d="m334.27 159.49-17.39-22.63-11.14 26.28z"/>
   <path class="cls-2" d="m190.27 158.22-16.9-20.36-9.28 24.78z"/>
   <path class="cls-2" d="m46.27 161.79-11.63-24.26-15.3 22.13z"/>
   <path class="cls-2" d="m655.43 192.84 16.8 31.26 19.3-29.79z"/>
   <path class="cls-2" d="m514.92 190.33 13.73 34.18 23.35-28.46z"/>
   <path class="cls-2" d="m374.81 195.68 14.29 25.81 15.48-25.12z"/>
   <path class="cls-2" d="m225.71 197.27 23.55 26.55 11.91-33.42z"/>
   <path class="cls-2" d="m92.51 194.11 9.78 26.74 18.46-21.69z"/>
   <path class="cls-2" d="m616 280.8-13.56-24.9-15.04 24.1z"/>
   <path class="cls-2" d="m473.27 278.46-13.55-21.07-11.47 22.27z"/>
   <path class="cls-2" d="m333.64 277.2-17.26-20.37-9.12 25.1z"/>
   <path class="cls-2" d="m193.31 281-19.1-27.33-14.65 29.94z"/>
   <path class="cls-2" d="m48.94 285.16-13-31.82-21.57 26.76z"/>
   <path class="cls-2" d="m659.43 309.19 11.2 29.06 19.9-24z"/>
   <path class="cls-2" d="m512.93 314.33 20.69 24.18 11.06-29.85z"/>
   <path class="cls-2" d="m374.45 309.77 13.67 29 18.68-26z"/>
   <path class="cls-2" d="m230.7 314 16.75 23.39 12.12-26.09z"/>
   <path class="cls-2" d="m89.07 309.41 14.18 29.76 19.15-26.83z"/>
   <path class="cls-2" d="m615.49 396.74-13.06-24.26-14.64 23.35z"/>
   <path class="cls-2" d="m474.51 395.63-14.77-23.08-12.74 24.26z"/>
   <path class="cls-2" d="m338 398.55-20.57-30-16.43 32.45z"/>
   <path class="cls-2" d="m193.61 398.28-18.93-29-16.24 30.58z"/>
   <path class="cls-2" d="m52.89 398.83-20.06-30.29-16.92 32.15z"/>
   <path class="cls-2" d="m657.72 427.27 13.87 29.3 18.86-26.36z"/>
   <path class="cls-2" d="m514.6 424.34 14.27 34.13 23.13-28.91z"/>
   <path class="cls-2" d="m371.24 428.87 19 28.55 15.81-30.42z"/>
   <path class="cls-2" d="m231.05 430 15.38 25.53 14.72-25.91z"/>
   <path class="cls-2" d="m86.52 426.35 17.41 32 19.73-30.66z"/>
   <path class="cls-2" d="m619.13 513-19.83-22.21-9.65 28.21z"/>
   <path class="cls-2" d="m473.9 515.47-13.46-23.88-14.09 23.51z"/>
   <path class="cls-2" d="m331.12 514.26-12.65-21.59-12.38 21.74z"/>
   <path class="cls-2" d="m196.27 516.2-23.35-28.78-14 34.3z"/>
   <path class="cls-2" d="m47.87 513-15.7-20.65-10.09 23.89z"/>
   <path class="cls-2" d="m659.1 548.86 12.51 27 17.39-24.13z"/>
   <path class="cls-2" d="m510.47 550.82 23.3 27.72 13.1-33.76z"/>
   <path class="cls-2" d="m375.08 554.7 16.43 19 8.27-23.7z"/>
   <path class="cls-2" d="m225.78 551.26 23.26 27 12.46-33.39z"/>
   <path class="cls-2" d="m92.57 547.69 9.3 27.76 19.61-21.73z"/>
   <path class="cls-2" d="m617.63 638.24-12.63-34.24-24 27.52z"/>
   <path class="cls-2" d="m477.31 632.14-18.05-26.33-14.26 28.59z"/>
   <path class="cls-2" d="m333.41 632.86-14.56-26.2-15.71 25.52z"/>
   <path class="cls-2" d="m189.79 635-12.66-29-19.2 25.2z"/>
   <path class="cls-2" d="m47.29 633.55-12.4-26.55-17 23.83z"/>
   <path class="cls-2" d="m656.34 667.16 16.77 27.47 15.85-28z"/>
   <path class="cls-2" d="m514.16 670.23 19 23.35 11-28z"/>
   <path class="cls-2" d="m371.79 664.69 17 31.51 19.43-30.06z"/>
   <path class="cls-2" d="m231.48 663.53 12.35 31.71 21.78-26.14z"/>
   <path class="cls-2" d="m90.14 667.43 13.88 26 15.85-24.85z"/>
   <path class="cls-2" d="m593.74 11.82-16.39 40.34 44.2-7zm0.42 2.72 24.7 29.64-39.25 6.19 14.55-35.83"/>
   <path class="cls-2" d="m467.44 12.16-27.44 24.93 36.13 10.91-8.69-35.88zm-0.82 2.65 7.55 31.19-31.37-9.55 23.82-21.64"/>
   <path class="cls-2" d="m313 14.1-8.73 29.25 30-7.25zm0.67 2.73 17.9 18.47-25.27 6.09 7.34-24.56"/>
   <path class="cls-2" d="m182.21 14.37-18.89 29 35.21 1.63zm-0.13 2.79 14 26.28-30.22-1.44 16.22-24.88"/>
   <path class="cls-2" d="m38 14.52-19.37 24.05 30.89 4.56zm-0.41 2.78 9.67 24.07-26-3.84 16.36-20.23"/>
   <path class="cls-2" d="m655 66.89 14.58 38.36 26.95-31zm2.21 1.83 36.61 6.44-23.76 27.37-12.82-33.81"/>
   <path class="cls-2" d="m551.15 67.36-40.91 5.64 25.2 31.42 15.71-37zm-2.28 1.74-13.81 32.55-22.15-27.65 36-4.94"/>
   <path class="cls-2" d="m406.36 65.93-35.65 15.61 31.13 22.09zm-1.7 2.29-4 32.88-27.08-19.26 31.08-13.62"/>
   <path class="cls-2" d="m264.81 68.42-43.76 0.21 21.95 36.42zm-2.5 1.43-19.31 32.44-19.45-32.29 38.76-0.19"/>
   <path class="cls-2" d="m119.74 67.12-41.26 5 24.89 32zm-2.3 1.7-14.44 32.55-21.87-28.18 36.31-4.37"/>
   <path class="cls-2" d="m601.65 138.64-8.65 29.48 30.2-7.47zm0.68 2.72 18.12 18.51-25.4 6.28 7.28-24.79"/>
   <path class="cls-2" d="m460.12 132.92-17.62 37.46 42.24-4.25zm0.27 2.74 21.73 29.34-37.28 3.75 15.55-33.06"/>
   <path class="cls-2" d="m308.42 130.63-10.53 37.37 38.51-10.18zm0.72 2.68 24.48 23.79-33.69 8.9 9.21-32.7"/>
   <path class="cls-2" d="m169.5 136.64-9.86 31.55 32.78-7.52-22.92-24zm0.63 2.72 19.55 20.49-28 6.41 8.4-26.9"/>
   <path class="cls-2" d="m42.68 133.08-27.92 27.86 39.08 9.82zm-0.68 2.68 9.78 33-34.24-8.6 24.46-24.4"/>
   <path class="cls-2" d="m645.45 192.08 22.66 39.5 24.33-38.58zm2.48 1.47 42 0.84-21.73 34.44-20.24-35.28"/>
   <path class="cls-2" d="m505.79 185.22 16.84 46.53 33.56-36.75zm2.19 1.87 45.46 8.83-30.27 33.14-15.19-42"/>
   <path class="cls-2" d="m400 191.28-32.68 0.84 17 27.35zm-2.44 1.48-13.26 23.91-14.46-23.2 27.73-0.71"/>
   <path class="cls-2" d="m261.05 188.11-35.33 12.07 27.88 23.75zm-1.9 2.14-6.45 31.05-24.16-20.59 30.61-10.46"/>
   <path class="cls-2" d="m88.84 187.25 17 35.91 23.67-32.25zm2.34 1.64 35.67 3.21-20.77 28.31-14.9-31.52"/>
   <path class="cls-2" d="m608.82 250.71-19.22 27.5 34 2.6zm-0.21 2.78 12.62 25.72-29.05-2.21 16.43-23.49"/>
   <path class="cls-2" d="m464.76 254.32-20.31 29.77 36.67 2.42zm-0.18 2.77 14.15 27.84-31.73-2.09 17.56-25.75"/>
   <path class="cls-2" d="m320.19 258.33-7.87 29.17 29.52-8zm0.73 2.7 18.16 17.77-24.75 6.69 6.59-24.49"/>
   <path class="cls-2" d="m166.34 247.52-13.58 40 42.5-9.08zm0.58 2.7 25.59 27.33-37.6 8.05 12-35.38"/>
   <path class="cls-2" d="m32.24 245.15-26.72 37.18 47 3.63zm-0.24 2.74 18.07 36.47-41.93-3.25 23.86-33.22"/>
   <path class="cls-2" d="m652.51 305.07 13.59 35 24.35-28.78zm2.22 1.8 33 5.43-21.19 25-11.83-30.47"/>
   <path class="cls-2" d="m546.5 297.48-44.89 14.52 34.85 30 10-44.49zm-1.93 2.11-9 39.77-31.14-26.78 40.12-13"/>
   <path class="cls-2" d="m364.59 306.53 21 37.61 23.41-36.38zm2.46 1.48 39.39 1.1-20.74 32.28-18.65-33.39"/>
   <path class="cls-2" d="m259.11 302.13-39.34 6.22 25 29.88zm-2.23 1.79-12.53 31.58-21.88-26.14 34.41-5.44"/>
   <path class="cls-2" d="m87.09 306.35 19.7 39.52 25.73-36.06zm2.38 1.65 40.43 3-22.9 32.13-17.53-35.13"/>
   <path class="cls-2" d="m601.33 366.57-21.44 31.93 39.26 2.09zm-0.15 2.77 15.56 29.66-34.28-1.83 18.72-27.87"/>
   <path class="cls-2" d="m462.83 367.08-18.1 33.05 38.52-1.3zm0.1 2.77 17.78 27.65-33.54 1.13 15.76-28.78"/>
   <path class="cls-2" d="m313.85 365.76-13.85 49.09 51.08-14-37.18-35.14zm0.73 2.64 33.64 31.79-46.22 12.63 12.59-44.42"/>
   <path class="cls-2" d="m176.74 359.84-22.74 45.94 53-4.44-30.27-41.5zm0.23 2.72 27.41 37.58-48 4 20.62-41.58"/>
   <path class="cls-2" d="m27.48 362.79-20.08 45.69 51.31-6.64zm0.35 2.71 28.17 35.26-46.32 6 18.15-41.26"/>
   <path class="cls-2" d="m649.88 421.14 19.06 40.07 26.53-35.76zm2.35 1.64 40.6 3.85-23.62 31.84-17-35.69"/>
   <path class="cls-2" d="m510.89 416.2 10.51 48.16 38-31.85zm1.92 2.14 43.69 14.71-34.22 28.72-9.47-43.43"/>
   <path class="cls-2" d="m369.8 427 21.83 36.85 22.2-36.56-44-0.29zm2.5 1.43 39 0.26-19.67 32.4-19.33-32.68"/>
   <path class="cls-2" d="m229.12 422.7 16.34 31.76 20-29.57zm2.4 1.56 31.4 1.89-17.29 25.54-14.11-27.43"/>
   <path class="cls-2" d="m84.62 420.37 18.85 40.27 26.74-35.58zm2.38 1.63 40.61 4.18-23.82 31.69-16.79-35.87"/>
   <path class="cls-2" d="m598.6 486.87-18.13 32.13 37.73-0.65-19.6-31.46zm0.06 2.78 17 27.31-32.76 0.56 15.74-27.87"/>
   <path class="cls-2" d="m463.87 490.07-18.68 26.41 32.71 2.73zm-0.23 2.78 11.9 24.74-27.76-2.32 15.86-22.42"/>
   <path class="cls-2" d="m322.46 491.23-17.89 22.2 28.4 4.3zm-0.46 2.77 8.7 22-23.52-3.57 14.82-18.43"/>
   <path class="cls-2" d="m172.27 481.29-25.4 48.57 57-3.36zm0.17 2.72 28.86 41.23-52 3.06 23.14-44.3"/>
   <path class="cls-2" d="m29.32 487.49-16.69 32.17 37-1.92zm0.15 2.78 17.53 26.18-32 1.66 14.44-27.84"/>
   <path class="cls-2" d="m658.65 541 17.29 36.76 24.26-32.76zm2.34 1.65 36.58 3.52-21.36 28.83-15.21-32.33"/>
   <path class="cls-2" d="m512.19 545 18.38 31.92 19.17-31.43zm2.47 1.45 32.58 0.43-16.64 27.22-15.94-27.69"/>
   <path class="cls-2" d="m402.61 547.62-37.84 2.73 21.53 30.58zm-2.36 1.59-14.17 28.94-18.71-26.57 32.88-2.37"/>
   <path class="cls-2" d="m265.48 542.21-47.48 5.46 28.54 36.7zm-2.32 1.69-17 37.74-25.55-32.85 42.52-4.89"/>
   <path class="cls-2" d="m87.3 542 7.09 33 25.55-22.23zm1.91 2.12 27.92 9.2-21.86 19-6.06-28.23"/>
   <path class="cls-2" d="m598.73 598-27.12 44.29 53.6-0.06zm0 2.74 24 40.07-48.57 0.06 24.58-40.13"/>
   <path class="cls-2" d="m464.49 600.21-19.89 36.79 43-1.8-23.08-35zm0.12 2.75 20.4 30.9-38 1.59 17.6-32.45"/>
   <path class="cls-2" d="m319.11 607.37-12.35 31.63 34.05-5.54zm0.44 2.75 18.58 22.3-29.13 4.74 10.57-27"/>
   <path class="cls-2" d="m178.62 599.74-25.29 40 48.68 0.84zm-0.06 2.75 21 36.59-43.66-0.75 22.68-35.84"/>
   <path class="cls-2" d="m40 604.57-19.25 26.75 33.31 3zm-0.25 2.78 12 25.32-28.37-2.54 16.38-22.78"/>
   <path class="cls-2" d="m648.64 660.23 18.87 43 29.22-36.74zm2.36 1.77 43.11 5.63-26.19 32.93-16.92-38.56"/>
   <path class="cls-2" d="m541.73 657.89-41.73 12.63 31.67 28.48zm-2 2.07-8.9 36.38-28-25.19 36.93-11.15"/>
   <path class="cls-2" d="m377.61 661.9 10.28 34.72 25.5-25.7zm2.06 2 31 7.79-22.07 22.25-8.9-30"/>
   <path class="cls-2" d="m217.7 663.73 24.61 42.11 26-41.67zm2.48 1.44 45.58 0.39-23.41 37.54-22.17-37.93"/>
   <path class="cls-2" d="m96.45 664.8 10.81 29.92 20.9-24zm2.17 1.85 26.84 5-17.68 20.35-9.16-25.32"/>
  </g>
 </g>
 <g transform="translate(708.66 1417.3)">
  <path class="cls-1" d="M 708.66,708.66 H 0 V 0 h 708.66 v 708.66" fill="#f9d48e"/>
  <g fill="#fadca0">
   <path class="cls-2" d="m616.29 43.58-13.54-26.36-16.33 24.78z"/>
   <path class="cls-2" d="m472.58 43.06-11-24.56-15.89 21.73z"/>
   <path class="cls-2" d="m332.44 39.22-15.44-19.92-9.53 23.36z"/>
   <path class="cls-2" d="m191.62 40.43-18.1-22.89-11.05 27z"/>
   <path class="cls-2" d="m45.4 44.38-9.4-26.14-18.12 21.13z"/>
   <path class="cls-2" d="m658.54 73.49 13.76 26.1 16-24.79z"/>
   <path class="cls-2" d="m514 73.68 17.79 27.23 15.21-28.77z"/>
   <path class="cls-2" d="m371.14 76.89 21.14 23.26 10-29.79z"/>
   <path class="cls-2" d="m230.15 69.3 14 32.91 22.1-28.15z"/>
   <path class="cls-2" d="m87.28 74.69 18.52 25.87 13.58-28.77z"/>
   <path class="cls-2" d="m616.1 158.89-15.4-20.89-10.48 23.77z"/>
   <path class="cls-2" d="m473.94 161.64-13.22-24.64-14.89 23.65z"/>
   <path class="cls-2" d="m334.27 159.49-17.39-22.63-11.14 26.28z"/>
   <path class="cls-2" d="m190.27 158.22-16.9-20.36-9.28 24.78z"/>
   <path class="cls-2" d="m46.27 161.79-11.63-24.26-15.3 22.13z"/>
   <path class="cls-2" d="m655.43 192.84 16.8 31.26 19.3-29.79z"/>
   <path class="cls-2" d="m514.92 190.33 13.73 34.18 23.35-28.46z"/>
   <path class="cls-2" d="m374.81 195.68 14.29 25.81 15.48-25.12z"/>
   <path class="cls-2" d="m225.71 197.27 23.55 26.55 11.91-33.42z"/>
   <path class="cls-2" d="m92.51 194.11 9.78 26.74 18.46-21.69z"/>
   <path class="cls-2" d="m616 280.8-13.56-24.9-15.04 24.1z"/>
   <path class="cls-2" d="m473.27 278.46-13.55-21.07-11.47 22.27z"/>
   <path class="cls-2" d="m333.64 277.2-17.26-20.37-9.12 25.1z"/>
   <path class="cls-2" d="m193.31 281-19.1-27.33-14.65 29.94z"/>
   <path class="cls-2" d="m48.94 285.16-13-31.82-21.57 26.76z"/>
   <path class="cls-2" d="m659.43 309.19 11.2 29.06 19.9-24z"/>
   <path class="cls-2" d="m512.93 314.33 20.69 24.18 11.06-29.85z"/>
   <path class="cls-2" d="m374.45 309.77 13.67 29 18.68-26z"/>
   <path class="cls-2" d="m230.7 314 16.75 23.39 12.12-26.09z"/>
   <path class="cls-2" d="m89.07 309.41 14.18 29.76 19.15-26.83z"/>
   <path class="cls-2" d="m615.49 396.74-13.06-24.26-14.64 23.35z"/>
   <path class="cls-2" d="m474.51 395.63-14.77-23.08-12.74 24.26z"/>
   <path class="cls-2" d="m338 398.55-20.57-30-16.43 32.45z"/>
   <path class="cls-2" d="m193.61 398.28-18.93-29-16.24 30.58z"/>
   <path class="cls-2" d="m52.89 398.83-20.06-30.29-16.92 32.15z"/>
   <path class="cls-2" d="m657.72 427.27 13.87 29.3 18.86-26.36z"/>
   <path class="cls-2" d="m514.6 424.34 14.27 34.13 23.13-28.91z"/>
   <path class="cls-2" d="m371.24 428.87 19 28.55 15.81-30.42z"/>
   <path class="cls-2" d="m231.05 430 15.38 25.53 14.72-25.91z"/>
   <path class="cls-2" d="m86.52 426.35 17.41 32 19.73-30.66z"/>
   <path class="cls-2" d="m619.13 513-19.83-22.21-9.65 28.21z"/>
   <path class="cls-2" d="m473.9 515.47-13.46-23.88-14.09 23.51z"/>
   <path class="cls-2" d="m331.12 514.26-12.65-21.59-12.38 21.74z"/>
   <path class="cls-2" d="m196.27 516.2-23.35-28.78-14 34.3z"/>
   <path class="cls-2" d="m47.87 513-15.7-20.65-10.09 23.89z"/>
   <path class="cls-2" d="m659.1 548.86 12.51 27 17.39-24.13z"/>
   <path class="cls-2" d="m510.47 550.82 23.3 27.72 13.1-33.76z"/>
   <path class="cls-2" d="m375.08 554.7 16.43 19 8.27-23.7z"/>
   <path class="cls-2" d="m225.78 551.26 23.26 27 12.46-33.39z"/>
   <path class="cls-2" d="m92.57 547.69 9.3 27.76 19.61-21.73z"/>
   <path class="cls-2" d="m617.63 638.24-12.63-34.24-24 27.52z"/>
   <path class="cls-2" d="m477.31 632.14-18.05-26.33-14.26 28.59z"/>
   <path class="cls-2" d="m333.41 632.86-14.56-26.2-15.71 25.52z"/>
   <path class="cls-2" d="m189.79 635-12.66-29-19.2 25.2z"/>
   <path class="cls-2" d="m47.29 633.55-12.4-26.55-17 23.83z"/>
   <path class="cls-2" d="m656.34 667.16 16.77 27.47 15.85-28z"/>
   <path class="cls-2" d="m514.16 670.23 19 23.35 11-28z"/>
   <path class="cls-2" d="m371.79 664.69 17 31.51 19.43-30.06z"/>
   <path class="cls-2" d="m231.48 663.53 12.35 31.71 21.78-26.14z"/>
   <path class="cls-2" d="m90.14 667.43 13.88 26 15.85-24.85z"/>
   <path class="cls-2" d="m593.74 11.82-16.39 40.34 44.2-7zm0.42 2.72 24.7 29.64-39.25 6.19 14.55-35.83"/>
   <path class="cls-2" d="m467.44 12.16-27.44 24.93 36.13 10.91-8.69-35.88zm-0.82 2.65 7.55 31.19-31.37-9.55 23.82-21.64"/>
   <path class="cls-2" d="m313 14.1-8.73 29.25 30-7.25zm0.67 2.73 17.9 18.47-25.27 6.09 7.34-24.56"/>
   <path class="cls-2" d="m182.21 14.37-18.89 29 35.21 1.63zm-0.13 2.79 14 26.28-30.22-1.44 16.22-24.88"/>
   <path class="cls-2" d="m38 14.52-19.37 24.05 30.89 4.56zm-0.41 2.78 9.67 24.07-26-3.84 16.36-20.23"/>
   <path class="cls-2" d="m655 66.89 14.58 38.36 26.95-31zm2.21 1.83 36.61 6.44-23.76 27.37-12.82-33.81"/>
   <path class="cls-2" d="m551.15 67.36-40.91 5.64 25.2 31.42 15.71-37zm-2.28 1.74-13.81 32.55-22.15-27.65 36-4.94"/>
   <path class="cls-2" d="m406.36 65.93-35.65 15.61 31.13 22.09zm-1.7 2.29-4 32.88-27.08-19.26 31.08-13.62"/>
   <path class="cls-2" d="m264.81 68.42-43.76 0.21 21.95 36.42zm-2.5 1.43-19.31 32.44-19.45-32.29 38.76-0.19"/>
   <path class="cls-2" d="m119.74 67.12-41.26 5 24.89 32zm-2.3 1.7-14.44 32.55-21.87-28.18 36.31-4.37"/>
   <path class="cls-2" d="m601.65 138.64-8.65 29.48 30.2-7.47zm0.68 2.72 18.12 18.51-25.4 6.28 7.28-24.79"/>
   <path class="cls-2" d="m460.12 132.92-17.62 37.46 42.24-4.25zm0.27 2.74 21.73 29.34-37.28 3.75 15.55-33.06"/>
   <path class="cls-2" d="m308.42 130.63-10.53 37.37 38.51-10.18zm0.72 2.68 24.48 23.79-33.69 8.9 9.21-32.7"/>
   <path class="cls-2" d="m169.5 136.64-9.86 31.55 32.78-7.52-22.92-24zm0.63 2.72 19.55 20.49-28 6.41 8.4-26.9"/>
   <path class="cls-2" d="m42.68 133.08-27.92 27.86 39.08 9.82zm-0.68 2.68 9.78 33-34.24-8.6 24.46-24.4"/>
   <path class="cls-2" d="m645.45 192.08 22.66 39.5 24.33-38.58zm2.48 1.47 42 0.84-21.73 34.44-20.24-35.28"/>
   <path class="cls-2" d="m505.79 185.22 16.84 46.53 33.56-36.75zm2.19 1.87 45.46 8.83-30.27 33.14-15.19-42"/>
   <path class="cls-2" d="m400 191.28-32.68 0.84 17 27.35zm-2.44 1.48-13.26 23.91-14.46-23.2 27.73-0.71"/>
   <path class="cls-2" d="m261.05 188.11-35.33 12.07 27.88 23.75zm-1.9 2.14-6.45 31.05-24.16-20.59 30.61-10.46"/>
   <path class="cls-2" d="m88.84 187.25 17 35.91 23.67-32.25zm2.34 1.64 35.67 3.21-20.77 28.31-14.9-31.52"/>
   <path class="cls-2" d="m608.82 250.71-19.22 27.5 34 2.6zm-0.21 2.78 12.62 25.72-29.05-2.21 16.43-23.49"/>
   <path class="cls-2" d="m464.76 254.32-20.31 29.77 36.67 2.42zm-0.18 2.77 14.15 27.84-31.73-2.09 17.56-25.75"/>
   <path class="cls-2" d="m320.19 258.33-7.87 29.17 29.52-8zm0.73 2.7 18.16 17.77-24.75 6.69 6.59-24.49"/>
   <path class="cls-2" d="m166.34 247.52-13.58 40 42.5-9.08zm0.58 2.7 25.59 27.33-37.6 8.05 12-35.38"/>
   <path class="cls-2" d="m32.24 245.15-26.72 37.18 47 3.63zm-0.24 2.74 18.07 36.47-41.93-3.25 23.86-33.22"/>
   <path class="cls-2" d="m652.51 305.07 13.59 35 24.35-28.78zm2.22 1.8 33 5.43-21.19 25-11.83-30.47"/>
   <path class="cls-2" d="m546.5 297.48-44.89 14.52 34.85 30 10-44.49zm-1.93 2.11-9 39.77-31.14-26.78 40.12-13"/>
   <path class="cls-2" d="m364.59 306.53 21 37.61 23.41-36.38zm2.46 1.48 39.39 1.1-20.74 32.28-18.65-33.39"/>
   <path class="cls-2" d="m259.11 302.13-39.34 6.22 25 29.88zm-2.23 1.79-12.53 31.58-21.88-26.14 34.41-5.44"/>
   <path class="cls-2" d="m87.09 306.35 19.7 39.52 25.73-36.06zm2.38 1.65 40.43 3-22.9 32.13-17.53-35.13"/>
   <path class="cls-2" d="m601.33 366.57-21.44 31.93 39.26 2.09zm-0.15 2.77 15.56 29.66-34.28-1.83 18.72-27.87"/>
   <path class="cls-2" d="m462.83 367.08-18.1 33.05 38.52-1.3zm0.1 2.77 17.78 27.65-33.54 1.13 15.76-28.78"/>
   <path class="cls-2" d="m313.85 365.76-13.85 49.09 51.08-14-37.18-35.14zm0.73 2.64 33.64 31.79-46.22 12.63 12.59-44.42"/>
   <path class="cls-2" d="m176.74 359.84-22.74 45.94 53-4.44-30.27-41.5zm0.23 2.72 27.41 37.58-48 4 20.62-41.58"/>
   <path class="cls-2" d="m27.48 362.79-20.08 45.69 51.31-6.64zm0.35 2.71 28.17 35.26-46.32 6 18.15-41.26"/>
   <path class="cls-2" d="m649.88 421.14 19.06 40.07 26.53-35.76zm2.35 1.64 40.6 3.85-23.62 31.84-17-35.69"/>
   <path class="cls-2" d="m510.89 416.2 10.51 48.16 38-31.85zm1.92 2.14 43.69 14.71-34.22 28.72-9.47-43.43"/>
   <path class="cls-2" d="m369.8 427 21.83 36.85 22.2-36.56-44-0.29zm2.5 1.43 39 0.26-19.67 32.4-19.33-32.68"/>
   <path class="cls-2" d="m229.12 422.7 16.34 31.76 20-29.57zm2.4 1.56 31.4 1.89-17.29 25.54-14.11-27.43"/>
   <path class="cls-2" d="m84.62 420.37 18.85 40.27 26.74-35.58zm2.38 1.63 40.61 4.18-23.82 31.69-16.79-35.87"/>
   <path class="cls-2" d="m598.6 486.87-18.13 32.13 37.73-0.65-19.6-31.46zm0.06 2.78 17 27.31-32.76 0.56 15.74-27.87"/>
   <path class="cls-2" d="m463.87 490.07-18.68 26.41 32.71 2.73zm-0.23 2.78 11.9 24.74-27.76-2.32 15.86-22.42"/>
   <path class="cls-2" d="m322.46 491.23-17.89 22.2 28.4 4.3zm-0.46 2.77 8.7 22-23.52-3.57 14.82-18.43"/>
   <path class="cls-2" d="m172.27 481.29-25.4 48.57 57-3.36zm0.17 2.72 28.86 41.23-52 3.06 23.14-44.3"/>
   <path class="cls-2" d="m29.32 487.49-16.69 32.17 37-1.92zm0.15 2.78 17.53 26.18-32 1.66 14.44-27.84"/>
   <path class="cls-2" d="m658.65 541 17.29 36.76 24.26-32.76zm2.34 1.65 36.58 3.52-21.36 28.83-15.21-32.33"/>
   <path class="cls-2" d="m512.19 545 18.38 31.92 19.17-31.43zm2.47 1.45 32.58 0.43-16.64 27.22-15.94-27.69"/>
   <path class="cls-2" d="m402.61 547.62-37.84 2.73 21.53 30.58zm-2.36 1.59-14.17 28.94-18.71-26.57 32.88-2.37"/>
   <path class="cls-2" d="m265.48 542.21-47.48 5.46 28.54 36.7zm-2.32 1.69-17 37.74-25.55-32.85 42.52-4.89"/>
   <path class="cls-2" d="m87.3 542 7.09 33 25.55-22.23zm1.91 2.12 27.92 9.2-21.86 19-6.06-28.23"/>
   <path class="cls-2" d="m598.73 598-27.12 44.29 53.6-0.06zm0 2.74 24 40.07-48.57 0.06 24.58-40.13"/>
   <path class="cls-2" d="m464.49 600.21-19.89 36.79 43-1.8-23.08-35zm0.12 2.75 20.4 30.9-38 1.59 17.6-32.45"/>
   <path class="cls-2" d="m319.11 607.37-12.35 31.63 34.05-5.54zm0.44 2.75 18.58 22.3-29.13 4.74 10.57-27"/>
   <path class="cls-2" d="m178.62 599.74-25.29 40 48.68 0.84zm-0.06 2.75 21 36.59-43.66-0.75 22.68-35.84"/>
   <path class="cls-2" d="m40 604.57-19.25 26.75 33.31 3zm-0.25 2.78 12 25.32-28.37-2.54 16.38-22.78"/>
   <path class="cls-2" d="m648.64 660.23 18.87 43 29.22-36.74zm2.36 1.77 43.11 5.63-26.19 32.93-16.92-38.56"/>
   <path class="cls-2" d="m541.73 657.89-41.73 12.63 31.67 28.48zm-2 2.07-8.9 36.38-28-25.19 36.93-11.15"/>
   <path class="cls-2" d="m377.61 661.9 10.28 34.72 25.5-25.7zm2.06 2 31 7.79-22.07 22.25-8.9-30"/>
   <path class="cls-2" d="m217.7 663.73 24.61 42.11 26-41.67zm2.48 1.44 45.58 0.39-23.41 37.54-22.17-37.93"/>
   <path class="cls-2" d="m96.45 664.8 10.81 29.92 20.9-24zm2.17 1.85 26.84 5-17.68 20.35-9.16-25.32"/>
  </g>
 </g>
 <g transform="translate(0,708.66)">
  <path class="cls-1" d="M 708.66,708.66 H 0 V 0 h 708.66 v 708.66" fill="#f9d48e"/>
  <g fill="#fadca0">
   <path class="cls-2" d="m616.29 43.58-13.54-26.36-16.33 24.78z"/>
   <path class="cls-2" d="m472.58 43.06-11-24.56-15.89 21.73z"/>
   <path class="cls-2" d="m332.44 39.22-15.44-19.92-9.53 23.36z"/>
   <path class="cls-2" d="m191.62 40.43-18.1-22.89-11.05 27z"/>
   <path class="cls-2" d="m45.4 44.38-9.4-26.14-18.12 21.13z"/>
   <path class="cls-2" d="m658.54 73.49 13.76 26.1 16-24.79z"/>
   <path class="cls-2" d="m514 73.68 17.79 27.23 15.21-28.77z"/>
   <path class="cls-2" d="m371.14 76.89 21.14 23.26 10-29.79z"/>
   <path class="cls-2" d="m230.15 69.3 14 32.91 22.1-28.15z"/>
   <path class="cls-2" d="m87.28 74.69 18.52 25.87 13.58-28.77z"/>
   <path class="cls-2" d="m616.1 158.89-15.4-20.89-10.48 23.77z"/>
   <path class="cls-2" d="m473.94 161.64-13.22-24.64-14.89 23.65z"/>
   <path class="cls-2" d="m334.27 159.49-17.39-22.63-11.14 26.28z"/>
   <path class="cls-2" d="m190.27 158.22-16.9-20.36-9.28 24.78z"/>
   <path class="cls-2" d="m46.27 161.79-11.63-24.26-15.3 22.13z"/>
   <path class="cls-2" d="m655.43 192.84 16.8 31.26 19.3-29.79z"/>
   <path class="cls-2" d="m514.92 190.33 13.73 34.18 23.35-28.46z"/>
   <path class="cls-2" d="m374.81 195.68 14.29 25.81 15.48-25.12z"/>
   <path class="cls-2" d="m225.71 197.27 23.55 26.55 11.91-33.42z"/>
   <path class="cls-2" d="m92.51 194.11 9.78 26.74 18.46-21.69z"/>
   <path class="cls-2" d="m616 280.8-13.56-24.9-15.04 24.1z"/>
   <path class="cls-2" d="m473.27 278.46-13.55-21.07-11.47 22.27z"/>
   <path class="cls-2" d="m333.64 277.2-17.26-20.37-9.12 25.1z"/>
   <path class="cls-2" d="m193.31 281-19.1-27.33-14.65 29.94z"/>
   <path class="cls-2" d="m48.94 285.16-13-31.82-21.57 26.76z"/>
   <path class="cls-2" d="m659.43 309.19 11.2 29.06 19.9-24z"/>
   <path class="cls-2" d="m512.93 314.33 20.69 24.18 11.06-29.85z"/>
   <path class="cls-2" d="m374.45 309.77 13.67 29 18.68-26z"/>
   <path class="cls-2" d="m230.7 314 16.75 23.39 12.12-26.09z"/>
   <path class="cls-2" d="m89.07 309.41 14.18 29.76 19.15-26.83z"/>
   <path class="cls-2" d="m615.49 396.74-13.06-24.26-14.64 23.35z"/>
   <path class="cls-2" d="m474.51 395.63-14.77-23.08-12.74 24.26z"/>
   <path class="cls-2" d="m338 398.55-20.57-30-16.43 32.45z"/>
   <path class="cls-2" d="m193.61 398.28-18.93-29-16.24 30.58z"/>
   <path class="cls-2" d="m52.89 398.83-20.06-30.29-16.92 32.15z"/>
   <path class="cls-2" d="m657.72 427.27 13.87 29.3 18.86-26.36z"/>
   <path class="cls-2" d="m514.6 424.34 14.27 34.13 23.13-28.91z"/>
   <path class="cls-2" d="m371.24 428.87 19 28.55 15.81-30.42z"/>
   <path class="cls-2" d="m231.05 430 15.38 25.53 14.72-25.91z"/>
   <path class="cls-2" d="m86.52 426.35 17.41 32 19.73-30.66z"/>
   <path class="cls-2" d="m619.13 513-19.83-22.21-9.65 28.21z"/>
   <path class="cls-2" d="m473.9 515.47-13.46-23.88-14.09 23.51z"/>
   <path class="cls-2" d="m331.12 514.26-12.65-21.59-12.38 21.74z"/>
   <path class="cls-2" d="m196.27 516.2-23.35-28.78-14 34.3z"/>
   <path class="cls-2" d="m47.87 513-15.7-20.65-10.09 23.89z"/>
   <path class="cls-2" d="m659.1 548.86 12.51 27 17.39-24.13z"/>
   <path class="cls-2" d="m510.47 550.82 23.3 27.72 13.1-33.76z"/>
   <path class="cls-2" d="m375.08 554.7 16.43 19 8.27-23.7z"/>
   <path class="cls-2" d="m225.78 551.26 23.26 27 12.46-33.39z"/>
   <path class="cls-2" d="m92.57 547.69 9.3 27.76 19.61-21.73z"/>
   <path class="cls-2" d="m617.63 638.24-12.63-34.24-24 27.52z"/>
   <path class="cls-2" d="m477.31 632.14-18.05-26.33-14.26 28.59z"/>
   <path class="cls-2" d="m333.41 632.86-14.56-26.2-15.71 25.52z"/>
   <path class="cls-2" d="m189.79 635-12.66-29-19.2 25.2z"/>
   <path class="cls-2" d="m47.29 633.55-12.4-26.55-17 23.83z"/>
   <path class="cls-2" d="m656.34 667.16 16.77 27.47 15.85-28z"/>
   <path class="cls-2" d="m514.16 670.23 19 23.35 11-28z"/>
   <path class="cls-2" d="m371.79 664.69 17 31.51 19.43-30.06z"/>
   <path class="cls-2" d="m231.48 663.53 12.35 31.71 21.78-26.14z"/>
   <path class="cls-2" d="m90.14 667.43 13.88 26 15.85-24.85z"/>
   <path class="cls-2" d="m593.74 11.82-16.39 40.34 44.2-7zm0.42 2.72 24.7 29.64-39.25 6.19 14.55-35.83"/>
   <path class="cls-2" d="m467.44 12.16-27.44 24.93 36.13 10.91-8.69-35.88zm-0.82 2.65 7.55 31.19-31.37-9.55 23.82-21.64"/>
   <path class="cls-2" d="m313 14.1-8.73 29.25 30-7.25zm0.67 2.73 17.9 18.47-25.27 6.09 7.34-24.56"/>
   <path class="cls-2" d="m182.21 14.37-18.89 29 35.21 1.63zm-0.13 2.79 14 26.28-30.22-1.44 16.22-24.88"/>
   <path class="cls-2" d="m38 14.52-19.37 24.05 30.89 4.56zm-0.41 2.78 9.67 24.07-26-3.84 16.36-20.23"/>
   <path class="cls-2" d="m655 66.89 14.58 38.36 26.95-31zm2.21 1.83 36.61 6.44-23.76 27.37-12.82-33.81"/>
   <path class="cls-2" d="m551.15 67.36-40.91 5.64 25.2 31.42 15.71-37zm-2.28 1.74-13.81 32.55-22.15-27.65 36-4.94"/>
   <path class="cls-2" d="m406.36 65.93-35.65 15.61 31.13 22.09zm-1.7 2.29-4 32.88-27.08-19.26 31.08-13.62"/>
   <path class="cls-2" d="m264.81 68.42-43.76 0.21 21.95 36.42zm-2.5 1.43-19.31 32.44-19.45-32.29 38.76-0.19"/>
   <path class="cls-2" d="m119.74 67.12-41.26 5 24.89 32zm-2.3 1.7-14.44 32.55-21.87-28.18 36.31-4.37"/>
   <path class="cls-2" d="m601.65 138.64-8.65 29.48 30.2-7.47zm0.68 2.72 18.12 18.51-25.4 6.28 7.28-24.79"/>
   <path class="cls-2" d="m460.12 132.92-17.62 37.46 42.24-4.25zm0.27 2.74 21.73 29.34-37.28 3.75 15.55-33.06"/>
   <path class="cls-2" d="m308.42 130.63-10.53 37.37 38.51-10.18zm0.72 2.68 24.48 23.79-33.69 8.9 9.21-32.7"/>
   <path class="cls-2" d="m169.5 136.64-9.86 31.55 32.78-7.52-22.92-24zm0.63 2.72 19.55 20.49-28 6.41 8.4-26.9"/>
   <path class="cls-2" d="m42.68 133.08-27.92 27.86 39.08 9.82zm-0.68 2.68 9.78 33-34.24-8.6 24.46-24.4"/>
   <path class="cls-2" d="m645.45 192.08 22.66 39.5 24.33-38.58zm2.48 1.47 42 0.84-21.73 34.44-20.24-35.28"/>
   <path class="cls-2" d="m505.79 185.22 16.84 46.53 33.56-36.75zm2.19 1.87 45.46 8.83-30.27 33.14-15.19-42"/>
   <path class="cls-2" d="m400 191.28-32.68 0.84 17 27.35zm-2.44 1.48-13.26 23.91-14.46-23.2 27.73-0.71"/>
   <path class="cls-2" d="m261.05 188.11-35.33 12.07 27.88 23.75zm-1.9 2.14-6.45 31.05-24.16-20.59 30.61-10.46"/>
   <path class="cls-2" d="m88.84 187.25 17 35.91 23.67-32.25zm2.34 1.64 35.67 3.21-20.77 28.31-14.9-31.52"/>
   <path class="cls-2" d="m608.82 250.71-19.22 27.5 34 2.6zm-0.21 2.78 12.62 25.72-29.05-2.21 16.43-23.49"/>
   <path class="cls-2" d="m464.76 254.32-20.31 29.77 36.67 2.42zm-0.18 2.77 14.15 27.84-31.73-2.09 17.56-25.75"/>
   <path class="cls-2" d="m320.19 258.33-7.87 29.17 29.52-8zm0.73 2.7 18.16 17.77-24.75 6.69 6.59-24.49"/>
   <path class="cls-2" d="m166.34 247.52-13.58 40 42.5-9.08zm0.58 2.7 25.59 27.33-37.6 8.05 12-35.38"/>
   <path class="cls-2" d="m32.24 245.15-26.72 37.18 47 3.63zm-0.24 2.74 18.07 36.47-41.93-3.25 23.86-33.22"/>
   <path class="cls-2" d="m652.51 305.07 13.59 35 24.35-28.78zm2.22 1.8 33 5.43-21.19 25-11.83-30.47"/>
   <path class="cls-2" d="m546.5 297.48-44.89 14.52 34.85 30 10-44.49zm-1.93 2.11-9 39.77-31.14-26.78 40.12-13"/>
   <path class="cls-2" d="m364.59 306.53 21 37.61 23.41-36.38zm2.46 1.48 39.39 1.1-20.74 32.28-18.65-33.39"/>
   <path class="cls-2" d="m259.11 302.13-39.34 6.22 25 29.88zm-2.23 1.79-12.53 31.58-21.88-26.14 34.41-5.44"/>
   <path class="cls-2" d="m87.09 306.35 19.7 39.52 25.73-36.06zm2.38 1.65 40.43 3-22.9 32.13-17.53-35.13"/>
   <path class="cls-2" d="m601.33 366.57-21.44 31.93 39.26 2.09zm-0.15 2.77 15.56 29.66-34.28-1.83 18.72-27.87"/>
   <path class="cls-2" d="m462.83 367.08-18.1 33.05 38.52-1.3zm0.1 2.77 17.78 27.65-33.54 1.13 15.76-28.78"/>
   <path class="cls-2" d="m313.85 365.76-13.85 49.09 51.08-14-37.18-35.14zm0.73 2.64 33.64 31.79-46.22 12.63 12.59-44.42"/>
   <path class="cls-2" d="m176.74 359.84-22.74 45.94 53-4.44-30.27-41.5zm0.23 2.72 27.41 37.58-48 4 20.62-41.58"/>
   <path class="cls-2" d="m27.48 362.79-20.08 45.69 51.31-6.64zm0.35 2.71 28.17 35.26-46.32 6 18.15-41.26"/>
   <path class="cls-2" d="m649.88 421.14 19.06 40.07 26.53-35.76zm2.35 1.64 40.6 3.85-23.62 31.84-17-35.69"/>
   <path class="cls-2" d="m510.89 416.2 10.51 48.16 38-31.85zm1.92 2.14 43.69 14.71-34.22 28.72-9.47-43.43"/>
   <path class="cls-2" d="m369.8 427 21.83 36.85 22.2-36.56-44-0.29zm2.5 1.43 39 0.26-19.67 32.4-19.33-32.68"/>
   <path class="cls-2" d="m229.12 422.7 16.34 31.76 20-29.57zm2.4 1.56 31.4 1.89-17.29 25.54-14.11-27.43"/>
   <path class="cls-2" d="m84.62 420.37 18.85 40.27 26.74-35.58zm2.38 1.63 40.61 4.18-23.82 31.69-16.79-35.87"/>
   <path class="cls-2" d="m598.6 486.87-18.13 32.13 37.73-0.65-19.6-31.46zm0.06 2.78 17 27.31-32.76 0.56 15.74-27.87"/>
   <path class="cls-2" d="m463.87 490.07-18.68 26.41 32.71 2.73zm-0.23 2.78 11.9 24.74-27.76-2.32 15.86-22.42"/>
   <path class="cls-2" d="m322.46 491.23-17.89 22.2 28.4 4.3zm-0.46 2.77 8.7 22-23.52-3.57 14.82-18.43"/>
   <path class="cls-2" d="m172.27 481.29-25.4 48.57 57-3.36zm0.17 2.72 28.86 41.23-52 3.06 23.14-44.3"/>
   <path class="cls-2" d="m29.32 487.49-16.69 32.17 37-1.92zm0.15 2.78 17.53 26.18-32 1.66 14.44-27.84"/>
   <path class="cls-2" d="m658.65 541 17.29 36.76 24.26-32.76zm2.34 1.65 36.58 3.52-21.36 28.83-15.21-32.33"/>
   <path class="cls-2" d="m512.19 545 18.38 31.92 19.17-31.43zm2.47 1.45 32.58 0.43-16.64 27.22-15.94-27.69"/>
   <path class="cls-2" d="m402.61 547.62-37.84 2.73 21.53 30.58zm-2.36 1.59-14.17 28.94-18.71-26.57 32.88-2.37"/>
   <path class="cls-2" d="m265.48 542.21-47.48 5.46 28.54 36.7zm-2.32 1.69-17 37.74-25.55-32.85 42.52-4.89"/>
   <path class="cls-2" d="m87.3 542 7.09 33 25.55-22.23zm1.91 2.12 27.92 9.2-21.86 19-6.06-28.23"/>
   <path class="cls-2" d="m598.73 598-27.12 44.29 53.6-0.06zm0 2.74 24 40.07-48.57 0.06 24.58-40.13"/>
   <path class="cls-2" d="m464.49 600.21-19.89 36.79 43-1.8-23.08-35zm0.12 2.75 20.4 30.9-38 1.59 17.6-32.45"/>
   <path class="cls-2" d="m319.11 607.37-12.35 31.63 34.05-5.54zm0.44 2.75 18.58 22.3-29.13 4.74 10.57-27"/>
   <path class="cls-2" d="m178.62 599.74-25.29 40 48.68 0.84zm-0.06 2.75 21 36.59-43.66-0.75 22.68-35.84"/>
   <path class="cls-2" d="m40 604.57-19.25 26.75 33.31 3zm-0.25 2.78 12 25.32-28.37-2.54 16.38-22.78"/>
   <path class="cls-2" d="m648.64 660.23 18.87 43 29.22-36.74zm2.36 1.77 43.11 5.63-26.19 32.93-16.92-38.56"/>
   <path class="cls-2" d="m541.73 657.89-41.73 12.63 31.67 28.48zm-2 2.07-8.9 36.38-28-25.19 36.93-11.15"/>
   <path class="cls-2" d="m377.61 661.9 10.28 34.72 25.5-25.7zm2.06 2 31 7.79-22.07 22.25-8.9-30"/>
   <path class="cls-2" d="m217.7 663.73 24.61 42.11 26-41.67zm2.48 1.44 45.58 0.39-23.41 37.54-22.17-37.93"/>
   <path class="cls-2" d="m96.45 664.8 10.81 29.92 20.9-24zm2.17 1.85 26.84 5-17.68 20.35-9.16-25.32"/>
  </g>
 </g>
 <g transform="translate(1417.3 708.66)">
  <path class="cls-1" d="M 708.66,708.66 H 0 V 0 h 708.66 v 708.66" fill="#f9d48e"/>
  <g fill="#fadca0">
   <path class="cls-2" d="m616.29 43.58-13.54-26.36-16.33 24.78z"/>
   <path class="cls-2" d="m472.58 43.06-11-24.56-15.89 21.73z"/>
   <path class="cls-2" d="m332.44 39.22-15.44-19.92-9.53 23.36z"/>
   <path class="cls-2" d="m191.62 40.43-18.1-22.89-11.05 27z"/>
   <path class="cls-2" d="m45.4 44.38-9.4-26.14-18.12 21.13z"/>
   <path class="cls-2" d="m658.54 73.49 13.76 26.1 16-24.79z"/>
   <path class="cls-2" d="m514 73.68 17.79 27.23 15.21-28.77z"/>
   <path class="cls-2" d="m371.14 76.89 21.14 23.26 10-29.79z"/>
   <path class="cls-2" d="m230.15 69.3 14 32.91 22.1-28.15z"/>
   <path class="cls-2" d="m87.28 74.69 18.52 25.87 13.58-28.77z"/>
   <path class="cls-2" d="m616.1 158.89-15.4-20.89-10.48 23.77z"/>
   <path class="cls-2" d="m473.94 161.64-13.22-24.64-14.89 23.65z"/>
   <path class="cls-2" d="m334.27 159.49-17.39-22.63-11.14 26.28z"/>
   <path class="cls-2" d="m190.27 158.22-16.9-20.36-9.28 24.78z"/>
   <path class="cls-2" d="m46.27 161.79-11.63-24.26-15.3 22.13z"/>
   <path class="cls-2" d="m655.43 192.84 16.8 31.26 19.3-29.79z"/>
   <path class="cls-2" d="m514.92 190.33 13.73 34.18 23.35-28.46z"/>
   <path class="cls-2" d="m374.81 195.68 14.29 25.81 15.48-25.12z"/>
   <path class="cls-2" d="m225.71 197.27 23.55 26.55 11.91-33.42z"/>
   <path class="cls-2" d="m92.51 194.11 9.78 26.74 18.46-21.69z"/>
   <path class="cls-2" d="m616 280.8-13.56-24.9-15.04 24.1z"/>
   <path class="cls-2" d="m473.27 278.46-13.55-21.07-11.47 22.27z"/>
   <path class="cls-2" d="m333.64 277.2-17.26-20.37-9.12 25.1z"/>
   <path class="cls-2" d="m193.31 281-19.1-27.33-14.65 29.94z"/>
   <path class="cls-2" d="m48.94 285.16-13-31.82-21.57 26.76z"/>
   <path class="cls-2" d="m659.43 309.19 11.2 29.06 19.9-24z"/>
   <path class="cls-2" d="m512.93 314.33 20.69 24.18 11.06-29.85z"/>
   <path class="cls-2" d="m374.45 309.77 13.67 29 18.68-26z"/>
   <path class="cls-2" d="m230.7 314 16.75 23.39 12.12-26.09z"/>
   <path class="cls-2" d="m89.07 309.41 14.18 29.76 19.15-26.83z"/>
   <path class="cls-2" d="m615.49 396.74-13.06-24.26-14.64 23.35z"/>
   <path class="cls-2" d="m474.51 395.63-14.77-23.08-12.74 24.26z"/>
   <path class="cls-2" d="m338 398.55-20.57-30-16.43 32.45z"/>
   <path class="cls-2" d="m193.61 398.28-18.93-29-16.24 30.58z"/>
   <path class="cls-2" d="m52.89 398.83-20.06-30.29-16.92 32.15z"/>
   <path class="cls-2" d="m657.72 427.27 13.87 29.3 18.86-26.36z"/>
   <path class="cls-2" d="m514.6 424.34 14.27 34.13 23.13-28.91z"/>
   <path class="cls-2" d="m371.24 428.87 19 28.55 15.81-30.42z"/>
   <path class="cls-2" d="m231.05 430 15.38 25.53 14.72-25.91z"/>
   <path class="cls-2" d="m86.52 426.35 17.41 32 19.73-30.66z"/>
   <path class="cls-2" d="m619.13 513-19.83-22.21-9.65 28.21z"/>
   <path class="cls-2" d="m473.9 515.47-13.46-23.88-14.09 23.51z"/>
   <path class="cls-2" d="m331.12 514.26-12.65-21.59-12.38 21.74z"/>
   <path class="cls-2" d="m196.27 516.2-23.35-28.78-14 34.3z"/>
   <path class="cls-2" d="m47.87 513-15.7-20.65-10.09 23.89z"/>
   <path class="cls-2" d="m659.1 548.86 12.51 27 17.39-24.13z"/>
   <path class="cls-2" d="m510.47 550.82 23.3 27.72 13.1-33.76z"/>
   <path class="cls-2" d="m375.08 554.7 16.43 19 8.27-23.7z"/>
   <path class="cls-2" d="m225.78 551.26 23.26 27 12.46-33.39z"/>
   <path class="cls-2" d="m92.57 547.69 9.3 27.76 19.61-21.73z"/>
   <path class="cls-2" d="m617.63 638.24-12.63-34.24-24 27.52z"/>
   <path class="cls-2" d="m477.31 632.14-18.05-26.33-14.26 28.59z"/>
   <path class="cls-2" d="m333.41 632.86-14.56-26.2-15.71 25.52z"/>
   <path class="cls-2" d="m189.79 635-12.66-29-19.2 25.2z"/>
   <path class="cls-2" d="m47.29 633.55-12.4-26.55-17 23.83z"/>
   <path class="cls-2" d="m656.34 667.16 16.77 27.47 15.85-28z"/>
   <path class="cls-2" d="m514.16 670.23 19 23.35 11-28z"/>
   <path class="cls-2" d="m371.79 664.69 17 31.51 19.43-30.06z"/>
   <path class="cls-2" d="m231.48 663.53 12.35 31.71 21.78-26.14z"/>
   <path class="cls-2" d="m90.14 667.43 13.88 26 15.85-24.85z"/>
   <path class="cls-2" d="m593.74 11.82-16.39 40.34 44.2-7zm0.42 2.72 24.7 29.64-39.25 6.19 14.55-35.83"/>
   <path class="cls-2" d="m467.44 12.16-27.44 24.93 36.13 10.91-8.69-35.88zm-0.82 2.65 7.55 31.19-31.37-9.55 23.82-21.64"/>
   <path class="cls-2" d="m313 14.1-8.73 29.25 30-7.25zm0.67 2.73 17.9 18.47-25.27 6.09 7.34-24.56"/>
   <path class="cls-2" d="m182.21 14.37-18.89 29 35.21 1.63zm-0.13 2.79 14 26.28-30.22-1.44 16.22-24.88"/>
   <path class="cls-2" d="m38 14.52-19.37 24.05 30.89 4.56zm-0.41 2.78 9.67 24.07-26-3.84 16.36-20.23"/>
   <path class="cls-2" d="m655 66.89 14.58 38.36 26.95-31zm2.21 1.83 36.61 6.44-23.76 27.37-12.82-33.81"/>
   <path class="cls-2" d="m551.15 67.36-40.91 5.64 25.2 31.42 15.71-37zm-2.28 1.74-13.81 32.55-22.15-27.65 36-4.94"/>
   <path class="cls-2" d="m406.36 65.93-35.65 15.61 31.13 22.09zm-1.7 2.29-4 32.88-27.08-19.26 31.08-13.62"/>
   <path class="cls-2" d="m264.81 68.42-43.76 0.21 21.95 36.42zm-2.5 1.43-19.31 32.44-19.45-32.29 38.76-0.19"/>
   <path class="cls-2" d="m119.74 67.12-41.26 5 24.89 32zm-2.3 1.7-14.44 32.55-21.87-28.18 36.31-4.37"/>
   <path class="cls-2" d="m601.65 138.64-8.65 29.48 30.2-7.47zm0.68 2.72 18.12 18.51-25.4 6.28 7.28-24.79"/>
   <path class="cls-2" d="m460.12 132.92-17.62 37.46 42.24-4.25zm0.27 2.74 21.73 29.34-37.28 3.75 15.55-33.06"/>
   <path class="cls-2" d="m308.42 130.63-10.53 37.37 38.51-10.18zm0.72 2.68 24.48 23.79-33.69 8.9 9.21-32.7"/>
   <path class="cls-2" d="m169.5 136.64-9.86 31.55 32.78-7.52-22.92-24zm0.63 2.72 19.55 20.49-28 6.41 8.4-26.9"/>
   <path class="cls-2" d="m42.68 133.08-27.92 27.86 39.08 9.82zm-0.68 2.68 9.78 33-34.24-8.6 24.46-24.4"/>
   <path class="cls-2" d="m645.45 192.08 22.66 39.5 24.33-38.58zm2.48 1.47 42 0.84-21.73 34.44-20.24-35.28"/>
   <path class="cls-2" d="m505.79 185.22 16.84 46.53 33.56-36.75zm2.19 1.87 45.46 8.83-30.27 33.14-15.19-42"/>
   <path class="cls-2" d="m400 191.28-32.68 0.84 17 27.35zm-2.44 1.48-13.26 23.91-14.46-23.2 27.73-0.71"/>
   <path class="cls-2" d="m261.05 188.11-35.33 12.07 27.88 23.75zm-1.9 2.14-6.45 31.05-24.16-20.59 30.61-10.46"/>
   <path class="cls-2" d="m88.84 187.25 17 35.91 23.67-32.25zm2.34 1.64 35.67 3.21-20.77 28.31-14.9-31.52"/>
   <path class="cls-2" d="m608.82 250.71-19.22 27.5 34 2.6zm-0.21 2.78 12.62 25.72-29.05-2.21 16.43-23.49"/>
   <path class="cls-2" d="m464.76 254.32-20.31 29.77 36.67 2.42zm-0.18 2.77 14.15 27.84-31.73-2.09 17.56-25.75"/>
   <path class="cls-2" d="m320.19 258.33-7.87 29.17 29.52-8zm0.73 2.7 18.16 17.77-24.75 6.69 6.59-24.49"/>
   <path class="cls-2" d="m166.34 247.52-13.58 40 42.5-9.08zm0.58 2.7 25.59 27.33-37.6 8.05 12-35.38"/>
   <path class="cls-2" d="m32.24 245.15-26.72 37.18 47 3.63zm-0.24 2.74 18.07 36.47-41.93-3.25 23.86-33.22"/>
   <path class="cls-2" d="m652.51 305.07 13.59 35 24.35-28.78zm2.22 1.8 33 5.43-21.19 25-11.83-30.47"/>
   <path class="cls-2" d="m546.5 297.48-44.89 14.52 34.85 30 10-44.49zm-1.93 2.11-9 39.77-31.14-26.78 40.12-13"/>
   <path class="cls-2" d="m364.59 306.53 21 37.61 23.41-36.38zm2.46 1.48 39.39 1.1-20.74 32.28-18.65-33.39"/>
   <path class="cls-2" d="m259.11 302.13-39.34 6.22 25 29.88zm-2.23 1.79-12.53 31.58-21.88-26.14 34.41-5.44"/>
   <path class="cls-2" d="m87.09 306.35 19.7 39.52 25.73-36.06zm2.38 1.65 40.43 3-22.9 32.13-17.53-35.13"/>
   <path class="cls-2" d="m601.33 366.57-21.44 31.93 39.26 2.09zm-0.15 2.77 15.56 29.66-34.28-1.83 18.72-27.87"/>
   <path class="cls-2" d="m462.83 367.08-18.1 33.05 38.52-1.3zm0.1 2.77 17.78 27.65-33.54 1.13 15.76-28.78"/>
   <path class="cls-2" d="m313.85 365.76-13.85 49.09 51.08-14-37.18-35.14zm0.73 2.64 33.64 31.79-46.22 12.63 12.59-44.42"/>
   <path class="cls-2" d="m176.74 359.84-22.74 45.94 53-4.44-30.27-41.5zm0.23 2.72 27.41 37.58-48 4 20.62-41.58"/>
   <path class="cls-2" d="m27.48 362.79-20.08 45.69 51.31-6.64zm0.35 2.71 28.17 35.26-46.32 6 18.15-41.26"/>
   <path class="cls-2" d="m649.88 421.14 19.06 40.07 26.53-35.76zm2.35 1.64 40.6 3.85-23.62 31.84-17-35.69"/>
   <path class="cls-2" d="m510.89 416.2 10.51 48.16 38-31.85zm1.92 2.14 43.69 14.71-34.22 28.72-9.47-43.43"/>
   <path class="cls-2" d="m369.8 427 21.83 36.85 22.2-36.56-44-0.29zm2.5 1.43 39 0.26-19.67 32.4-19.33-32.68"/>
   <path class="cls-2" d="m229.12 422.7 16.34 31.76 20-29.57zm2.4 1.56 31.4 1.89-17.29 25.54-14.11-27.43"/>
   <path class="cls-2" d="m84.62 420.37 18.85 40.27 26.74-35.58zm2.38 1.63 40.61 4.18-23.82 31.69-16.79-35.87"/>
   <path class="cls-2" d="m598.6 486.87-18.13 32.13 37.73-0.65-19.6-31.46zm0.06 2.78 17 27.31-32.76 0.56 15.74-27.87"/>
   <path class="cls-2" d="m463.87 490.07-18.68 26.41 32.71 2.73zm-0.23 2.78 11.9 24.74-27.76-2.32 15.86-22.42"/>
   <path class="cls-2" d="m322.46 491.23-17.89 22.2 28.4 4.3zm-0.46 2.77 8.7 22-23.52-3.57 14.82-18.43"/>
   <path class="cls-2" d="m172.27 481.29-25.4 48.57 57-3.36zm0.17 2.72 28.86 41.23-52 3.06 23.14-44.3"/>
   <path class="cls-2" d="m29.32 487.49-16.69 32.17 37-1.92zm0.15 2.78 17.53 26.18-32 1.66 14.44-27.84"/>
   <path class="cls-2" d="m658.65 541 17.29 36.76 24.26-32.76zm2.34 1.65 36.58 3.52-21.36 28.83-15.21-32.33"/>
   <path class="cls-2" d="m512.19 545 18.38 31.92 19.17-31.43zm2.47 1.45 32.58 0.43-16.64 27.22-15.94-27.69"/>
   <path class="cls-2" d="m402.61 547.62-37.84 2.73 21.53 30.58zm-2.36 1.59-14.17 28.94-18.71-26.57 32.88-2.37"/>
   <path class="cls-2" d="m265.48 542.21-47.48 5.46 28.54 36.7zm-2.32 1.69-17 37.74-25.55-32.85 42.52-4.89"/>
   <path class="cls-2" d="m87.3 542 7.09 33 25.55-22.23zm1.91 2.12 27.92 9.2-21.86 19-6.06-28.23"/>
   <path class="cls-2" d="m598.73 598-27.12 44.29 53.6-0.06zm0 2.74 24 40.07-48.57 0.06 24.58-40.13"/>
   <path class="cls-2" d="m464.49 600.21-19.89 36.79 43-1.8-23.08-35zm0.12 2.75 20.4 30.9-38 1.59 17.6-32.45"/>
   <path class="cls-2" d="m319.11 607.37-12.35 31.63 34.05-5.54zm0.44 2.75 18.58 22.3-29.13 4.74 10.57-27"/>
   <path class="cls-2" d="m178.62 599.74-25.29 40 48.68 0.84zm-0.06 2.75 21 36.59-43.66-0.75 22.68-35.84"/>
   <path class="cls-2" d="m40 604.57-19.25 26.75 33.31 3zm-0.25 2.78 12 25.32-28.37-2.54 16.38-22.78"/>
   <path class="cls-2" d="m648.64 660.23 18.87 43 29.22-36.74zm2.36 1.77 43.11 5.63-26.19 32.93-16.92-38.56"/>
   <path class="cls-2" d="m541.73 657.89-41.73 12.63 31.67 28.48zm-2 2.07-8.9 36.38-28-25.19 36.93-11.15"/>
   <path class="cls-2" d="m377.61 661.9 10.28 34.72 25.5-25.7zm2.06 2 31 7.79-22.07 22.25-8.9-30"/>
   <path class="cls-2" d="m217.7 663.73 24.61 42.11 26-41.67zm2.48 1.44 45.58 0.39-23.41 37.54-22.17-37.93"/>
   <path class="cls-2" d="m96.45 664.8 10.81 29.92 20.9-24zm2.17 1.85 26.84 5-17.68 20.35-9.16-25.32"/>
  </g>
 </g>
 <g transform="translate(708.66)">
  <path class="cls-1" d="M 708.66,708.66 H 0 V 0 h 708.66 v 708.66" fill="#f9d48e"/>
  <g fill="#fadca0">
   <path class="cls-2" d="m616.29 43.58-13.54-26.36-16.33 24.78z"/>
   <path class="cls-2" d="m472.58 43.06-11-24.56-15.89 21.73z"/>
   <path class="cls-2" d="m332.44 39.22-15.44-19.92-9.53 23.36z"/>
   <path class="cls-2" d="m191.62 40.43-18.1-22.89-11.05 27z"/>
   <path class="cls-2" d="m45.4 44.38-9.4-26.14-18.12 21.13z"/>
   <path class="cls-2" d="m658.54 73.49 13.76 26.1 16-24.79z"/>
   <path class="cls-2" d="m514 73.68 17.79 27.23 15.21-28.77z"/>
   <path class="cls-2" d="m371.14 76.89 21.14 23.26 10-29.79z"/>
   <path class="cls-2" d="m230.15 69.3 14 32.91 22.1-28.15z"/>
   <path class="cls-2" d="m87.28 74.69 18.52 25.87 13.58-28.77z"/>
   <path class="cls-2" d="m616.1 158.89-15.4-20.89-10.48 23.77z"/>
   <path class="cls-2" d="m473.94 161.64-13.22-24.64-14.89 23.65z"/>
   <path class="cls-2" d="m334.27 159.49-17.39-22.63-11.14 26.28z"/>
   <path class="cls-2" d="m190.27 158.22-16.9-20.36-9.28 24.78z"/>
   <path class="cls-2" d="m46.27 161.79-11.63-24.26-15.3 22.13z"/>
   <path class="cls-2" d="m655.43 192.84 16.8 31.26 19.3-29.79z"/>
   <path class="cls-2" d="m514.92 190.33 13.73 34.18 23.35-28.46z"/>
   <path class="cls-2" d="m374.81 195.68 14.29 25.81 15.48-25.12z"/>
   <path class="cls-2" d="m225.71 197.27 23.55 26.55 11.91-33.42z"/>
   <path class="cls-2" d="m92.51 194.11 9.78 26.74 18.46-21.69z"/>
   <path class="cls-2" d="m616 280.8-13.56-24.9-15.04 24.1z"/>
   <path class="cls-2" d="m473.27 278.46-13.55-21.07-11.47 22.27z"/>
   <path class="cls-2" d="m333.64 277.2-17.26-20.37-9.12 25.1z"/>
   <path class="cls-2" d="m193.31 281-19.1-27.33-14.65 29.94z"/>
   <path class="cls-2" d="m48.94 285.16-13-31.82-21.57 26.76z"/>
   <path class="cls-2" d="m659.43 309.19 11.2 29.06 19.9-24z"/>
   <path class="cls-2" d="m512.93 314.33 20.69 24.18 11.06-29.85z"/>
   <path class="cls-2" d="m374.45 309.77 13.67 29 18.68-26z"/>
   <path class="cls-2" d="m230.7 314 16.75 23.39 12.12-26.09z"/>
   <path class="cls-2" d="m89.07 309.41 14.18 29.76 19.15-26.83z"/>
   <path class="cls-2" d="m615.49 396.74-13.06-24.26-14.64 23.35z"/>
   <path class="cls-2" d="m474.51 395.63-14.77-23.08-12.74 24.26z"/>
   <path class="cls-2" d="m338 398.55-20.57-30-16.43 32.45z"/>
   <path class="cls-2" d="m193.61 398.28-18.93-29-16.24 30.58z"/>
   <path class="cls-2" d="m52.89 398.83-20.06-30.29-16.92 32.15z"/>
   <path class="cls-2" d="m657.72 427.27 13.87 29.3 18.86-26.36z"/>
   <path class="cls-2" d="m514.6 424.34 14.27 34.13 23.13-28.91z"/>
   <path class="cls-2" d="m371.24 428.87 19 28.55 15.81-30.42z"/>
   <path class="cls-2" d="m231.05 430 15.38 25.53 14.72-25.91z"/>
   <path class="cls-2" d="m86.52 426.35 17.41 32 19.73-30.66z"/>
   <path class="cls-2" d="m619.13 513-19.83-22.21-9.65 28.21z"/>
   <path class="cls-2" d="m473.9 515.47-13.46-23.88-14.09 23.51z"/>
   <path class="cls-2" d="m331.12 514.26-12.65-21.59-12.38 21.74z"/>
   <path class="cls-2" d="m196.27 516.2-23.35-28.78-14 34.3z"/>
   <path class="cls-2" d="m47.87 513-15.7-20.65-10.09 23.89z"/>
   <path class="cls-2" d="m659.1 548.86 12.51 27 17.39-24.13z"/>
   <path class="cls-2" d="m510.47 550.82 23.3 27.72 13.1-33.76z"/>
   <path class="cls-2" d="m375.08 554.7 16.43 19 8.27-23.7z"/>
   <path class="cls-2" d="m225.78 551.26 23.26 27 12.46-33.39z"/>
   <path class="cls-2" d="m92.57 547.69 9.3 27.76 19.61-21.73z"/>
   <path class="cls-2" d="m617.63 638.24-12.63-34.24-24 27.52z"/>
   <path class="cls-2" d="m477.31 632.14-18.05-26.33-14.26 28.59z"/>
   <path class="cls-2" d="m333.41 632.86-14.56-26.2-15.71 25.52z"/>
   <path class="cls-2" d="m189.79 635-12.66-29-19.2 25.2z"/>
   <path class="cls-2" d="m47.29 633.55-12.4-26.55-17 23.83z"/>
   <path class="cls-2" d="m656.34 667.16 16.77 27.47 15.85-28z"/>
   <path class="cls-2" d="m514.16 670.23 19 23.35 11-28z"/>
   <path class="cls-2" d="m371.79 664.69 17 31.51 19.43-30.06z"/>
   <path class="cls-2" d="m231.48 663.53 12.35 31.71 21.78-26.14z"/>
   <path class="cls-2" d="m90.14 667.43 13.88 26 15.85-24.85z"/>
   <path class="cls-2" d="m593.74 11.82-16.39 40.34 44.2-7zm0.42 2.72 24.7 29.64-39.25 6.19 14.55-35.83"/>
   <path class="cls-2" d="m467.44 12.16-27.44 24.93 36.13 10.91-8.69-35.88zm-0.82 2.65 7.55 31.19-31.37-9.55 23.82-21.64"/>
   <path class="cls-2" d="m313 14.1-8.73 29.25 30-7.25zm0.67 2.73 17.9 18.47-25.27 6.09 7.34-24.56"/>
   <path class="cls-2" d="m182.21 14.37-18.89 29 35.21 1.63zm-0.13 2.79 14 26.28-30.22-1.44 16.22-24.88"/>
   <path class="cls-2" d="m38 14.52-19.37 24.05 30.89 4.56zm-0.41 2.78 9.67 24.07-26-3.84 16.36-20.23"/>
   <path class="cls-2" d="m655 66.89 14.58 38.36 26.95-31zm2.21 1.83 36.61 6.44-23.76 27.37-12.82-33.81"/>
   <path class="cls-2" d="m551.15 67.36-40.91 5.64 25.2 31.42 15.71-37zm-2.28 1.74-13.81 32.55-22.15-27.65 36-4.94"/>
   <path class="cls-2" d="m406.36 65.93-35.65 15.61 31.13 22.09zm-1.7 2.29-4 32.88-27.08-19.26 31.08-13.62"/>
   <path class="cls-2" d="m264.81 68.42-43.76 0.21 21.95 36.42zm-2.5 1.43-19.31 32.44-19.45-32.29 38.76-0.19"/>
   <path class="cls-2" d="m119.74 67.12-41.26 5 24.89 32zm-2.3 1.7-14.44 32.55-21.87-28.18 36.31-4.37"/>
   <path class="cls-2" d="m601.65 138.64-8.65 29.48 30.2-7.47zm0.68 2.72 18.12 18.51-25.4 6.28 7.28-24.79"/>
   <path class="cls-2" d="m460.12 132.92-17.62 37.46 42.24-4.25zm0.27 2.74 21.73 29.34-37.28 3.75 15.55-33.06"/>
   <path class="cls-2" d="m308.42 130.63-10.53 37.37 38.51-10.18zm0.72 2.68 24.48 23.79-33.69 8.9 9.21-32.7"/>
   <path class="cls-2" d="m169.5 136.64-9.86 31.55 32.78-7.52-22.92-24zm0.63 2.72 19.55 20.49-28 6.41 8.4-26.9"/>
   <path class="cls-2" d="m42.68 133.08-27.92 27.86 39.08 9.82zm-0.68 2.68 9.78 33-34.24-8.6 24.46-24.4"/>
   <path class="cls-2" d="m645.45 192.08 22.66 39.5 24.33-38.58zm2.48 1.47 42 0.84-21.73 34.44-20.24-35.28"/>
   <path class="cls-2" d="m505.79 185.22 16.84 46.53 33.56-36.75zm2.19 1.87 45.46 8.83-30.27 33.14-15.19-42"/>
   <path class="cls-2" d="m400 191.28-32.68 0.84 17 27.35zm-2.44 1.48-13.26 23.91-14.46-23.2 27.73-0.71"/>
   <path class="cls-2" d="m261.05 188.11-35.33 12.07 27.88 23.75zm-1.9 2.14-6.45 31.05-24.16-20.59 30.61-10.46"/>
   <path class="cls-2" d="m88.84 187.25 17 35.91 23.67-32.25zm2.34 1.64 35.67 3.21-20.77 28.31-14.9-31.52"/>
   <path class="cls-2" d="m608.82 250.71-19.22 27.5 34 2.6zm-0.21 2.78 12.62 25.72-29.05-2.21 16.43-23.49"/>
   <path class="cls-2" d="m464.76 254.32-20.31 29.77 36.67 2.42zm-0.18 2.77 14.15 27.84-31.73-2.09 17.56-25.75"/>
   <path class="cls-2" d="m320.19 258.33-7.87 29.17 29.52-8zm0.73 2.7 18.16 17.77-24.75 6.69 6.59-24.49"/>
   <path class="cls-2" d="m166.34 247.52-13.58 40 42.5-9.08zm0.58 2.7 25.59 27.33-37.6 8.05 12-35.38"/>
   <path class="cls-2" d="m32.24 245.15-26.72 37.18 47 3.63zm-0.24 2.74 18.07 36.47-41.93-3.25 23.86-33.22"/>
   <path class="cls-2" d="m652.51 305.07 13.59 35 24.35-28.78zm2.22 1.8 33 5.43-21.19 25-11.83-30.47"/>
   <path class="cls-2" d="m546.5 297.48-44.89 14.52 34.85 30 10-44.49zm-1.93 2.11-9 39.77-31.14-26.78 40.12-13"/>
   <path class="cls-2" d="m364.59 306.53 21 37.61 23.41-36.38zm2.46 1.48 39.39 1.1-20.74 32.28-18.65-33.39"/>
   <path class="cls-2" d="m259.11 302.13-39.34 6.22 25 29.88zm-2.23 1.79-12.53 31.58-21.88-26.14 34.41-5.44"/>
   <path class="cls-2" d="m87.09 306.35 19.7 39.52 25.73-36.06zm2.38 1.65 40.43 3-22.9 32.13-17.53-35.13"/>
   <path class="cls-2" d="m601.33 366.57-21.44 31.93 39.26 2.09zm-0.15 2.77 15.56 29.66-34.28-1.83 18.72-27.87"/>
   <path class="cls-2" d="m462.83 367.08-18.1 33.05 38.52-1.3zm0.1 2.77 17.78 27.65-33.54 1.13 15.76-28.78"/>
   <path class="cls-2" d="m313.85 365.76-13.85 49.09 51.08-14-37.18-35.14zm0.73 2.64 33.64 31.79-46.22 12.63 12.59-44.42"/>
   <path class="cls-2" d="m176.74 359.84-22.74 45.94 53-4.44-30.27-41.5zm0.23 2.72 27.41 37.58-48 4 20.62-41.58"/>
   <path class="cls-2" d="m27.48 362.79-20.08 45.69 51.31-6.64zm0.35 2.71 28.17 35.26-46.32 6 18.15-41.26"/>
   <path class="cls-2" d="m649.88 421.14 19.06 40.07 26.53-35.76zm2.35 1.64 40.6 3.85-23.62 31.84-17-35.69"/>
   <path class="cls-2" d="m510.89 416.2 10.51 48.16 38-31.85zm1.92 2.14 43.69 14.71-34.22 28.72-9.47-43.43"/>
   <path class="cls-2" d="m369.8 427 21.83 36.85 22.2-36.56-44-0.29zm2.5 1.43 39 0.26-19.67 32.4-19.33-32.68"/>
   <path class="cls-2" d="m229.12 422.7 16.34 31.76 20-29.57zm2.4 1.56 31.4 1.89-17.29 25.54-14.11-27.43"/>
   <path class="cls-2" d="m84.62 420.37 18.85 40.27 26.74-35.58zm2.38 1.63 40.61 4.18-23.82 31.69-16.79-35.87"/>
   <path class="cls-2" d="m598.6 486.87-18.13 32.13 37.73-0.65-19.6-31.46zm0.06 2.78 17 27.31-32.76 0.56 15.74-27.87"/>
   <path class="cls-2" d="m463.87 490.07-18.68 26.41 32.71 2.73zm-0.23 2.78 11.9 24.74-27.76-2.32 15.86-22.42"/>
   <path class="cls-2" d="m322.46 491.23-17.89 22.2 28.4 4.3zm-0.46 2.77 8.7 22-23.52-3.57 14.82-18.43"/>
   <path class="cls-2" d="m172.27 481.29-25.4 48.57 57-3.36zm0.17 2.72 28.86 41.23-52 3.06 23.14-44.3"/>
   <path class="cls-2" d="m29.32 487.49-16.69 32.17 37-1.92zm0.15 2.78 17.53 26.18-32 1.66 14.44-27.84"/>
   <path class="cls-2" d="m658.65 541 17.29 36.76 24.26-32.76zm2.34 1.65 36.58 3.52-21.36 28.83-15.21-32.33"/>
   <path class="cls-2" d="m512.19 545 18.38 31.92 19.17-31.43zm2.47 1.45 32.58 0.43-16.64 27.22-15.94-27.69"/>
   <path class="cls-2" d="m402.61 547.62-37.84 2.73 21.53 30.58zm-2.36 1.59-14.17 28.94-18.71-26.57 32.88-2.37"/>
   <path class="cls-2" d="m265.48 542.21-47.48 5.46 28.54 36.7zm-2.32 1.69-17 37.74-25.55-32.85 42.52-4.89"/>
   <path class="cls-2" d="m87.3 542 7.09 33 25.55-22.23zm1.91 2.12 27.92 9.2-21.86 19-6.06-28.23"/>
   <path class="cls-2" d="m598.73 598-27.12 44.29 53.6-0.06zm0 2.74 24 40.07-48.57 0.06 24.58-40.13"/>
   <path class="cls-2" d="m464.49 600.21-19.89 36.79 43-1.8-23.08-35zm0.12 2.75 20.4 30.9-38 1.59 17.6-32.45"/>
   <path class="cls-2" d="m319.11 607.37-12.35 31.63 34.05-5.54zm0.44 2.75 18.58 22.3-29.13 4.74 10.57-27"/>
   <path class="cls-2" d="m178.62 599.74-25.29 40 48.68 0.84zm-0.06 2.75 21 36.59-43.66-0.75 22.68-35.84"/>
   <path class="cls-2" d="m40 604.57-19.25 26.75 33.31 3zm-0.25 2.78 12 25.32-28.37-2.54 16.38-22.78"/>
   <path class="cls-2" d="m648.64 660.23 18.87 43 29.22-36.74zm2.36 1.77 43.11 5.63-26.19 32.93-16.92-38.56"/>
   <path class="cls-2" d="m541.73 657.89-41.73 12.63 31.67 28.48zm-2 2.07-8.9 36.38-28-25.19 36.93-11.15"/>
   <path class="cls-2" d="m377.61 661.9 10.28 34.72 25.5-25.7zm2.06 2 31 7.79-22.07 22.25-8.9-30"/>
   <path class="cls-2" d="m217.7 663.73 24.61 42.11 26-41.67zm2.48 1.44 45.58 0.39-23.41 37.54-22.17-37.93"/>
   <path class="cls-2" d="m96.45 664.8 10.81 29.92 20.9-24zm2.17 1.85 26.84 5-17.68 20.35-9.16-25.32"/>
  </g>
 </g>
 <path class="cls-1" d="M 708.66,708.66 H 0 V 0 h 708.66 v 708.66" fill="#f9d48e"/>
 <g fill="#fadca0">
  <path class="cls-2" d="m616.29 43.58-13.54-26.36-16.33 24.78z"/>
  <path class="cls-2" d="m472.58 43.06-11-24.56-15.89 21.73z"/>
  <path class="cls-2" d="m332.44 39.22-15.44-19.92-9.53 23.36z"/>
  <path class="cls-2" d="m191.62 40.43-18.1-22.89-11.05 27z"/>
  <path class="cls-2" d="m45.4 44.38-9.4-26.14-18.12 21.13z"/>
  <path class="cls-2" d="m658.54 73.49 13.76 26.1 16-24.79z"/>
  <path class="cls-2" d="m514 73.68 17.79 27.23 15.21-28.77z"/>
  <path class="cls-2" d="m371.14 76.89 21.14 23.26 10-29.79z"/>
  <path class="cls-2" d="m230.15 69.3 14 32.91 22.1-28.15z"/>
  <path class="cls-2" d="m87.28 74.69 18.52 25.87 13.58-28.77z"/>
  <path class="cls-2" d="m616.1 158.89-15.4-20.89-10.48 23.77z"/>
  <path class="cls-2" d="m473.94 161.64-13.22-24.64-14.89 23.65z"/>
  <path class="cls-2" d="m334.27 159.49-17.39-22.63-11.14 26.28z"/>
  <path class="cls-2" d="m190.27 158.22-16.9-20.36-9.28 24.78z"/>
  <path class="cls-2" d="m46.27 161.79-11.63-24.26-15.3 22.13z"/>
  <path class="cls-2" d="m655.43 192.84 16.8 31.26 19.3-29.79z"/>
  <path class="cls-2" d="m514.92 190.33 13.73 34.18 23.35-28.46z"/>
  <path class="cls-2" d="m374.81 195.68 14.29 25.81 15.48-25.12z"/>
  <path class="cls-2" d="m225.71 197.27 23.55 26.55 11.91-33.42z"/>
  <path class="cls-2" d="m92.51 194.11 9.78 26.74 18.46-21.69z"/>
  <path class="cls-2" d="m616 280.8-13.56-24.9-15.04 24.1z"/>
  <path class="cls-2" d="m473.27 278.46-13.55-21.07-11.47 22.27z"/>
  <path class="cls-2" d="m333.64 277.2-17.26-20.37-9.12 25.1z"/>
  <path class="cls-2" d="m193.31 281-19.1-27.33-14.65 29.94z"/>
  <path class="cls-2" d="m48.94 285.16-13-31.82-21.57 26.76z"/>
  <path class="cls-2" d="m659.43 309.19 11.2 29.06 19.9-24z"/>
  <path class="cls-2" d="m512.93 314.33 20.69 24.18 11.06-29.85z"/>
  <path class="cls-2" d="m374.45 309.77 13.67 29 18.68-26z"/>
  <path class="cls-2" d="m230.7 314 16.75 23.39 12.12-26.09z"/>
  <path class="cls-2" d="m89.07 309.41 14.18 29.76 19.15-26.83z"/>
  <path class="cls-2" d="m615.49 396.74-13.06-24.26-14.64 23.35z"/>
  <path class="cls-2" d="m474.51 395.63-14.77-23.08-12.74 24.26z"/>
  <path class="cls-2" d="m338 398.55-20.57-30-16.43 32.45z"/>
  <path class="cls-2" d="m193.61 398.28-18.93-29-16.24 30.58z"/>
  <path class="cls-2" d="m52.89 398.83-20.06-30.29-16.92 32.15z"/>
  <path class="cls-2" d="m657.72 427.27 13.87 29.3 18.86-26.36z"/>
  <path class="cls-2" d="m514.6 424.34 14.27 34.13 23.13-28.91z"/>
  <path class="cls-2" d="m371.24 428.87 19 28.55 15.81-30.42z"/>
  <path class="cls-2" d="m231.05 430 15.38 25.53 14.72-25.91z"/>
  <path class="cls-2" d="m86.52 426.35 17.41 32 19.73-30.66z"/>
  <path class="cls-2" d="m619.13 513-19.83-22.21-9.65 28.21z"/>
  <path class="cls-2" d="m473.9 515.47-13.46-23.88-14.09 23.51z"/>
  <path class="cls-2" d="m331.12 514.26-12.65-21.59-12.38 21.74z"/>
  <path class="cls-2" d="m196.27 516.2-23.35-28.78-14 34.3z"/>
  <path class="cls-2" d="m47.87 513-15.7-20.65-10.09 23.89z"/>
  <path class="cls-2" d="m659.1 548.86 12.51 27 17.39-24.13z"/>
  <path class="cls-2" d="m510.47 550.82 23.3 27.72 13.1-33.76z"/>
  <path class="cls-2" d="m375.08 554.7 16.43 19 8.27-23.7z"/>
  <path class="cls-2" d="m225.78 551.26 23.26 27 12.46-33.39z"/>
  <path class="cls-2" d="m92.57 547.69 9.3 27.76 19.61-21.73z"/>
  <path class="cls-2" d="m617.63 638.24-12.63-34.24-24 27.52z"/>
  <path class="cls-2" d="m477.31 632.14-18.05-26.33-14.26 28.59z"/>
  <path class="cls-2" d="m333.41 632.86-14.56-26.2-15.71 25.52z"/>
  <path class="cls-2" d="m189.79 635-12.66-29-19.2 25.2z"/>
  <path class="cls-2" d="m47.29 633.55-12.4-26.55-17 23.83z"/>
  <path class="cls-2" d="m656.34 667.16 16.77 27.47 15.85-28z"/>
  <path class="cls-2" d="m514.16 670.23 19 23.35 11-28z"/>
  <path class="cls-2" d="m371.79 664.69 17 31.51 19.43-30.06z"/>
  <path class="cls-2" d="m231.48 663.53 12.35 31.71 21.78-26.14z"/>
  <path class="cls-2" d="m90.14 667.43 13.88 26 15.85-24.85z"/>
  <path class="cls-2" d="m593.74 11.82-16.39 40.34 44.2-7zm0.42 2.72 24.7 29.64-39.25 6.19 14.55-35.83"/>
  <path class="cls-2" d="m467.44 12.16-27.44 24.93 36.13 10.91-8.69-35.88zm-0.82 2.65 7.55 31.19-31.37-9.55 23.82-21.64"/>
  <path class="cls-2" d="m313 14.1-8.73 29.25 30-7.25zm0.67 2.73 17.9 18.47-25.27 6.09 7.34-24.56"/>
  <path class="cls-2" d="m182.21 14.37-18.89 29 35.21 1.63zm-0.13 2.79 14 26.28-30.22-1.44 16.22-24.88"/>
  <path class="cls-2" d="m38 14.52-19.37 24.05 30.89 4.56zm-0.41 2.78 9.67 24.07-26-3.84 16.36-20.23"/>
  <path class="cls-2" d="m655 66.89 14.58 38.36 26.95-31zm2.21 1.83 36.61 6.44-23.76 27.37-12.82-33.81"/>
  <path class="cls-2" d="m551.15 67.36-40.91 5.64 25.2 31.42 15.71-37zm-2.28 1.74-13.81 32.55-22.15-27.65 36-4.94"/>
  <path class="cls-2" d="m406.36 65.93-35.65 15.61 31.13 22.09zm-1.7 2.29-4 32.88-27.08-19.26 31.08-13.62"/>
  <path class="cls-2" d="m264.81 68.42-43.76 0.21 21.95 36.42zm-2.5 1.43-19.31 32.44-19.45-32.29 38.76-0.19"/>
  <path class="cls-2" d="m119.74 67.12-41.26 5 24.89 32zm-2.3 1.7-14.44 32.55-21.87-28.18 36.31-4.37"/>
  <path class="cls-2" d="m601.65 138.64-8.65 29.48 30.2-7.47zm0.68 2.72 18.12 18.51-25.4 6.28 7.28-24.79"/>
  <path class="cls-2" d="m460.12 132.92-17.62 37.46 42.24-4.25zm0.27 2.74 21.73 29.34-37.28 3.75 15.55-33.06"/>
  <path class="cls-2" d="m308.42 130.63-10.53 37.37 38.51-10.18zm0.72 2.68 24.48 23.79-33.69 8.9 9.21-32.7"/>
  <path class="cls-2" d="m169.5 136.64-9.86 31.55 32.78-7.52-22.92-24zm0.63 2.72 19.55 20.49-28 6.41 8.4-26.9"/>
  <path class="cls-2" d="m42.68 133.08-27.92 27.86 39.08 9.82zm-0.68 2.68 9.78 33-34.24-8.6 24.46-24.4"/>
  <path class="cls-2" d="m645.45 192.08 22.66 39.5 24.33-38.58zm2.48 1.47 42 0.84-21.73 34.44-20.24-35.28"/>
  <path class="cls-2" d="m505.79 185.22 16.84 46.53 33.56-36.75zm2.19 1.87 45.46 8.83-30.27 33.14-15.19-42"/>
  <path class="cls-2" d="m400 191.28-32.68 0.84 17 27.35zm-2.44 1.48-13.26 23.91-14.46-23.2 27.73-0.71"/>
  <path class="cls-2" d="m261.05 188.11-35.33 12.07 27.88 23.75zm-1.9 2.14-6.45 31.05-24.16-20.59 30.61-10.46"/>
  <path class="cls-2" d="m88.84 187.25 17 35.91 23.67-32.25zm2.34 1.64 35.67 3.21-20.77 28.31-14.9-31.52"/>
  <path class="cls-2" d="m608.82 250.71-19.22 27.5 34 2.6zm-0.21 2.78 12.62 25.72-29.05-2.21 16.43-23.49"/>
  <path class="cls-2" d="m464.76 254.32-20.31 29.77 36.67 2.42zm-0.18 2.77 14.15 27.84-31.73-2.09 17.56-25.75"/>
  <path class="cls-2" d="m320.19 258.33-7.87 29.17 29.52-8zm0.73 2.7 18.16 17.77-24.75 6.69 6.59-24.49"/>
  <path class="cls-2" d="m166.34 247.52-13.58 40 42.5-9.08zm0.58 2.7 25.59 27.33-37.6 8.05 12-35.38"/>
  <path class="cls-2" d="m32.24 245.15-26.72 37.18 47 3.63zm-0.24 2.74 18.07 36.47-41.93-3.25 23.86-33.22"/>
  <path class="cls-2" d="m652.51 305.07 13.59 35 24.35-28.78zm2.22 1.8 33 5.43-21.19 25-11.83-30.47"/>
  <path class="cls-2" d="m546.5 297.48-44.89 14.52 34.85 30 10-44.49zm-1.93 2.11-9 39.77-31.14-26.78 40.12-13"/>
  <path class="cls-2" d="m364.59 306.53 21 37.61 23.41-36.38zm2.46 1.48 39.39 1.1-20.74 32.28-18.65-33.39"/>
  <path class="cls-2" d="m259.11 302.13-39.34 6.22 25 29.88zm-2.23 1.79-12.53 31.58-21.88-26.14 34.41-5.44"/>
  <path class="cls-2" d="m87.09 306.35 19.7 39.52 25.73-36.06zm2.38 1.65 40.43 3-22.9 32.13-17.53-35.13"/>
  <path class="cls-2" d="m601.33 366.57-21.44 31.93 39.26 2.09zm-0.15 2.77 15.56 29.66-34.28-1.83 18.72-27.87"/>
  <path class="cls-2" d="m462.83 367.08-18.1 33.05 38.52-1.3zm0.1 2.77 17.78 27.65-33.54 1.13 15.76-28.78"/>
  <path class="cls-2" d="m313.85 365.76-13.85 49.09 51.08-14-37.18-35.14zm0.73 2.64 33.64 31.79-46.22 12.63 12.59-44.42"/>
  <path class="cls-2" d="m176.74 359.84-22.74 45.94 53-4.44-30.27-41.5zm0.23 2.72 27.41 37.58-48 4 20.62-41.58"/>
  <path class="cls-2" d="m27.48 362.79-20.08 45.69 51.31-6.64zm0.35 2.71 28.17 35.26-46.32 6 18.15-41.26"/>
  <path class="cls-2" d="m649.88 421.14 19.06 40.07 26.53-35.76zm2.35 1.64 40.6 3.85-23.62 31.84-17-35.69"/>
  <path class="cls-2" d="m510.89 416.2 10.51 48.16 38-31.85zm1.92 2.14 43.69 14.71-34.22 28.72-9.47-43.43"/>
  <path class="cls-2" d="m369.8 427 21.83 36.85 22.2-36.56-44-0.29zm2.5 1.43 39 0.26-19.67 32.4-19.33-32.68"/>
  <path class="cls-2" d="m229.12 422.7 16.34 31.76 20-29.57zm2.4 1.56 31.4 1.89-17.29 25.54-14.11-27.43"/>
  <path class="cls-2" d="m84.62 420.37 18.85 40.27 26.74-35.58zm2.38 1.63 40.61 4.18-23.82 31.69-16.79-35.87"/>
  <path class="cls-2" d="m598.6 486.87-18.13 32.13 37.73-0.65-19.6-31.46zm0.06 2.78 17 27.31-32.76 0.56 15.74-27.87"/>
  <path class="cls-2" d="m463.87 490.07-18.68 26.41 32.71 2.73zm-0.23 2.78 11.9 24.74-27.76-2.32 15.86-22.42"/>
  <path class="cls-2" d="m322.46 491.23-17.89 22.2 28.4 4.3zm-0.46 2.77 8.7 22-23.52-3.57 14.82-18.43"/>
  <path class="cls-2" d="m172.27 481.29-25.4 48.57 57-3.36zm0.17 2.72 28.86 41.23-52 3.06 23.14-44.3"/>
  <path class="cls-2" d="m29.32 487.49-16.69 32.17 37-1.92zm0.15 2.78 17.53 26.18-32 1.66 14.44-27.84"/>
  <path class="cls-2" d="m658.65 541 17.29 36.76 24.26-32.76zm2.34 1.65 36.58 3.52-21.36 28.83-15.21-32.33"/>
  <path class="cls-2" d="m512.19 545 18.38 31.92 19.17-31.43zm2.47 1.45 32.58 0.43-16.64 27.22-15.94-27.69"/>
  <path class="cls-2" d="m402.61 547.62-37.84 2.73 21.53 30.58zm-2.36 1.59-14.17 28.94-18.71-26.57 32.88-2.37"/>
  <path class="cls-2" d="m265.48 542.21-47.48 5.46 28.54 36.7zm-2.32 1.69-17 37.74-25.55-32.85 42.52-4.89"/>
  <path class="cls-2" d="m87.3 542 7.09 33 25.55-22.23zm1.91 2.12 27.92 9.2-21.86 19-6.06-28.23"/>
  <path class="cls-2" d="m598.73 598-27.12 44.29 53.6-0.06zm0 2.74 24 40.07-48.57 0.06 24.58-40.13"/>
  <path class="cls-2" d="m464.49 600.21-19.89 36.79 43-1.8-23.08-35zm0.12 2.75 20.4 30.9-38 1.59 17.6-32.45"/>
  <path class="cls-2" d="m319.11 607.37-12.35 31.63 34.05-5.54zm0.44 2.75 18.58 22.3-29.13 4.74 10.57-27"/>
  <path class="cls-2" d="m178.62 599.74-25.29 40 48.68 0.84zm-0.06 2.75 21 36.59-43.66-0.75 22.68-35.84"/>
  <path class="cls-2" d="m40 604.57-19.25 26.75 33.31 3zm-0.25 2.78 12 25.32-28.37-2.54 16.38-22.78"/>
  <path class="cls-2" d="m648.64 660.23 18.87 43 29.22-36.74zm2.36 1.77 43.11 5.63-26.19 32.93-16.92-38.56"/>
  <path class="cls-2" d="m541.73 657.89-41.73 12.63 31.67 28.48zm-2 2.07-8.9 36.38-28-25.19 36.93-11.15"/>
  <path class="cls-2" d="m377.61 661.9 10.28 34.72 25.5-25.7zm2.06 2 31 7.79-22.07 22.25-8.9-30"/>
  <path class="cls-2" d="m217.7 663.73 24.61 42.11 26-41.67zm2.48 1.44 45.58 0.39-23.41 37.54-22.17-37.93"/>
  <path class="cls-2" d="m96.45 664.8 10.81 29.92 20.9-24zm2.17 1.85 26.84 5-17.68 20.35-9.16-25.32"/>
 </g>
 <g transform="translate(0 1417.3)">
  <path class="cls-1" d="M 708.66,708.66 H 0 V 0 h 708.66 v 708.66" fill="#f9d48e"/>
  <g fill="#fadca0">
   <path class="cls-2" d="m616.29 43.58-13.54-26.36-16.33 24.78z"/>
   <path class="cls-2" d="m472.58 43.06-11-24.56-15.89 21.73z"/>
   <path class="cls-2" d="m332.44 39.22-15.44-19.92-9.53 23.36z"/>
   <path class="cls-2" d="m191.62 40.43-18.1-22.89-11.05 27z"/>
   <path class="cls-2" d="m45.4 44.38-9.4-26.14-18.12 21.13z"/>
   <path class="cls-2" d="m658.54 73.49 13.76 26.1 16-24.79z"/>
   <path class="cls-2" d="m514 73.68 17.79 27.23 15.21-28.77z"/>
   <path class="cls-2" d="m371.14 76.89 21.14 23.26 10-29.79z"/>
   <path class="cls-2" d="m230.15 69.3 14 32.91 22.1-28.15z"/>
   <path class="cls-2" d="m87.28 74.69 18.52 25.87 13.58-28.77z"/>
   <path class="cls-2" d="m616.1 158.89-15.4-20.89-10.48 23.77z"/>
   <path class="cls-2" d="m473.94 161.64-13.22-24.64-14.89 23.65z"/>
   <path class="cls-2" d="m334.27 159.49-17.39-22.63-11.14 26.28z"/>
   <path class="cls-2" d="m190.27 158.22-16.9-20.36-9.28 24.78z"/>
   <path class="cls-2" d="m46.27 161.79-11.63-24.26-15.3 22.13z"/>
   <path class="cls-2" d="m655.43 192.84 16.8 31.26 19.3-29.79z"/>
   <path class="cls-2" d="m514.92 190.33 13.73 34.18 23.35-28.46z"/>
   <path class="cls-2" d="m374.81 195.68 14.29 25.81 15.48-25.12z"/>
   <path class="cls-2" d="m225.71 197.27 23.55 26.55 11.91-33.42z"/>
   <path class="cls-2" d="m92.51 194.11 9.78 26.74 18.46-21.69z"/>
   <path class="cls-2" d="m616 280.8-13.56-24.9-15.04 24.1z"/>
   <path class="cls-2" d="m473.27 278.46-13.55-21.07-11.47 22.27z"/>
   <path class="cls-2" d="m333.64 277.2-17.26-20.37-9.12 25.1z"/>
   <path class="cls-2" d="m193.31 281-19.1-27.33-14.65 29.94z"/>
   <path class="cls-2" d="m48.94 285.16-13-31.82-21.57 26.76z"/>
   <path class="cls-2" d="m659.43 309.19 11.2 29.06 19.9-24z"/>
   <path class="cls-2" d="m512.93 314.33 20.69 24.18 11.06-29.85z"/>
   <path class="cls-2" d="m374.45 309.77 13.67 29 18.68-26z"/>
   <path class="cls-2" d="m230.7 314 16.75 23.39 12.12-26.09z"/>
   <path class="cls-2" d="m89.07 309.41 14.18 29.76 19.15-26.83z"/>
   <path class="cls-2" d="m615.49 396.74-13.06-24.26-14.64 23.35z"/>
   <path class="cls-2" d="m474.51 395.63-14.77-23.08-12.74 24.26z"/>
   <path class="cls-2" d="m338 398.55-20.57-30-16.43 32.45z"/>
   <path class="cls-2" d="m193.61 398.28-18.93-29-16.24 30.58z"/>
   <path class="cls-2" d="m52.89 398.83-20.06-30.29-16.92 32.15z"/>
   <path class="cls-2" d="m657.72 427.27 13.87 29.3 18.86-26.36z"/>
   <path class="cls-2" d="m514.6 424.34 14.27 34.13 23.13-28.91z"/>
   <path class="cls-2" d="m371.24 428.87 19 28.55 15.81-30.42z"/>
   <path class="cls-2" d="m231.05 430 15.38 25.53 14.72-25.91z"/>
   <path class="cls-2" d="m86.52 426.35 17.41 32 19.73-30.66z"/>
   <path class="cls-2" d="m619.13 513-19.83-22.21-9.65 28.21z"/>
   <path class="cls-2" d="m473.9 515.47-13.46-23.88-14.09 23.51z"/>
   <path class="cls-2" d="m331.12 514.26-12.65-21.59-12.38 21.74z"/>
   <path class="cls-2" d="m196.27 516.2-23.35-28.78-14 34.3z"/>
   <path class="cls-2" d="m47.87 513-15.7-20.65-10.09 23.89z"/>
   <path class="cls-2" d="m659.1 548.86 12.51 27 17.39-24.13z"/>
   <path class="cls-2" d="m510.47 550.82 23.3 27.72 13.1-33.76z"/>
   <path class="cls-2" d="m375.08 554.7 16.43 19 8.27-23.7z"/>
   <path class="cls-2" d="m225.78 551.26 23.26 27 12.46-33.39z"/>
   <path class="cls-2" d="m92.57 547.69 9.3 27.76 19.61-21.73z"/>
   <path class="cls-2" d="m617.63 638.24-12.63-34.24-24 27.52z"/>
   <path class="cls-2" d="m477.31 632.14-18.05-26.33-14.26 28.59z"/>
   <path class="cls-2" d="m333.41 632.86-14.56-26.2-15.71 25.52z"/>
   <path class="cls-2" d="m189.79 635-12.66-29-19.2 25.2z"/>
   <path class="cls-2" d="m47.29 633.55-12.4-26.55-17 23.83z"/>
   <path class="cls-2" d="m656.34 667.16 16.77 27.47 15.85-28z"/>
   <path class="cls-2" d="m514.16 670.23 19 23.35 11-28z"/>
   <path class="cls-2" d="m371.79 664.69 17 31.51 19.43-30.06z"/>
   <path class="cls-2" d="m231.48 663.53 12.35 31.71 21.78-26.14z"/>
   <path class="cls-2" d="m90.14 667.43 13.88 26 15.85-24.85z"/>
   <path class="cls-2" d="m593.74 11.82-16.39 40.34 44.2-7zm0.42 2.72 24.7 29.64-39.25 6.19 14.55-35.83"/>
   <path class="cls-2" d="m467.44 12.16-27.44 24.93 36.13 10.91-8.69-35.88zm-0.82 2.65 7.55 31.19-31.37-9.55 23.82-21.64"/>
   <path class="cls-2" d="m313 14.1-8.73 29.25 30-7.25zm0.67 2.73 17.9 18.47-25.27 6.09 7.34-24.56"/>
   <path class="cls-2" d="m182.21 14.37-18.89 29 35.21 1.63zm-0.13 2.79 14 26.28-30.22-1.44 16.22-24.88"/>
   <path class="cls-2" d="m38 14.52-19.37 24.05 30.89 4.56zm-0.41 2.78 9.67 24.07-26-3.84 16.36-20.23"/>
   <path class="cls-2" d="m655 66.89 14.58 38.36 26.95-31zm2.21 1.83 36.61 6.44-23.76 27.37-12.82-33.81"/>
   <path class="cls-2" d="m551.15 67.36-40.91 5.64 25.2 31.42 15.71-37zm-2.28 1.74-13.81 32.55-22.15-27.65 36-4.94"/>
   <path class="cls-2" d="m406.36 65.93-35.65 15.61 31.13 22.09zm-1.7 2.29-4 32.88-27.08-19.26 31.08-13.62"/>
   <path class="cls-2" d="m264.81 68.42-43.76 0.21 21.95 36.42zm-2.5 1.43-19.31 32.44-19.45-32.29 38.76-0.19"/>
   <path class="cls-2" d="m119.74 67.12-41.26 5 24.89 32zm-2.3 1.7-14.44 32.55-21.87-28.18 36.31-4.37"/>
   <path class="cls-2" d="m601.65 138.64-8.65 29.48 30.2-7.47zm0.68 2.72 18.12 18.51-25.4 6.28 7.28-24.79"/>
   <path class="cls-2" d="m460.12 132.92-17.62 37.46 42.24-4.25zm0.27 2.74 21.73 29.34-37.28 3.75 15.55-33.06"/>
   <path class="cls-2" d="m308.42 130.63-10.53 37.37 38.51-10.18zm0.72 2.68 24.48 23.79-33.69 8.9 9.21-32.7"/>
   <path class="cls-2" d="m169.5 136.64-9.86 31.55 32.78-7.52-22.92-24zm0.63 2.72 19.55 20.49-28 6.41 8.4-26.9"/>
   <path class="cls-2" d="m42.68 133.08-27.92 27.86 39.08 9.82zm-0.68 2.68 9.78 33-34.24-8.6 24.46-24.4"/>
   <path class="cls-2" d="m645.45 192.08 22.66 39.5 24.33-38.58zm2.48 1.47 42 0.84-21.73 34.44-20.24-35.28"/>
   <path class="cls-2" d="m505.79 185.22 16.84 46.53 33.56-36.75zm2.19 1.87 45.46 8.83-30.27 33.14-15.19-42"/>
   <path class="cls-2" d="m400 191.28-32.68 0.84 17 27.35zm-2.44 1.48-13.26 23.91-14.46-23.2 27.73-0.71"/>
   <path class="cls-2" d="m261.05 188.11-35.33 12.07 27.88 23.75zm-1.9 2.14-6.45 31.05-24.16-20.59 30.61-10.46"/>
   <path class="cls-2" d="m88.84 187.25 17 35.91 23.67-32.25zm2.34 1.64 35.67 3.21-20.77 28.31-14.9-31.52"/>
   <path class="cls-2" d="m608.82 250.71-19.22 27.5 34 2.6zm-0.21 2.78 12.62 25.72-29.05-2.21 16.43-23.49"/>
   <path class="cls-2" d="m464.76 254.32-20.31 29.77 36.67 2.42zm-0.18 2.77 14.15 27.84-31.73-2.09 17.56-25.75"/>
   <path class="cls-2" d="m320.19 258.33-7.87 29.17 29.52-8zm0.73 2.7 18.16 17.77-24.75 6.69 6.59-24.49"/>
   <path class="cls-2" d="m166.34 247.52-13.58 40 42.5-9.08zm0.58 2.7 25.59 27.33-37.6 8.05 12-35.38"/>
   <path class="cls-2" d="m32.24 245.15-26.72 37.18 47 3.63zm-0.24 2.74 18.07 36.47-41.93-3.25 23.86-33.22"/>
   <path class="cls-2" d="m652.51 305.07 13.59 35 24.35-28.78zm2.22 1.8 33 5.43-21.19 25-11.83-30.47"/>
   <path class="cls-2" d="m546.5 297.48-44.89 14.52 34.85 30 10-44.49zm-1.93 2.11-9 39.77-31.14-26.78 40.12-13"/>
   <path class="cls-2" d="m364.59 306.53 21 37.61 23.41-36.38zm2.46 1.48 39.39 1.1-20.74 32.28-18.65-33.39"/>
   <path class="cls-2" d="m259.11 302.13-39.34 6.22 25 29.88zm-2.23 1.79-12.53 31.58-21.88-26.14 34.41-5.44"/>
   <path class="cls-2" d="m87.09 306.35 19.7 39.52 25.73-36.06zm2.38 1.65 40.43 3-22.9 32.13-17.53-35.13"/>
   <path class="cls-2" d="m601.33 366.57-21.44 31.93 39.26 2.09zm-0.15 2.77 15.56 29.66-34.28-1.83 18.72-27.87"/>
   <path class="cls-2" d="m462.83 367.08-18.1 33.05 38.52-1.3zm0.1 2.77 17.78 27.65-33.54 1.13 15.76-28.78"/>
   <path class="cls-2" d="m313.85 365.76-13.85 49.09 51.08-14-37.18-35.14zm0.73 2.64 33.64 31.79-46.22 12.63 12.59-44.42"/>
   <path class="cls-2" d="m176.74 359.84-22.74 45.94 53-4.44-30.27-41.5zm0.23 2.72 27.41 37.58-48 4 20.62-41.58"/>
   <path class="cls-2" d="m27.48 362.79-20.08 45.69 51.31-6.64zm0.35 2.71 28.17 35.26-46.32 6 18.15-41.26"/>
   <path class="cls-2" d="m649.88 421.14 19.06 40.07 26.53-35.76zm2.35 1.64 40.6 3.85-23.62 31.84-17-35.69"/>
   <path class="cls-2" d="m510.89 416.2 10.51 48.16 38-31.85zm1.92 2.14 43.69 14.71-34.22 28.72-9.47-43.43"/>
   <path class="cls-2" d="m369.8 427 21.83 36.85 22.2-36.56-44-0.29zm2.5 1.43 39 0.26-19.67 32.4-19.33-32.68"/>
   <path class="cls-2" d="m229.12 422.7 16.34 31.76 20-29.57zm2.4 1.56 31.4 1.89-17.29 25.54-14.11-27.43"/>
   <path class="cls-2" d="m84.62 420.37 18.85 40.27 26.74-35.58zm2.38 1.63 40.61 4.18-23.82 31.69-16.79-35.87"/>
   <path class="cls-2" d="m598.6 486.87-18.13 32.13 37.73-0.65-19.6-31.46zm0.06 2.78 17 27.31-32.76 0.56 15.74-27.87"/>
   <path class="cls-2" d="m463.87 490.07-18.68 26.41 32.71 2.73zm-0.23 2.78 11.9 24.74-27.76-2.32 15.86-22.42"/>
   <path class="cls-2" d="m322.46 491.23-17.89 22.2 28.4 4.3zm-0.46 2.77 8.7 22-23.52-3.57 14.82-18.43"/>
   <path class="cls-2" d="m172.27 481.29-25.4 48.57 57-3.36zm0.17 2.72 28.86 41.23-52 3.06 23.14-44.3"/>
   <path class="cls-2" d="m29.32 487.49-16.69 32.17 37-1.92zm0.15 2.78 17.53 26.18-32 1.66 14.44-27.84"/>
   <path class="cls-2" d="m658.65 541 17.29 36.76 24.26-32.76zm2.34 1.65 36.58 3.52-21.36 28.83-15.21-32.33"/>
   <path class="cls-2" d="m512.19 545 18.38 31.92 19.17-31.43zm2.47 1.45 32.58 0.43-16.64 27.22-15.94-27.69"/>
   <path class="cls-2" d="m402.61 547.62-37.84 2.73 21.53 30.58zm-2.36 1.59-14.17 28.94-18.71-26.57 32.88-2.37"/>
   <path class="cls-2" d="m265.48 542.21-47.48 5.46 28.54 36.7zm-2.32 1.69-17 37.74-25.55-32.85 42.52-4.89"/>
   <path class="cls-2" d="m87.3 542 7.09 33 25.55-22.23zm1.91 2.12 27.92 9.2-21.86 19-6.06-28.23"/>
   <path class="cls-2" d="m598.73 598-27.12 44.29 53.6-0.06zm0 2.74 24 40.07-48.57 0.06 24.58-40.13"/>
   <path class="cls-2" d="m464.49 600.21-19.89 36.79 43-1.8-23.08-35zm0.12 2.75 20.4 30.9-38 1.59 17.6-32.45"/>
   <path class="cls-2" d="m319.11 607.37-12.35 31.63 34.05-5.54zm0.44 2.75 18.58 22.3-29.13 4.74 10.57-27"/>
   <path class="cls-2" d="m178.62 599.74-25.29 40 48.68 0.84zm-0.06 2.75 21 36.59-43.66-0.75 22.68-35.84"/>
   <path class="cls-2" d="m40 604.57-19.25 26.75 33.31 3zm-0.25 2.78 12 25.32-28.37-2.54 16.38-22.78"/>
   <path class="cls-2" d="m648.64 660.23 18.87 43 29.22-36.74zm2.36 1.77 43.11 5.63-26.19 32.93-16.92-38.56"/>
   <path class="cls-2" d="m541.73 657.89-41.73 12.63 31.67 28.48zm-2 2.07-8.9 36.38-28-25.19 36.93-11.15"/>
   <path class="cls-2" d="m377.61 661.9 10.28 34.72 25.5-25.7zm2.06 2 31 7.79-22.07 22.25-8.9-30"/>
   <path class="cls-2" d="m217.7 663.73 24.61 42.11 26-41.67zm2.48 1.44 45.58 0.39-23.41 37.54-22.17-37.93"/>
   <path class="cls-2" d="m96.45 664.8 10.81 29.92 20.9-24zm2.17 1.85 26.84 5-17.68 20.35-9.16-25.32"/>
  </g>
 </g>
 <g transform="translate(1417.3 1417.3)">
  <path class="cls-1" d="M 708.66,708.66 H 0 V 0 h 708.66 v 708.66" fill="#f9d48e"/>
  <g fill="#fadca0">
   <path class="cls-2" d="m616.29 43.58-13.54-26.36-16.33 24.78z"/>
   <path class="cls-2" d="m472.58 43.06-11-24.56-15.89 21.73z"/>
   <path class="cls-2" d="m332.44 39.22-15.44-19.92-9.53 23.36z"/>
   <path class="cls-2" d="m191.62 40.43-18.1-22.89-11.05 27z"/>
   <path class="cls-2" d="m45.4 44.38-9.4-26.14-18.12 21.13z"/>
   <path class="cls-2" d="m658.54 73.49 13.76 26.1 16-24.79z"/>
   <path class="cls-2" d="m514 73.68 17.79 27.23 15.21-28.77z"/>
   <path class="cls-2" d="m371.14 76.89 21.14 23.26 10-29.79z"/>
   <path class="cls-2" d="m230.15 69.3 14 32.91 22.1-28.15z"/>
   <path class="cls-2" d="m87.28 74.69 18.52 25.87 13.58-28.77z"/>
   <path class="cls-2" d="m616.1 158.89-15.4-20.89-10.48 23.77z"/>
   <path class="cls-2" d="m473.94 161.64-13.22-24.64-14.89 23.65z"/>
   <path class="cls-2" d="m334.27 159.49-17.39-22.63-11.14 26.28z"/>
   <path class="cls-2" d="m190.27 158.22-16.9-20.36-9.28 24.78z"/>
   <path class="cls-2" d="m46.27 161.79-11.63-24.26-15.3 22.13z"/>
   <path class="cls-2" d="m655.43 192.84 16.8 31.26 19.3-29.79z"/>
   <path class="cls-2" d="m514.92 190.33 13.73 34.18 23.35-28.46z"/>
   <path class="cls-2" d="m374.81 195.68 14.29 25.81 15.48-25.12z"/>
   <path class="cls-2" d="m225.71 197.27 23.55 26.55 11.91-33.42z"/>
   <path class="cls-2" d="m92.51 194.11 9.78 26.74 18.46-21.69z"/>
   <path class="cls-2" d="m616 280.8-13.56-24.9-15.04 24.1z"/>
   <path class="cls-2" d="m473.27 278.46-13.55-21.07-11.47 22.27z"/>
   <path class="cls-2" d="m333.64 277.2-17.26-20.37-9.12 25.1z"/>
   <path class="cls-2" d="m193.31 281-19.1-27.33-14.65 29.94z"/>
   <path class="cls-2" d="m48.94 285.16-13-31.82-21.57 26.76z"/>
   <path class="cls-2" d="m659.43 309.19 11.2 29.06 19.9-24z"/>
   <path class="cls-2" d="m512.93 314.33 20.69 24.18 11.06-29.85z"/>
   <path class="cls-2" d="m374.45 309.77 13.67 29 18.68-26z"/>
   <path class="cls-2" d="m230.7 314 16.75 23.39 12.12-26.09z"/>
   <path class="cls-2" d="m89.07 309.41 14.18 29.76 19.15-26.83z"/>
   <path class="cls-2" d="m615.49 396.74-13.06-24.26-14.64 23.35z"/>
   <path class="cls-2" d="m474.51 395.63-14.77-23.08-12.74 24.26z"/>
   <path class="cls-2" d="m338 398.55-20.57-30-16.43 32.45z"/>
   <path class="cls-2" d="m193.61 398.28-18.93-29-16.24 30.58z"/>
   <path class="cls-2" d="m52.89 398.83-20.06-30.29-16.92 32.15z"/>
   <path class="cls-2" d="m657.72 427.27 13.87 29.3 18.86-26.36z"/>
   <path class="cls-2" d="m514.6 424.34 14.27 34.13 23.13-28.91z"/>
   <path class="cls-2" d="m371.24 428.87 19 28.55 15.81-30.42z"/>
   <path class="cls-2" d="m231.05 430 15.38 25.53 14.72-25.91z"/>
   <path class="cls-2" d="m86.52 426.35 17.41 32 19.73-30.66z"/>
   <path class="cls-2" d="m619.13 513-19.83-22.21-9.65 28.21z"/>
   <path class="cls-2" d="m473.9 515.47-13.46-23.88-14.09 23.51z"/>
   <path class="cls-2" d="m331.12 514.26-12.65-21.59-12.38 21.74z"/>
   <path class="cls-2" d="m196.27 516.2-23.35-28.78-14 34.3z"/>
   <path class="cls-2" d="m47.87 513-15.7-20.65-10.09 23.89z"/>
   <path class="cls-2" d="m659.1 548.86 12.51 27 17.39-24.13z"/>
   <path class="cls-2" d="m510.47 550.82 23.3 27.72 13.1-33.76z"/>
   <path class="cls-2" d="m375.08 554.7 16.43 19 8.27-23.7z"/>
   <path class="cls-2" d="m225.78 551.26 23.26 27 12.46-33.39z"/>
   <path class="cls-2" d="m92.57 547.69 9.3 27.76 19.61-21.73z"/>
   <path class="cls-2" d="m617.63 638.24-12.63-34.24-24 27.52z"/>
   <path class="cls-2" d="m477.31 632.14-18.05-26.33-14.26 28.59z"/>
   <path class="cls-2" d="m333.41 632.86-14.56-26.2-15.71 25.52z"/>
   <path class="cls-2" d="m189.79 635-12.66-29-19.2 25.2z"/>
   <path class="cls-2" d="m47.29 633.55-12.4-26.55-17 23.83z"/>
   <path class="cls-2" d="m656.34 667.16 16.77 27.47 15.85-28z"/>
   <path class="cls-2" d="m514.16 670.23 19 23.35 11-28z"/>
   <path class="cls-2" d="m371.79 664.69 17 31.51 19.43-30.06z"/>
   <path class="cls-2" d="m231.48 663.53 12.35 31.71 21.78-26.14z"/>
   <path class="cls-2" d="m90.14 667.43 13.88 26 15.85-24.85z"/>
   <path class="cls-2" d="m593.74 11.82-16.39 40.34 44.2-7zm0.42 2.72 24.7 29.64-39.25 6.19 14.55-35.83"/>
   <path class="cls-2" d="m467.44 12.16-27.44 24.93 36.13 10.91-8.69-35.88zm-0.82 2.65 7.55 31.19-31.37-9.55 23.82-21.64"/>
   <path class="cls-2" d="m313 14.1-8.73 29.25 30-7.25zm0.67 2.73 17.9 18.47-25.27 6.09 7.34-24.56"/>
   <path class="cls-2" d="m182.21 14.37-18.89 29 35.21 1.63zm-0.13 2.79 14 26.28-30.22-1.44 16.22-24.88"/>
   <path class="cls-2" d="m38 14.52-19.37 24.05 30.89 4.56zm-0.41 2.78 9.67 24.07-26-3.84 16.36-20.23"/>
   <path class="cls-2" d="m655 66.89 14.58 38.36 26.95-31zm2.21 1.83 36.61 6.44-23.76 27.37-12.82-33.81"/>
   <path class="cls-2" d="m551.15 67.36-40.91 5.64 25.2 31.42 15.71-37zm-2.28 1.74-13.81 32.55-22.15-27.65 36-4.94"/>
   <path class="cls-2" d="m406.36 65.93-35.65 15.61 31.13 22.09zm-1.7 2.29-4 32.88-27.08-19.26 31.08-13.62"/>
   <path class="cls-2" d="m264.81 68.42-43.76 0.21 21.95 36.42zm-2.5 1.43-19.31 32.44-19.45-32.29 38.76-0.19"/>
   <path class="cls-2" d="m119.74 67.12-41.26 5 24.89 32zm-2.3 1.7-14.44 32.55-21.87-28.18 36.31-4.37"/>
   <path class="cls-2" d="m601.65 138.64-8.65 29.48 30.2-7.47zm0.68 2.72 18.12 18.51-25.4 6.28 7.28-24.79"/>
   <path class="cls-2" d="m460.12 132.92-17.62 37.46 42.24-4.25zm0.27 2.74 21.73 29.34-37.28 3.75 15.55-33.06"/>
   <path class="cls-2" d="m308.42 130.63-10.53 37.37 38.51-10.18zm0.72 2.68 24.48 23.79-33.69 8.9 9.21-32.7"/>
   <path class="cls-2" d="m169.5 136.64-9.86 31.55 32.78-7.52-22.92-24zm0.63 2.72 19.55 20.49-28 6.41 8.4-26.9"/>
   <path class="cls-2" d="m42.68 133.08-27.92 27.86 39.08 9.82zm-0.68 2.68 9.78 33-34.24-8.6 24.46-24.4"/>
   <path class="cls-2" d="m645.45 192.08 22.66 39.5 24.33-38.58zm2.48 1.47 42 0.84-21.73 34.44-20.24-35.28"/>
   <path class="cls-2" d="m505.79 185.22 16.84 46.53 33.56-36.75zm2.19 1.87 45.46 8.83-30.27 33.14-15.19-42"/>
   <path class="cls-2" d="m400 191.28-32.68 0.84 17 27.35zm-2.44 1.48-13.26 23.91-14.46-23.2 27.73-0.71"/>
   <path class="cls-2" d="m261.05 188.11-35.33 12.07 27.88 23.75zm-1.9 2.14-6.45 31.05-24.16-20.59 30.61-10.46"/>
   <path class="cls-2" d="m88.84 187.25 17 35.91 23.67-32.25zm2.34 1.64 35.67 3.21-20.77 28.31-14.9-31.52"/>
   <path class="cls-2" d="m608.82 250.71-19.22 27.5 34 2.6zm-0.21 2.78 12.62 25.72-29.05-2.21 16.43-23.49"/>
   <path class="cls-2" d="m464.76 254.32-20.31 29.77 36.67 2.42zm-0.18 2.77 14.15 27.84-31.73-2.09 17.56-25.75"/>
   <path class="cls-2" d="m320.19 258.33-7.87 29.17 29.52-8zm0.73 2.7 18.16 17.77-24.75 6.69 6.59-24.49"/>
   <path class="cls-2" d="m166.34 247.52-13.58 40 42.5-9.08zm0.58 2.7 25.59 27.33-37.6 8.05 12-35.38"/>
   <path class="cls-2" d="m32.24 245.15-26.72 37.18 47 3.63zm-0.24 2.74 18.07 36.47-41.93-3.25 23.86-33.22"/>
   <path class="cls-2" d="m652.51 305.07 13.59 35 24.35-28.78zm2.22 1.8 33 5.43-21.19 25-11.83-30.47"/>
   <path class="cls-2" d="m546.5 297.48-44.89 14.52 34.85 30 10-44.49zm-1.93 2.11-9 39.77-31.14-26.78 40.12-13"/>
   <path class="cls-2" d="m364.59 306.53 21 37.61 23.41-36.38zm2.46 1.48 39.39 1.1-20.74 32.28-18.65-33.39"/>
   <path class="cls-2" d="m259.11 302.13-39.34 6.22 25 29.88zm-2.23 1.79-12.53 31.58-21.88-26.14 34.41-5.44"/>
   <path class="cls-2" d="m87.09 306.35 19.7 39.52 25.73-36.06zm2.38 1.65 40.43 3-22.9 32.13-17.53-35.13"/>
   <path class="cls-2" d="m601.33 366.57-21.44 31.93 39.26 2.09zm-0.15 2.77 15.56 29.66-34.28-1.83 18.72-27.87"/>
   <path class="cls-2" d="m462.83 367.08-18.1 33.05 38.52-1.3zm0.1 2.77 17.78 27.65-33.54 1.13 15.76-28.78"/>
   <path class="cls-2" d="m313.85 365.76-13.85 49.09 51.08-14-37.18-35.14zm0.73 2.64 33.64 31.79-46.22 12.63 12.59-44.42"/>
   <path class="cls-2" d="m176.74 359.84-22.74 45.94 53-4.44-30.27-41.5zm0.23 2.72 27.41 37.58-48 4 20.62-41.58"/>
   <path class="cls-2" d="m27.48 362.79-20.08 45.69 51.31-6.64zm0.35 2.71 28.17 35.26-46.32 6 18.15-41.26"/>
   <path class="cls-2" d="m649.88 421.14 19.06 40.07 26.53-35.76zm2.35 1.64 40.6 3.85-23.62 31.84-17-35.69"/>
   <path class="cls-2" d="m510.89 416.2 10.51 48.16 38-31.85zm1.92 2.14 43.69 14.71-34.22 28.72-9.47-43.43"/>
   <path class="cls-2" d="m369.8 427 21.83 36.85 22.2-36.56-44-0.29zm2.5 1.43 39 0.26-19.67 32.4-19.33-32.68"/>
   <path class="cls-2" d="m229.12 422.7 16.34 31.76 20-29.57zm2.4 1.56 31.4 1.89-17.29 25.54-14.11-27.43"/>
   <path class="cls-2" d="m84.62 420.37 18.85 40.27 26.74-35.58zm2.38 1.63 40.61 4.18-23.82 31.69-16.79-35.87"/>
   <path class="cls-2" d="m598.6 486.87-18.13 32.13 37.73-0.65-19.6-31.46zm0.06 2.78 17 27.31-32.76 0.56 15.74-27.87"/>
   <path class="cls-2" d="m463.87 490.07-18.68 26.41 32.71 2.73zm-0.23 2.78 11.9 24.74-27.76-2.32 15.86-22.42"/>
   <path class="cls-2" d="m322.46 491.23-17.89 22.2 28.4 4.3zm-0.46 2.77 8.7 22-23.52-3.57 14.82-18.43"/>
   <path class="cls-2" d="m172.27 481.29-25.4 48.57 57-3.36zm0.17 2.72 28.86 41.23-52 3.06 23.14-44.3"/>
   <path class="cls-2" d="m29.32 487.49-16.69 32.17 37-1.92zm0.15 2.78 17.53 26.18-32 1.66 14.44-27.84"/>
   <path class="cls-2" d="m658.65 541 17.29 36.76 24.26-32.76zm2.34 1.65 36.58 3.52-21.36 28.83-15.21-32.33"/>
   <path class="cls-2" d="m512.19 545 18.38 31.92 19.17-31.43zm2.47 1.45 32.58 0.43-16.64 27.22-15.94-27.69"/>
   <path class="cls-2" d="m402.61 547.62-37.84 2.73 21.53 30.58zm-2.36 1.59-14.17 28.94-18.71-26.57 32.88-2.37"/>
   <path class="cls-2" d="m265.48 542.21-47.48 5.46 28.54 36.7zm-2.32 1.69-17 37.74-25.55-32.85 42.52-4.89"/>
   <path class="cls-2" d="m87.3 542 7.09 33 25.55-22.23zm1.91 2.12 27.92 9.2-21.86 19-6.06-28.23"/>
   <path class="cls-2" d="m598.73 598-27.12 44.29 53.6-0.06zm0 2.74 24 40.07-48.57 0.06 24.58-40.13"/>
   <path class="cls-2" d="m464.49 600.21-19.89 36.79 43-1.8-23.08-35zm0.12 2.75 20.4 30.9-38 1.59 17.6-32.45"/>
   <path class="cls-2" d="m319.11 607.37-12.35 31.63 34.05-5.54zm0.44 2.75 18.58 22.3-29.13 4.74 10.57-27"/>
   <path class="cls-2" d="m178.62 599.74-25.29 40 48.68 0.84zm-0.06 2.75 21 36.59-43.66-0.75 22.68-35.84"/>
   <path class="cls-2" d="m40 604.57-19.25 26.75 33.31 3zm-0.25 2.78 12 25.32-28.37-2.54 16.38-22.78"/>
   <path class="cls-2" d="m648.64 660.23 18.87 43 29.22-36.74zm2.36 1.77 43.11 5.63-26.19 32.93-16.92-38.56"/>
   <path class="cls-2" d="m541.73 657.89-41.73 12.63 31.67 28.48zm-2 2.07-8.9 36.38-28-25.19 36.93-11.15"/>
   <path class="cls-2" d="m377.61 661.9 10.28 34.72 25.5-25.7zm2.06 2 31 7.79-22.07 22.25-8.9-30"/>
   <path class="cls-2" d="m217.7 663.73 24.61 42.11 26-41.67zm2.48 1.44 45.58 0.39-23.41 37.54-22.17-37.93"/>
   <path class="cls-2" d="m96.45 664.8 10.81 29.92 20.9-24zm2.17 1.85 26.84 5-17.68 20.35-9.16-25.32"/>
  </g>
 </g>
 <g transform="translate(1417.3)">
  <path class="cls-1" d="M 708.66,708.66 H 0 V 0 h 708.66 v 708.66" fill="#f9d48e"/>
  <g fill="#fadca0">
   <path class="cls-2" d="m616.29 43.58-13.54-26.36-16.33 24.78z"/>
   <path class="cls-2" d="m472.58 43.06-11-24.56-15.89 21.73z"/>
   <path class="cls-2" d="m332.44 39.22-15.44-19.92-9.53 23.36z"/>
   <path class="cls-2" d="m191.62 40.43-18.1-22.89-11.05 27z"/>
   <path class="cls-2" d="m45.4 44.38-9.4-26.14-18.12 21.13z"/>
   <path class="cls-2" d="m658.54 73.49 13.76 26.1 16-24.79z"/>
   <path class="cls-2" d="m514 73.68 17.79 27.23 15.21-28.77z"/>
   <path class="cls-2" d="m371.14 76.89 21.14 23.26 10-29.79z"/>
   <path class="cls-2" d="m230.15 69.3 14 32.91 22.1-28.15z"/>
   <path class="cls-2" d="m87.28 74.69 18.52 25.87 13.58-28.77z"/>
   <path class="cls-2" d="m616.1 158.89-15.4-20.89-10.48 23.77z"/>
   <path class="cls-2" d="m473.94 161.64-13.22-24.64-14.89 23.65z"/>
   <path class="cls-2" d="m334.27 159.49-17.39-22.63-11.14 26.28z"/>
   <path class="cls-2" d="m190.27 158.22-16.9-20.36-9.28 24.78z"/>
   <path class="cls-2" d="m46.27 161.79-11.63-24.26-15.3 22.13z"/>
   <path class="cls-2" d="m655.43 192.84 16.8 31.26 19.3-29.79z"/>
   <path class="cls-2" d="m514.92 190.33 13.73 34.18 23.35-28.46z"/>
   <path class="cls-2" d="m374.81 195.68 14.29 25.81 15.48-25.12z"/>
   <path class="cls-2" d="m225.71 197.27 23.55 26.55 11.91-33.42z"/>
   <path class="cls-2" d="m92.51 194.11 9.78 26.74 18.46-21.69z"/>
   <path class="cls-2" d="m616 280.8-13.56-24.9-15.04 24.1z"/>
   <path class="cls-2" d="m473.27 278.46-13.55-21.07-11.47 22.27z"/>
   <path class="cls-2" d="m333.64 277.2-17.26-20.37-9.12 25.1z"/>
   <path class="cls-2" d="m193.31 281-19.1-27.33-14.65 29.94z"/>
   <path class="cls-2" d="m48.94 285.16-13-31.82-21.57 26.76z"/>
   <path class="cls-2" d="m659.43 309.19 11.2 29.06 19.9-24z"/>
   <path class="cls-2" d="m512.93 314.33 20.69 24.18 11.06-29.85z"/>
   <path class="cls-2" d="m374.45 309.77 13.67 29 18.68-26z"/>
   <path class="cls-2" d="m230.7 314 16.75 23.39 12.12-26.09z"/>
   <path class="cls-2" d="m89.07 309.41 14.18 29.76 19.15-26.83z"/>
   <path class="cls-2" d="m615.49 396.74-13.06-24.26-14.64 23.35z"/>
   <path class="cls-2" d="m474.51 395.63-14.77-23.08-12.74 24.26z"/>
   <path class="cls-2" d="m338 398.55-20.57-30-16.43 32.45z"/>
   <path class="cls-2" d="m193.61 398.28-18.93-29-16.24 30.58z"/>
   <path class="cls-2" d="m52.89 398.83-20.06-30.29-16.92 32.15z"/>
   <path class="cls-2" d="m657.72 427.27 13.87 29.3 18.86-26.36z"/>
   <path class="cls-2" d="m514.6 424.34 14.27 34.13 23.13-28.91z"/>
   <path class="cls-2" d="m371.24 428.87 19 28.55 15.81-30.42z"/>
   <path class="cls-2" d="m231.05 430 15.38 25.53 14.72-25.91z"/>
   <path class="cls-2" d="m86.52 426.35 17.41 32 19.73-30.66z"/>
   <path class="cls-2" d="m619.13 513-19.83-22.21-9.65 28.21z"/>
   <path class="cls-2" d="m473.9 515.47-13.46-23.88-14.09 23.51z"/>
   <path class="cls-2" d="m331.12 514.26-12.65-21.59-12.38 21.74z"/>
   <path class="cls-2" d="m196.27 516.2-23.35-28.78-14 34.3z"/>
   <path class="cls-2" d="m47.87 513-15.7-20.65-10.09 23.89z"/>
   <path class="cls-2" d="m659.1 548.86 12.51 27 17.39-24.13z"/>
   <path class="cls-2" d="m510.47 550.82 23.3 27.72 13.1-33.76z"/>
   <path class="cls-2" d="m375.08 554.7 16.43 19 8.27-23.7z"/>
   <path class="cls-2" d="m225.78 551.26 23.26 27 12.46-33.39z"/>
   <path class="cls-2" d="m92.57 547.69 9.3 27.76 19.61-21.73z"/>
   <path class="cls-2" d="m617.63 638.24-12.63-34.24-24 27.52z"/>
   <path class="cls-2" d="m477.31 632.14-18.05-26.33-14.26 28.59z"/>
   <path class="cls-2" d="m333.41 632.86-14.56-26.2-15.71 25.52z"/>
   <path class="cls-2" d="m189.79 635-12.66-29-19.2 25.2z"/>
   <path class="cls-2" d="m47.29 633.55-12.4-26.55-17 23.83z"/>
   <path class="cls-2" d="m656.34 667.16 16.77 27.47 15.85-28z"/>
   <path class="cls-2" d="m514.16 670.23 19 23.35 11-28z"/>
   <path class="cls-2" d="m371.79 664.69 17 31.51 19.43-30.06z"/>
   <path class="cls-2" d="m231.48 663.53 12.35 31.71 21.78-26.14z"/>
   <path class="cls-2" d="m90.14 667.43 13.88 26 15.85-24.85z"/>
   <path class="cls-2" d="m593.74 11.82-16.39 40.34 44.2-7zm0.42 2.72 24.7 29.64-39.25 6.19 14.55-35.83"/>
   <path class="cls-2" d="m467.44 12.16-27.44 24.93 36.13 10.91-8.69-35.88zm-0.82 2.65 7.55 31.19-31.37-9.55 23.82-21.64"/>
   <path class="cls-2" d="m313 14.1-8.73 29.25 30-7.25zm0.67 2.73 17.9 18.47-25.27 6.09 7.34-24.56"/>
   <path class="cls-2" d="m182.21 14.37-18.89 29 35.21 1.63zm-0.13 2.79 14 26.28-30.22-1.44 16.22-24.88"/>
   <path class="cls-2" d="m38 14.52-19.37 24.05 30.89 4.56zm-0.41 2.78 9.67 24.07-26-3.84 16.36-20.23"/>
   <path class="cls-2" d="m655 66.89 14.58 38.36 26.95-31zm2.21 1.83 36.61 6.44-23.76 27.37-12.82-33.81"/>
   <path class="cls-2" d="m551.15 67.36-40.91 5.64 25.2 31.42 15.71-37zm-2.28 1.74-13.81 32.55-22.15-27.65 36-4.94"/>
   <path class="cls-2" d="m406.36 65.93-35.65 15.61 31.13 22.09zm-1.7 2.29-4 32.88-27.08-19.26 31.08-13.62"/>
   <path class="cls-2" d="m264.81 68.42-43.76 0.21 21.95 36.42zm-2.5 1.43-19.31 32.44-19.45-32.29 38.76-0.19"/>
   <path class="cls-2" d="m119.74 67.12-41.26 5 24.89 32zm-2.3 1.7-14.44 32.55-21.87-28.18 36.31-4.37"/>
   <path class="cls-2" d="m601.65 138.64-8.65 29.48 30.2-7.47zm0.68 2.72 18.12 18.51-25.4 6.28 7.28-24.79"/>
   <path class="cls-2" d="m460.12 132.92-17.62 37.46 42.24-4.25zm0.27 2.74 21.73 29.34-37.28 3.75 15.55-33.06"/>
   <path class="cls-2" d="m308.42 130.63-10.53 37.37 38.51-10.18zm0.72 2.68 24.48 23.79-33.69 8.9 9.21-32.7"/>
   <path class="cls-2" d="m169.5 136.64-9.86 31.55 32.78-7.52-22.92-24zm0.63 2.72 19.55 20.49-28 6.41 8.4-26.9"/>
   <path class="cls-2" d="m42.68 133.08-27.92 27.86 39.08 9.82zm-0.68 2.68 9.78 33-34.24-8.6 24.46-24.4"/>
   <path class="cls-2" d="m645.45 192.08 22.66 39.5 24.33-38.58zm2.48 1.47 42 0.84-21.73 34.44-20.24-35.28"/>
   <path class="cls-2" d="m505.79 185.22 16.84 46.53 33.56-36.75zm2.19 1.87 45.46 8.83-30.27 33.14-15.19-42"/>
   <path class="cls-2" d="m400 191.28-32.68 0.84 17 27.35zm-2.44 1.48-13.26 23.91-14.46-23.2 27.73-0.71"/>
   <path class="cls-2" d="m261.05 188.11-35.33 12.07 27.88 23.75zm-1.9 2.14-6.45 31.05-24.16-20.59 30.61-10.46"/>
   <path class="cls-2" d="m88.84 187.25 17 35.91 23.67-32.25zm2.34 1.64 35.67 3.21-20.77 28.31-14.9-31.52"/>
   <path class="cls-2" d="m608.82 250.71-19.22 27.5 34 2.6zm-0.21 2.78 12.62 25.72-29.05-2.21 16.43-23.49"/>
   <path class="cls-2" d="m464.76 254.32-20.31 29.77 36.67 2.42zm-0.18 2.77 14.15 27.84-31.73-2.09 17.56-25.75"/>
   <path class="cls-2" d="m320.19 258.33-7.87 29.17 29.52-8zm0.73 2.7 18.16 17.77-24.75 6.69 6.59-24.49"/>
   <path class="cls-2" d="m166.34 247.52-13.58 40 42.5-9.08zm0.58 2.7 25.59 27.33-37.6 8.05 12-35.38"/>
   <path class="cls-2" d="m32.24 245.15-26.72 37.18 47 3.63zm-0.24 2.74 18.07 36.47-41.93-3.25 23.86-33.22"/>
   <path class="cls-2" d="m652.51 305.07 13.59 35 24.35-28.78zm2.22 1.8 33 5.43-21.19 25-11.83-30.47"/>
   <path class="cls-2" d="m546.5 297.48-44.89 14.52 34.85 30 10-44.49zm-1.93 2.11-9 39.77-31.14-26.78 40.12-13"/>
   <path class="cls-2" d="m364.59 306.53 21 37.61 23.41-36.38zm2.46 1.48 39.39 1.1-20.74 32.28-18.65-33.39"/>
   <path class="cls-2" d="m259.11 302.13-39.34 6.22 25 29.88zm-2.23 1.79-12.53 31.58-21.88-26.14 34.41-5.44"/>
   <path class="cls-2" d="m87.09 306.35 19.7 39.52 25.73-36.06zm2.38 1.65 40.43 3-22.9 32.13-17.53-35.13"/>
   <path class="cls-2" d="m601.33 366.57-21.44 31.93 39.26 2.09zm-0.15 2.77 15.56 29.66-34.28-1.83 18.72-27.87"/>
   <path class="cls-2" d="m462.83 367.08-18.1 33.05 38.52-1.3zm0.1 2.77 17.78 27.65-33.54 1.13 15.76-28.78"/>
   <path class="cls-2" d="m313.85 365.76-13.85 49.09 51.08-14-37.18-35.14zm0.73 2.64 33.64 31.79-46.22 12.63 12.59-44.42"/>
   <path class="cls-2" d="m176.74 359.84-22.74 45.94 53-4.44-30.27-41.5zm0.23 2.72 27.41 37.58-48 4 20.62-41.58"/>
   <path class="cls-2" d="m27.48 362.79-20.08 45.69 51.31-6.64zm0.35 2.71 28.17 35.26-46.32 6 18.15-41.26"/>
   <path class="cls-2" d="m649.88 421.14 19.06 40.07 26.53-35.76zm2.35 1.64 40.6 3.85-23.62 31.84-17-35.69"/>
   <path class="cls-2" d="m510.89 416.2 10.51 48.16 38-31.85zm1.92 2.14 43.69 14.71-34.22 28.72-9.47-43.43"/>
   <path class="cls-2" d="m369.8 427 21.83 36.85 22.2-36.56-44-0.29zm2.5 1.43 39 0.26-19.67 32.4-19.33-32.68"/>
   <path class="cls-2" d="m229.12 422.7 16.34 31.76 20-29.57zm2.4 1.56 31.4 1.89-17.29 25.54-14.11-27.43"/>
   <path class="cls-2" d="m84.62 420.37 18.85 40.27 26.74-35.58zm2.38 1.63 40.61 4.18-23.82 31.69-16.79-35.87"/>
   <path class="cls-2" d="m598.6 486.87-18.13 32.13 37.73-0.65-19.6-31.46zm0.06 2.78 17 27.31-32.76 0.56 15.74-27.87"/>
   <path class="cls-2" d="m463.87 490.07-18.68 26.41 32.71 2.73zm-0.23 2.78 11.9 24.74-27.76-2.32 15.86-22.42"/>
   <path class="cls-2" d="m322.46 491.23-17.89 22.2 28.4 4.3zm-0.46 2.77 8.7 22-23.52-3.57 14.82-18.43"/>
   <path class="cls-2" d="m172.27 481.29-25.4 48.57 57-3.36zm0.17 2.72 28.86 41.23-52 3.06 23.14-44.3"/>
   <path class="cls-2" d="m29.32 487.49-16.69 32.17 37-1.92zm0.15 2.78 17.53 26.18-32 1.66 14.44-27.84"/>
   <path class="cls-2" d="m658.65 541 17.29 36.76 24.26-32.76zm2.34 1.65 36.58 3.52-21.36 28.83-15.21-32.33"/>
   <path class="cls-2" d="m512.19 545 18.38 31.92 19.17-31.43zm2.47 1.45 32.58 0.43-16.64 27.22-15.94-27.69"/>
   <path class="cls-2" d="m402.61 547.62-37.84 2.73 21.53 30.58zm-2.36 1.59-14.17 28.94-18.71-26.57 32.88-2.37"/>
   <path class="cls-2" d="m265.48 542.21-47.48 5.46 28.54 36.7zm-2.32 1.69-17 37.74-25.55-32.85 42.52-4.89"/>
   <path class="cls-2" d="m87.3 542 7.09 33 25.55-22.23zm1.91 2.12 27.92 9.2-21.86 19-6.06-28.23"/>
   <path class="cls-2" d="m598.73 598-27.12 44.29 53.6-0.06zm0 2.74 24 40.07-48.57 0.06 24.58-40.13"/>
   <path class="cls-2" d="m464.49 600.21-19.89 36.79 43-1.8-23.08-35zm0.12 2.75 20.4 30.9-38 1.59 17.6-32.45"/>
   <path class="cls-2" d="m319.11 607.37-12.35 31.63 34.05-5.54zm0.44 2.75 18.58 22.3-29.13 4.74 10.57-27"/>
   <path class="cls-2" d="m178.62 599.74-25.29 40 48.68 0.84zm-0.06 2.75 21 36.59-43.66-0.75 22.68-35.84"/>
   <path class="cls-2" d="m40 604.57-19.25 26.75 33.31 3zm-0.25 2.78 12 25.32-28.37-2.54 16.38-22.78"/>
   <path class="cls-2" d="m648.64 660.23 18.87 43 29.22-36.74zm2.36 1.77 43.11 5.63-26.19 32.93-16.92-38.56"/>
   <path class="cls-2" d="m541.73 657.89-41.73 12.63 31.67 28.48zm-2 2.07-8.9 36.38-28-25.19 36.93-11.15"/>
   <path class="cls-2" d="m377.61 661.9 10.28 34.72 25.5-25.7zm2.06 2 31 7.79-22.07 22.25-8.9-30"/>
   <path class="cls-2" d="m217.7 663.73 24.61 42.11 26-41.67zm2.48 1.44 45.58 0.39-23.41 37.54-22.17-37.93"/>
   <path class="cls-2" d="m96.45 664.8 10.81 29.92 20.9-24zm2.17 1.85 26.84 5-17.68 20.35-9.16-25.32"/>
  </g>
 </g>
</svg>
